<?xml version="1.0" encoding="UTF-8"?>
<svg id="Layer_2" data-name="Layer 2" xmlns="http://www.w3.org/2000/svg" viewBox="0 0 233.98 187.79">
  <defs>
    <style>
      .cls-1 {
        fill: #eff4f5;
      }

      .cls-2 {
        fill: #0386e2;
      }

      .cls-3 {
        fill: #eeeeef;
      }

      .cls-4 {
        fill: #072fa4;
      }

      .cls-5 {
        fill: #f2fafa;
      }

      .cls-6 {
        fill: #0657df;
      }

      .cls-7 {
        fill: #0361e3;
      }

      .cls-8 {
        fill: #d9d9da;
      }

      .cls-9 {
        fill: #146fd0;
      }

      .cls-10 {
        fill: #034ae3;
      }

      .cls-11 {
        fill: #076ddf;
      }

      .cls-12 {
        fill: #e2e3e3;
      }

      .cls-13 {
        fill: #cacbcc;
      }

      .cls-14 {
        fill: #096edb;
      }

      .cls-15 {
        fill: #e8e8e9;
      }

      .cls-16 {
        fill: #ececec;
      }

      .cls-17 {
        fill: #f9fbfa;
      }

      .cls-18 {
        fill: #0693e1;
      }

      .cls-19 {
        fill: #f4f6f5;
      }
    </style>
  </defs>
  <g id="Layer_1-2" data-name="Layer 1">
    <g>
      <path class="cls-13" d="M42.76,146.01c.84-1.33.72.42,1.57.5,1.25.12,2.92-.3,4.07-.03.37.09.13.84.97.94,1.68.21,3.25-.45,4.98.42,1.6.81,4.34,1.44,6.52,1.8,3.17.53,8.78.34,11.34.95.35.08.28.81.63.9,1.38.33,3.48-.3,4.87.02.44.1.11,1.27,1.45.92.18-.05.17-.82.54-.91,2.29-.56,3.71,1.76,5.41,1.84.15,0,.37-1.52,1.6-.93l.75,1.77c1.88.39,4.5-.33,6.26.07.33.07.34.69.69.86,2.79,1.33,5.35,2.69,8.55,2.81,1.45.05,4.15-.7,4.97-.42,2.49.86.81,4.5,2.59,4.52l-.91.9.95.27-.95,2.48c.45.03.92-.03,1.37,0,.15.01.31,0,.46,0,.49-.03,1.01.13,1.5-.01.44-.13.16-1.29,1.23-.45-.23-.8,2.29-3.59,2.86-3.99.28-.2,1.09,1.17.82-1.04l.91.91c-.62-4.56,3.48-2.56,6.53-3.32,1.34-.33,4.89-2.73,5.29-2.53.08.04.02.69.4.8.34.1,3.19.44,3.48.39,1.34-.21,2.75-2.16,2.93-2.2,1.19-.26,2.79.25,3.94-.02.35-.08.29-.82.63-.9,1.21-.27,9.89-1.88,10.43-1.86.16,0,.14,1.57,2.68.93.35-.09.29-.82.63-.89,3.42-.77,6.56-.45,10.02-.89.88-.11.44-.88,1.31-.99,2.1-.26,4.83.34,6.93.07.88-.11.44-.88,1.31-.99,1.8-.23,4.09.22,5.96.07l.5-1.44c1.1-.1,2.54.27,3.56.02.21-.05,3.16-1.76,3.37-1.81.97-.23,2.31.12,3.35,0-.8,1.05-1.75,3.69-2.83,5.18-36.74,50.55-109.65,48.91-145.19-2.04-.51-.73-.85-2.21-1.21-2.68Z"/>
      <path class="cls-15" d="M139.81,2.76c-.31,1.74.27,1.09,1,1.5,2.02,1.15,3.55,2.57,5.75,3.43.68.26,1.56-.07,2.3.23.39.16,5.96,4.29,6.76,4.9,10.54,8.01,22.24,25.1,25.18,37.99.52,2.29.07,4.95.68,7.33l-1.1-.48-.27.93c-1.13-.14-1.68-.16-2.14.9h-.61c-.05-.93-.91-3.87-1.37-4.56,1.45-.59,1.5-1.83,1.37-3.21-1.07.84-.96-1.02-2.73-.47-.01-.78.02-1.52-.24-2.28-2.36-7.07-6.76-15.38-11.01-21.49-.93-1.34-2.15-1.22-2.98-2.05-1.39-1.4-2.73-3.5-4.57-5.04-8.3-6.97-23.79-15.1-34.53-15.82-13.09-.88-23.81,2.57-35.46,8.06-5.67,2.68-17.08,13.02-20.64,18.27-1.24,1.83-1.73,4.81-2.8,6.36-.91,1.33-1.85,1.36-2.77,3.64-5.68,14-8.02,26.6-5.31,41.62.49,2.69,4.05,15.03,5.28,17.14.66,1.14,1.96,1.42,2.7,2.79,1.73,3.2,2.42,5.92,5.17,9.01.87.98,1.88.94,2.33,1.45.53.6.82,2.49,1.48,3.21,3.01,3.31,9.34,6.69,12.92,9.28,1.11.8,1.48,2.66,2.05,3.01.46.28,1.23-.24,1.84-.05,4.3,1.34,8.64,3.04,12.95,4.46,2.74.91,2.48.51,4.57.91.76.15,1.49,1.48,2.8,1.32.31-.04.26-1.3,1.19-.94,0,.61,0,1.22,0,1.83-.06.06.13.62-.09.8-.65.56-3.44-.23-4.49-.35-.82-1.34-1.55-.46-1.83-.46-5.18.03-10.63.42-15.11-.92l-4.15-2.48c-3.14.35-2.76-2.79-4.57-3.67-1.25-.6-3.16-.22-4.31-1.18-.53-.44-1.13-1.98-1.84-2.74-2.96-3.15-6.62-6.14-9.38-9.39-14.8-17.41-19.7-44.7-13.06-66.58,4.23-13.95,13.39-27.85,24.71-36.63.84-.65,2.4-.86,2.78-1.36.35-.46.1-1.16.21-1.37,1.12-2.24,5.15-2.04,6.86-3,14.3-7.98,38.59-8.07,54.48-3.87Z"/>
      <path class="cls-8" d="M201.61,61.8c-1.61-.06-1.26-.28-1.37,1.12-.21,2.51,1.01,4.51.91,5.95-1.43,19.98-7.51,42.97-21.03,58.17-1.66,1.86-3.52,1.56-2.77,5.24-3.79.72-7.15,1.12-10.99,1.37-.3.02-.61-.01-.92,0s-.61,0-.92,0c-.05,0-.31-.47-1-.39-1.72.2-3.66,2.19-4.49-.98,2.05.19,5.17-.04,4.58-2.75-.35-.37-3.27.84-2.75-.91h5.03c-.71-3.7,2.97-4.36,4.59-6.17,4.74-5.32,13.57-19.85,15.35-26.76,6.43-24.88,5.27-44.77-7.84-67.27-.52-.89-.48-2.07-.91-2.75-.78-1.23-3.96-1.11-2.03-3.69,12.96,11.05,21.01,23.87,26.55,39.82Z"/>
      <path class="cls-12" d="M139.81,2.76c5.49,1.45,22.78,8.85,26.82,12.34,2.02,1.74.72.49,2.02,1.13.87.43.71,1.65,1.04,1.97.29.29,1.45.3,2.16.82,1.12.83,2.2,2.09,3.22,2.96-1.93,2.58,1.25,2.46,2.03,3.69.43.68.39,1.86.91,2.75,13.1,22.5,14.26,42.39,7.84,67.27-1.78,6.91-10.61,21.43-15.35,26.76-1.61,1.81-5.3,2.47-4.59,6.17h-5.03c-.52,1.75,2.4.54,2.75.92.59,2.71-2.53,2.93-4.58,2.75.83,3.17,2.77,1.19,4.49.98.7-.08.95.39,1,.39v.46c-1.87.19-3.98.69-5.95.92-.15.02-.31-.02-.46,0-4.06.41-8.45,1.1-12.36,1.37.15-2.27-3.27-1.02-3.66-1.38-.04-.4-.08-.6.22-.92.59-.63,5.96-2.02,7.23-2.84,1.16-.75,2.15-2.93,3.55-3.77,7.18-4.35,9.68-7.38,14.89-13.95,4.39-5.53,6.78-9.04,9.57-15.6,4.24-9.97,6.35-25.58,5.26-36.32-.05-.45-.99-4.07-1.81-3.03v2.93c.06.47-.59.27-.92.27-.04-.45,0-.92,0-1.37,0-.61,0-1.22,0-1.83l.27-.93,1.1.48c-.61-2.38-.16-5.04-.68-7.33-2.94-12.88-14.63-29.98-25.18-37.99-.8-.61-6.37-4.74-6.76-4.9-.73-.3-1.62.04-2.3-.23-2.19-.86-3.73-2.28-5.75-3.43-.73-.42-1.31.24-1-1.5Z"/>
      <path class="cls-8" d="M51,30.68c-.74,7.12-5.04,12.6-6.66,19.66-3.78,16.52-3.43,28.67,1.86,44.87,4.16,12.72,11.97,23.05,20.81,32.74,1.32,1.44,3.83,1.57,3.71,4.29l4.99.05-.91,1.82c.28.23,3.36-.2,4.26.01,3.02.72,7.09.33,9.01.91,4.47,1.34,9.93.95,15.11.92.21.41.63.34.92.46.13.05.16.53.46,0,.15.01.31-.02.46,0,1.05.11,3.84.91,4.49.35.22-.19.03-.74.09-.8.06-.06.79.21.92-.3.61-2.32-.85-6.49.45-8.85-.17,3.34.12,6.73,0,10.07-.09.23.27.82-.29.94-3.29-.37-7.32.42-10.5.02-.88-.11-.44-.88-1.31-.99-7.45-.94-15.82-.86-23.61-1.79-.07,0-.52-.35-1.37-.46-.59-.07-1.24.07-1.83,0-.07,0-.54-.35-1.37-.46-1-.13-2.21.14-3.2,0-.3-.04-.8-.37-1.37-.46l1.37-1.37c-1.39-.16-3.03.21-4.37.02-1.7-.24-4.76-1.17-6.08-1.8-4.1-1.96-1.21-1.14-2.12-3.24-.54-1.26-5.3-5.26-6.39-6.92-10.93-16.61-14.4-33.22-15.28-52.82-.05-1.16,1.47-3.71-1.01-3.89,4.32-13.41,9.57-22.44,18.77-32.95Z"/>
      <path class="cls-12" d="M78.47,9.62c-.11.22.14.91-.21,1.37-.38.5-1.94.71-2.78,1.36-11.31,8.78-20.47,22.68-24.71,36.63-6.64,21.88-1.74,49.17,13.06,66.58,2.76,3.25,6.42,6.23,9.38,9.39.71.76,1.31,2.3,1.84,2.74,1.15.96,3.07.58,4.31,1.18,1.81.88,1.43,4.02,4.57,3.67l4.15,2.48c-1.92-.57-5.99-.18-9.01-.91-.9-.22-3.98.22-4.26-.01l.91-1.82-4.99-.05c.11-2.73-2.4-2.85-3.71-4.29-8.85-9.69-16.65-20.02-20.81-32.74-5.29-16.2-5.65-28.35-1.86-44.87,1.62-7.06,5.92-12.53,6.66-19.66.14-.16.32-.3.46-.46.48.56,1.06,1.04,1.83.91v-2.74c6.66-7.03,12.7-12.95,21.57-17.57,1.07-.56,2.38-1.14,3.61-1.2Z"/>
      <path class="cls-13" d="M201.61,61.8c7.8,22.46,6.63,37.59,1.57,60.39-.2.89-.69,1.6.71,1.4-6.79,3.32-14.45,6.02-21.97,7.78-.39.09-.97-.09-1.37,0l-1.37.46c-.65.13-1.31.36-1.83.46-.76-3.69,1.11-3.38,2.77-5.24,13.52-15.2,19.6-38.19,21.03-58.17.1-1.44-1.12-3.44-.91-5.95.12-1.4-.24-1.18,1.37-1.12Z"/>
      <path class="cls-13" d="M32.23,63.63c2.47.18.95,2.73,1.01,3.89.88,19.6,4.35,36.21,15.28,52.82,1.09,1.66,5.85,5.66,6.39,6.92.9,2.1-1.98,1.28,2.12,3.24,1.31.63,4.38,1.56,6.08,1.8,1.34.19,2.98-.18,4.37-.02l-1.37,1.37c-2.9-.43-5.82-.86-8.7-1.37-8.85-1.58-16.77-4.72-25.32-7.89-.48-.18-.72-.79-.77-.81.7-.81.18-1.25-.05-1.98-6.06-19.39-5.21-38.83.96-57.97Z"/>
      <path class="cls-2" d="M29.48,123.58v.91c-.3.04-.62-.03-.92,0,.08-.45.39-.7.46-.92h.46Z"/>
      <path class="cls-2" d="M26.28,140.06c-2.12-.77-4.74-1.26-6.75-2.16-1.46-.65-4.86-2.59-6.53-3.55-8.26-4.74-17.98-12.88-10.05-22.88,1.68-2.11,7.58-6.56,9.92-7.92,3.29-1.91,7.43-3.1,10.91-4.67-.86,1.98-3.02,2.61-4.28,4.41-3.47,4.96-2.83,9.67,1.29,13.98.86.9,4,2.52,4.12,3.56.02.14-.46.55-.43.87l3.18,1.42-.46,1.36c.45-.02.92.05,1.37,0-.09.49-.49,2.79-.47,2.94.03.4,1.09.33,1.33,1,.28.8.15,3.89-.14,4.78-.67,2.06-3.11,1.88-4.84,1.81v1.83c1.23.44.73-.82,1.21-.92,2.28-.5,4.46.68,3.82,3.21-1.25.56-1.35-.84-1.68-.91-1.03-.19-2.28.1-3.35,0l1.83,1.83Z"/>
      <path class="cls-18" d="M216.71,113.97c.05-.09,1.35.25.92-1.38l.91.47c.68-3.7-1.09-6.37-1.83-9.61l2.71.06c-.29,1.98,1.12,1.06,2.47,1.76.9.48,5.88,4.02,6.74,4.79.62.55,3.19,4.03,3.37,4.39.98,2.03,1.6,4.24,1.07,6.5-.27,1.17-1.48,1.64-1.57,1.84-.35.77-.56,3.19-1.05,3.99-.04.07-.78.78-.92.92-.16.16-.85.88-.92.92-.05.03-.6-.49-.82-.34-3.34,3.6-7.21,5.84-11.68,6.76-.13.03-.87,1.24-2.13,1.6-2.19.63-1.71-.49-2.76,1.14l-.46.46c-.7.58-1.08.31-1.37.46l-2.29-.46c-.59-2.38,1.54-.42,1.38-2.28-.91.03-1.84-.06-2.74,0-.01.3.02.61,0,.91h-1.83s0-.91,0-.91c.6-.03,1.22.03,1.83,0,.11-2.63-.37-6.07-.04-8.5.11-.82.55-.5.97-.88-.83-1.14-.72-1.83-.93-2.97h.92c-.63,1.18,2.79,1.58,2.75.23l-2.75-.69c1.06-.74,3.2-1.18,4.13-2.07.49-.48.32-.91.45-1.13.54-.1,1.25.08,1.83,0v-1.83c.13-.05.33.05.46,0,2.89-1.26,2.02-2.1,3.2-4.12Z"/>
      <path class="cls-11" d="M25.82,121.3c.12.06.34-.06.46,0l.46.46c.75.33,1.52.65,2.29.92-.05.29.07.68,0,.92-.07.22-.37.46-.46.92-.45.04-.92-.02-1.37,0l.46-1.36-3.18-1.42c-.03-.32.45-.73.43-.87h.46l.46.46Z"/>
      <path class="cls-11" d="M30.4,123.58c.29.03.71-.07.92,0,.06.02.3.63.77.81,8.54,3.17,16.47,6.3,25.32,7.89.44,2.86-3.45.89-5.04,1.83,1.48,3.85,1.29,8.48,0,12.35-3.44-.33-7.57-1.12-10.99-1.83-3.11-.64-6.08-1.59-9.16-2.29v-.91s-.92,0-.92,0c-.04-.06-.31.05-.46,0l.46-.91h-.68s-.23.91-.23.91c-.27-.07-.68.08-.92,0l-.46-.46c-.42-.17-.89-.25-1.37-.46l-.46-.46c-.18-.09-.64.06-.92,0l-1.83-1.83c1.07.11,2.32-.19,3.35,0,.33.06.42,1.47,1.68.91.64-2.53-1.54-3.72-3.82-3.21-.48.11.02,1.36-1.21.92v-1.83c1.73.07,4.16.25,4.83-1.81.29-.89.42-3.98.14-4.78-.24-.67-1.29-.61-1.33-1-.01-.15.38-2.45.47-2.94.3-.03.61.04.91,0v-.91c.3.02.62-.03.92,0ZM31.89,126.32c0-.31-.25-.57-.57-.57s-.57.25-.57.57.25.57.57.57.57-.25.57-.57Z"/>
      <path class="cls-11" d="M205.73,123.58c.21,1.14.11,1.84.93,2.97-.43.39-.86.06-.97.88-.33,2.43.15,5.87.04,8.5-.61.04-1.22-.03-1.83,0v.91s1.83,0,1.83,0c.02-.3-.01-.61,0-.91.91-.06,1.84.04,2.74,0,.16,1.86-1.96-.09-1.38,2.28l2.29.46c-2.5,1.25-4.4,1.56-6.96,2.44-.74.25-1.51.03-1.28,1.22-2.64.72-5.12,1.24-7.78,1.83-1.24.28-2.51.67-3.66.92-.94-1.01-2.67-.14-3.83-.53-.56-.19-.62-.97-1.08-1.32s-1.39-.33-1.74-.89c-.66-1.06-.93-8.43,2.24-7.34,1.42-.54-.63-1.1-.87-1.34-.79-.8-.44-1.92-2.13-1.28l-.37-1.03c7.52-1.76,15.19-4.46,21.97-7.78.35-.17.88-.21,1.37-.46.02.25.45.41.46.46ZM207.79,138.69v.46c.3-.15.3-.31,0-.46Z"/>
      <path class="cls-8" d="M130.65,139.6c.39.34,1.22.57,1.84,1.13,1.58,1.46,3.05,3.09,4.54,4.65l-5.92,6.57c8.25.08,16.52-.54,24.72-1.37.3-.03.62.03.92,0,4.09-.43,8.4-1.15,12.36-1.83,6.38-1.1,13.77-2.23,20.6-3.66,1.15-.24,2.42-.64,3.66-.92.3,1.25-1.27,1.24-1.37,1.37-1.04.13-2.38-.22-3.35,0-.21.05-3.16,1.76-3.37,1.81-1.02.25-2.46-.13-3.56-.02l-.5,1.44c-1.87.15-4.16-.29-5.96-.07-.88.11-.44.88-1.31.99-2.1.26-4.83-.34-6.93-.07-.88.11-.44.88-1.31.99-3.46.44-6.6.12-10.02.89-.33.07-.28.8-.63.89-2.53.65-2.51-.92-2.68-.93-.54-.01-9.22,1.59-10.43,1.86-.34.08-.28.81-.63.9-1.15.28-2.75-.24-3.94.02-.18.04-1.59,1.99-2.93,2.2-.3.05-3.14-.29-3.48-.39-.38-.11-.32-.76-.4-.8-.41-.2-3.95,2.19-5.29,2.53-3.05.76-7.14-1.24-6.53,3.32l-.91-.91c.27,2.21-.54.85-.82,1.04-.57.4-3.09,3.19-2.86,3.99-1.08-.84-.79.32-1.23.45-.49.14-1.01-.01-1.5.01l18.57-19.68c.4-.78-1.44-2.52-2.09-3.2,1.08-.04,2.11-2.19,2.75-3.2Z"/>
      <path class="cls-8" d="M52.37,146.47c.15.01.31-.01.46,0,1.27.92,3.15.7,4.58.92,7.62,1.13,15.56,2.93,23.8,3.66,9.89.88,19.84.92,29.76,1.37v13.27c-.46-.03-.92.03-1.38,0l.95-2.48-.95-.27.91-.9c-1.78-.02-.1-3.66-2.59-4.52-.83-.29-3.52.47-4.97.42-3.2-.12-5.77-1.48-8.55-2.81-.35-.17-.36-.78-.69-.86-1.75-.4-4.37.32-6.26-.07l-.75-1.77c-1.23-.59-1.44.94-1.6.93-1.71-.08-3.12-2.4-5.41-1.84-.37.09-.36.87-.54.91-1.34.35-1.01-.82-1.45-.92-1.39-.32-3.49.31-4.87-.02-.35-.08-.28-.81-.63-.9-2.55-.61-8.16-.42-11.34-.95-2.18-.36-4.92-1-6.52-1.8-1.73-.87-3.3-.21-4.98-.42-.84-.1-.6-.85-.97-.94-1.15-.27-2.82.15-4.07.03-.85-.08-.73-1.83-1.57-.5-.09-.12-1.67-.13-1.37-1.37,3.41.71,7.54,1.5,10.99,1.83Z"/>
      <path class="cls-9" d="M216.71,113.97c.62-1.15.56-6.27.15-7.7-.81-2.8-3.79-3.92-4.73-6.48.87-.09,1.63.28,2.41.56,4.32,1.56,11.43,5.85,14.77,9.03,5.03,4.8,6.42,11.29,2.06,17.09-.33.44-.89.28-.92.32-.55.66-.69.67-.92.92-.47.5-.44.47-.92.92-7.55,7.1-17.32,10.96-27.47,13.73-.23-1.19.54-.97,1.28-1.22,2.56-.88,4.46-1.19,6.96-2.44.29-.14.68.12,1.37-.46.18-.15.32-.25.46-.46,1.06-1.62.57-.51,2.76-1.14,1.26-.36,2-1.58,2.13-1.6,4.47-.91,8.34-3.16,11.68-6.76.22-.15.77.37.82.34.07-.04.75-.76.92-.92.14-.13.88-.85.92-.92.49-.81.7-3.23,1.05-3.99.09-.2,1.3-.67,1.57-1.84.53-2.26-.09-4.48-1.07-6.5-.18-.36-2.75-3.84-3.37-4.39-.85-.77-5.84-4.31-6.74-4.79-1.34-.71-2.76.22-2.47-1.76l-2.71-.06c.74,3.24,2.51,5.91,1.83,9.61l-.91-.47c.43,1.63-.87,1.29-.92,1.38-1.18,2.02-.32,2.86-3.2,4.12.62-1.31,1.5-2.58,2.28-3.8.28-.44.9-.27.92-.32Z"/>
      <path class="cls-9" d="M213.05,118.09v1.83c-.58.08-1.29-.11-1.83,0-.13.22.04.65-.45,1.13-.92.89-3.06,1.33-4.13,2.07v.46h-.92c0-.05-.44-.2-.46-.46,2.17-1.11,3.03-2.63,5.95-3.2.77-1.31-.03-1.1,1.83-1.83Z"/>
      <path class="cls-8" d="M53.29,28.39v2.74c-.77.13-1.35-.35-1.83-.91.66-.74,1.25-1.22,1.83-1.83Z"/>
      <path class="cls-13" d="M29.03,122.67c.32.11.96-.1,1.37,0v.91c-.3-.03-.61.02-.91,0h-.46c.07-.24-.05-.63,0-.92Z"/>
      <path class="cls-2" d="M31.32,141.43h.91s0,.92,0,.92c-.26-.06-.62.06-.91,0v-.91Z"/>
      <path class="cls-2" d="M30.4,141.43l.23-.92h.68s-.46.92-.46.92c-.14-.04-.31.04-.46,0Z"/>
      <path class="cls-2" d="M29.48,141.43c-.35-.11-.43-.45-.46-.46l.46.46Z"/>
      <path class="cls-13" d="M26.74,121.75l-.46-.46c.25.13.39.43.46.46Z"/>
      <path class="cls-2" d="M25.82,121.3l-.46-.46c.25.04.37.41.46.46Z"/>
      <path class="cls-2" d="M27.65,140.52c-.21-.09-.33-.4-.46-.46l.46.46Z"/>
      <path class="cls-4" d="M123.33,138.23c1.49,1.58,3.1,3.03,4.58,4.58.65.68,2.49,2.43,2.09,3.2l-18.57,19.68c-.15,0-.31.01-.46,0v-13.27c-9.92-.45-19.86-.49-29.76-1.37,1.37-.84,3.76-.45,5.49-.46,3.05-.01,7.49-.39,10.33-.04.88.11.44.88,1.31.99,1.22.15,10.68.14,11.15-.17.13-.09.02-1.34,1.01-.77.15.09,1.84,2.79,1.84,2.96v9.38l3.33-2.77c3.62-5.47,9.98-8.92,13.03-14.86l-14.64-15.64c-2.81-.58-2.46,1.6-2.64,3.52-.14,1.54.19,2.02-.46,3.66.12-3.34-.17-6.73,0-10.07.02-.42-.22-1.26.23-1.37,1.11,1.25,2.27,2.72,3.42,3.9,2.92,3,5.88,5.91,8.71,8.91Z"/>
      <path class="cls-3" d="M109.59,134.11c-.93-.35-.89.91-1.19.94-1.31.16-2.04-1.17-2.8-1.32-2.08-.4-1.83,0-4.57-.91-4.31-1.43-8.65-3.12-12.95-4.46-.6-.19-1.38.33-1.84.05-.57-.35-.94-2.21-2.05-3.01-3.58-2.58-9.91-5.97-12.92-9.28-.66-.72-.96-2.61-1.48-3.21-.45-.51-1.46-.47-2.33-1.45-2.75-3.09-3.44-5.81-5.17-9.01-.74-1.37-2.03-1.66-2.7-2.79-1.23-2.11-4.8-14.45-5.28-17.14-2.71-15.02-.38-27.62,5.31-41.62.93-2.28,1.86-2.31,2.77-3.64,1.06-1.55,1.56-4.53,2.8-6.36,3.56-5.24,14.97-15.59,20.64-18.27,11.65-5.49,22.37-8.94,35.46-8.06,10.74.72,26.23,8.85,34.53,15.82,1.84,1.54,3.18,3.64,4.57,5.04.83.84,2.05.71,2.98,2.05,4.25,6.11,8.65,14.42,11.01,21.49.25.76.22,1.5.24,2.28,1.77-.56,1.66,1.31,2.73.47.14,1.38.08,2.62-1.37,3.21-.03-.04-.59.06-.75-.15-.73-.93-.87-1.43-2-2.14-.38-.24-.44-.3-.92-.46-.13-.04-.31.03-.46,0v-.91c-2.13-.02-4.28.02-6.41,0-.48,0-.2.39-1.37,0-.24-1.51-.17-4.19-.7-5.48-3.56-8.62-14-19-21.85-23.92-4.49-2.81-9.17-3.32-13.95-5.27-.79-.32-1.12-1.27-2.19-1.48-6.8-1.31-14.49-.29-21.1.86-1.11.19-2.66-.2-3.56.11s-.66,1.67-1.18,2.03c-.58.39-2.23.14-3.25.42-3.2.87-15.21,8.38-17.68,10.93-1.07,1.1-1.93,3.57-2.98,5.03-2.95,4.12-8.67,10.54-9.51,15.66-.24,1.48.21,1.14,1.35,1.12-.23.38-1.81,2.93-1.95,3.06-.42.36-1.41.1-1.66.88l-.05,3.38,1.82-.91v2.28s-1.83-.91-1.83-.91c.25,3.39-1.24,6.38-1.4,9.81-.14,3.22.78,9.98,1.49,13.2.55,2.47,3.18,4.7,2.16,7.85,1.53.09,1.32,1.11,1.41,1.17-.22,1.37.33,3.54,0,4.74-.14.52-1.16-.07-.93.98.03.42.81.06.93.53.32,1.25-.35,7.08,0,7.48l1.82-.45c-.69,1.68.69,2.27.74,2.4.15.41-.14.86.16,1.37.77,1.31,2.12,1.06,2.61,1.41.56.39,1.09,1.8,1.94,1.95,1.01.18,5.88.47,6.36.74.19.11.41,1.06,1,1.5,2.66,1.98,14.15,8.21,17.29,9.27,2.72.91,6.45,1.42,9.27,1.23,1.04.62.91,8.42.91,9.87Z"/>
      <path class="cls-1" d="M122.41,74.16c1.74.53,3.33-2.72,3.96.29l.55,32.35c-.36,1.72-4.67.12-3.59,3.98-1.66.48-.25-1.7-1.6-1.37-.17.04-1.38,1.92-2.98,1.38l1.37,1.37c-2.93-.67-5.53.21-8.46,0-1.65-.12-5.16-1.99-5.27.46,2.14.47,5.96,2.22,8.01,2.23,1.28,0,2.17-1.1,3.23-1.29,1.84-.32,4.98.26,6.77-.56.98-.45,1.27-3.57,3.51-2.67v1.84s1.83,0,1.83,0v-2.75s2.7-.05,2.7-.05c.46-1.52.99-3.99-1.32-3.61,1.59-2.1-.41-3.2-.49-3.86-1.27-10.08,1.46-23.5.06-33.46-.17-1.2-1.05-1.88-1-3.19.01-.33,1.76-4.95,1.89-5.98.1-.73-.39-1.47-.34-1.83.08-.55,3.09-2.82,3.81-3.58.24-.25.09-.95.46-1.22,1.05-.75,2.89-.18,3.98-.43.35-.08.28-.81.63-.9,1-.24,6.95-.2,8.18-.04.39.05,1.6,1.35,2.49,1.41-2.08.09-4.86-.91-7.07-.8-7.13.35-11.73,4.14-12.16,11.32-.76.48-.46,1.74-.47,2.51-.1,9.77-1.22,25.49,0,34.56.47,3.47,3.27,8.91,6.95,9.67,2.87,2.71,7.69.87,11.36,1.32-1.1,1.06-1.87,3.48-3.43,4.58-.88.62-10.59,6.03-11.2,6.19-3.54.92-9.09,2.63-12.61,2.95-3.27.3-6.6-.13-9.83-.45l1.95,4.01c1.8-.03,1.91,1.49,3.96,1.08.13.09.09.64.04.86-.01.06-.75,0-.42.88.25.13.79-.04.87.03.06.05.82.82.92.92.06.07-.01.5.2.72,1.45,1.5,4.03,2.89,3.47,5.23-2.83-3-5.79-5.91-8.71-8.91-1.15-1.18-2.31-2.65-3.42-3.9-.45.11-.21.95-.23,1.37-1.3,2.36.16,6.53-.45,8.85-.13.51-.87.25-.92.3,0-.61,0-1.22,0-1.83,0-1.46.13-9.25-.91-9.87-2.83.19-6.55-.31-9.27-1.23-3.14-1.06-14.63-7.29-17.29-9.27-.59-.44-.82-1.39-1-1.5-.48-.28-5.35-.57-6.36-.74-.84-.15-1.38-1.55-1.94-1.95-.49-.35-1.84-.1-2.61-1.41-.3-.51-.01-.96-.16-1.37-.05-.13-1.43-.72-.74-2.4l-1.82.45c-.34-.4.33-6.24,0-7.48-.12-.47-.9-.11-.93-.53-.23-1.05.79-.46.93-.98.32-1.19-.23-3.37,0-4.74.1.07.64-.03.92,0v.46c-.55,9.7.84,19.32,12.57,19.7,7.28.23,11.73-2.91,13.07-10.09.79-4.26.77-9.44,0-13.73-.18-.99-.48-2.84-.92-3.66l2.15,3.02c.3,2.73-.69,7.15-.36,9.6.12.85.85.6.94.97.19.82-.19,3.59.01,3.8l2.29-.22-.93,3.88-.9-2.55-2.23.34-.51,3.75-1.39,1.21,1.38-.22-.46,2.05c2.7-1.34,2.96,1.3,4.44,1.74,1.55.46,3.95-.13,5.63.09l-1.83-.91c-.56-1.87,1.07-1.56.96-2.98,0-.11-.99-1.83-1.07-1.91-.7-.72-2.56-.39-2.64-.83-.34-1.86.87-1.56.9-1.88.32-2.68.38-10.16.05-12.79-.11-.89-.91-.67-.96-.89-.35-1.38.84-.82.96-1.8.47-3.79.49-16.44,0-20.2-.11-.85-1.35-.42-.99-2.74.14-.87.85-.61.94-.98.24-.98-.73-3.19.93-2.89-.05.45.02.92,0,1.37,0,.15,0,.31,0,.46v38.9c.01.15-.02.31,0,.46.15,1.13.61,1.5.92,2.29.27.71.06,1.25.7,2.27,3.9,6.18,15.48,6.6,20.6,1.87,2.29-2.12,2.93-4.85,3.41-7.8.84-5.14.84-13.17,0-18.31-.44-2.68-1.25-6.18-3.66-7.78ZM111.88,124.95v-.91h-.45v.91h.45Z"/>
      <path class="cls-16" d="M180.09,58.59c0,.61,0,1.22,0,1.83h-.91c-.03,1.36-.32,1.38.91,1.37.09,1.08.54,2.1.46,3.2-1.24.21-1.02-1.13-1.97-1.49-2.61-1-.12,2.98.03,3.66.54,2.4.76,6.1.52,8.54-1.91,19.5-11.5,35.68-26.53,47.63-5.72,4.54-12.14,7.43-19.19,10.57-.55.24-1.23.16-1.82.22l-.02,1.81-1.37-.46v1.37c.91.03,1.83-.03,2.74,0,.26,1.81-2.83.57-3.66.92.36.49.98,1.47,1.37,1.83-.64,1.02-1.67,3.17-2.75,3.2-1.48-1.55-3.09-3-4.58-4.58.57-2.34-2.01-3.73-3.47-5.23-.21-.22-.13-.65-.2-.72h.91c.03-.61-.02-1.22,0-1.83-2.84-.5-.61-2.94,0-2.29-.01.76.03,1.53,0,2.29.49.09,1.37-.2,1.76.06.43.29.13,1.84.98,1.76l.3-.92c1.85,0,4.09.13,5.86-.47.96-.33,1.41-1.09,1.97-1.24,4.39-1.17,3.88-.16,7.77-2.88,5.24-3.65,10.98-4.92,15.71-9.8.41-.42.41-1.32.92-1.83.78-.8,2.94-1,3.65-2.31-.19-1.32-1.89-.77-1.37-2.51,3.69.53,2.76-.34,4.39-2.25,5.57-6.54,7.94-13.68,10.37-21.67,1.08-3.54,1.99-7.12,3.14-10.64-.82-2.32-1.48-4.91-3.25-6.63.17-.18-.47-1.38.91-.45.09-.4-.12-1.12,0-1.38,1.37-2.88,3.92-2.6,3.66-7.78h.61c.46-1.08,1.02-1.05,2.14-.92Z"/>
      <path class="cls-9" d="M171.85,52.19c.15.03.33-.04.46,0l.92.46c1.13.71,1.26,1.2,2,2.14.16.21.72.11.75.15.46.7,1.33,3.64,1.37,4.58.25,5.18-2.3,4.9-3.66,7.78-4.93,2.3-11.46.54-12.32-5.3-1.01-6.83,3.75-11.34,10.49-9.8ZM172.18,57.35c-2.01-2.42-6.34-1.24-6.73,1.97-.68,5.7,6.79,6.23,7.35,1.81.13-1.02.05-2.98-.62-3.78Z"/>
      <path class="cls-3" d="M105.02,136.4c-.15-.02-.31.01-.46,0h-.46c-.29-.12-.7-.05-.92-.46.28,0,1.01-.89,1.83.46Z"/>
      <path class="cls-6" d="M166.36,133.65c.05,1.6.29,1.27-1.12,1.37-2.31.18-6.9-.61-4.55,3.18.22.35,1.07.41,1.13.74.27,1.53-4.18,3.36,1.68,4.66,1.22.27,3.69-.54,3.32,1.02h-6.87c-.39,2.19,1.74,1.73,3.15,2.35l.05,1.77h5.95c-3.96.68-8.27,1.4-12.36,1.83h-.92c-8.2.83-16.47,1.45-24.72,1.37l5.92-6.57c-1.48-1.56-2.96-3.19-4.54-4.65-.61-.57-1.45-.79-1.84-1.13s-1.01-1.33-1.37-1.83c.84-.35,3.93.89,3.66-.92,4.25.16,8.58-.16,12.82-.46,3.91-.27,8.3-.97,12.36-1.37l.23.45.23-.45c1.97-.22,4.08-.72,5.95-.92.07,0,.51.63.91.46v-.91c.31-.01.62.02.92,0Z"/>
      <path class="cls-7" d="M181.92,131.36l.37,1.03c1.69-.64,1.34.48,2.13,1.28.24.25,2.29.8.87,1.34-3.17-1.09-2.9,6.28-2.24,7.34.35.56,1.3.55,1.74.89s.52,1.13,1.08,1.32c1.16.39,2.89-.48,3.83.53-6.83,1.43-14.22,2.56-20.6,3.66h-5.95s-.05-1.77-.05-1.77c-1.41-.62-3.54-.16-3.15-2.35h6.87c.37-1.57-2.11-.75-3.32-1.02-5.86-1.3-1.41-3.13-1.68-4.66-.06-.34-.91-.39-1.13-.74-2.35-3.79,2.24-3,4.55-3.18,1.41-.11,1.18.22,1.12-1.37,3.83-.25,7.2-.65,10.99-1.37.53-.1,1.18-.32,1.83-.46s1.07-.39,1.37-.46c.4-.09.98.09,1.37,0ZM180.32,132.28v.46c.3-.15.3-.31,0-.46Z"/>
      <path class="cls-7" d="M165.44,133.65v.91c-.41.17-.85-.46-.92-.46v-.46c.3,0,.61.01.92,0Z"/>
      <path class="cls-15" d="M180.09,61.8c.33,0,.98.2.92-.27v-2.93c.82-1.04,1.76,2.58,1.81,3.03,1.09,10.74-1.02,26.35-5.26,36.32-2.79,6.56-5.19,10.07-9.57,15.6-5.21,6.57-7.71,9.59-14.89,13.95-1.4.85-2.39,3.03-3.55,3.77-1.27.82-6.64,2.2-7.23,2.84-.3.32-.26.52-.22.92.39.35,3.81-.89,3.66,1.38-4.23.3-8.57.61-12.82.46-.91-.03-1.84.03-2.75,0v-1.37s1.37.46,1.37.46l.02-1.81c.59-.07,1.27.02,1.82-.22,7.05-3.13,13.48-6.02,19.19-10.57,15.04-11.95,24.62-28.13,26.53-47.63.24-2.44.03-6.14-.52-8.54-.15-.68-2.64-4.66-.03-3.66.94.36.73,1.7,1.97,1.49.09-1.1-.37-2.12-.46-3.2-1.23,0-.94-.01-.91-1.37h.91c0,.45-.04.92,0,1.37Z"/>
      <path class="cls-7" d="M158.12,135.03c.15-.02.31.02.46,0l-.23.45-.23-.45Z"/>
      <path class="cls-6" d="M66.11,133.65c.57.09,1.08.42,1.37.46-.11,1.78,3.09.64,4.26.93,5.71,1.37,8.45,1.45,14.96,1.82v3.2c-.98.05-1.99-.06-2.98,0-.71.05-1.8-.44-1.6.68l2.3,1.46c-.83,1.41-.02,2.95-.13,3.99-.1.98-1.79,2.04-1.25,3.48.42.43,4.02-.95,3.66.92-1.73,0-4.13-.39-5.49.46-8.25-.73-16.18-2.53-23.8-3.66v-.91c-1.51-.09-3.07.12-4.58,0-.15-.01-.31.01-.46,0,1.29-3.87,1.48-8.5,0-12.35,1.59-.95,5.48,1.02,5.04-1.83,2.88.52,5.8.94,8.7,1.37Z"/>
      <path class="cls-9" d="M111.43,133.2c1.4-.25.87.7.91,1.58.06,1.35.3,4.17-1.58,4.4-1.51.19-5.87.19-7.37,0-.89-.11-.67-.91-.89-.96-1.34-.33-1.01.8-1.45.92-2.09.55-1.8-.83-2.64-.94-2.88-.37-6.63.33-9.62.07-.42-1.96-.35-1.31-2.08-1.4-6.51-.37-9.25-.45-14.96-1.82-1.17-.28-4.38.86-4.26-.93.99.14,2.2-.13,3.2,0l1.37.46c.59.07,1.24-.07,1.83,0l1.37.46c7.78.94,16.16.85,23.61,1.79.88.11.44.88,1.31.99,3.18.4,7.21-.38,10.5-.02.56-.11.2-.7.29-.94.65-1.64.32-2.12.46-3.66Z"/>
      <path class="cls-13" d="M72.06,134.57l-1.37-.46c.83.11,1.3.45,1.37.46Z"/>
      <path class="cls-13" d="M75.26,135.03l-1.37-.46c.85.11,1.3.45,1.37.46Z"/>
      <path class="cls-15" d="M104.1,136.4h.46c-.3.53-.33.05-.46,0Z"/>
      <path class="cls-11" d="M180.55,131.36c-.3.07-.74.32-1.37.46l1.37-.46Z"/>
      <path class="cls-11" d="M206.64,123.13l2.75.69c.04,1.35-3.38.94-2.75-.23v-.46Z"/>
      <path class="cls-11" d="M210.76,138.23l.46-.46c-.14.21-.28.31-.46.46Z"/>
      <circle class="cls-2" cx="31.32" cy="126.32" r=".57"/>
      <path class="cls-9" d="M207.79,138.69c.3.15.3.31,0,.46v-.46Z"/>
      <path class="cls-7" d="M156.74,150.59c-.3.03-.62-.03-.92,0h.92Z"/>
      <path class="cls-11" d="M52.83,146.47c1.51.12,3.07-.09,4.58,0v.91c-1.43-.21-3.31,0-4.58-.92Z"/>
      <path class="cls-10" d="M111.43,133.2c.18-1.92-.18-4.1,2.64-3.52l14.64,15.64c-3.05,5.95-9.41,9.4-13.03,14.86l-3.33,2.77v-9.38c0-.17-1.69-2.88-1.84-2.96-.99-.57-.87.68-1.01.77-.47.31-9.92.32-11.15.17-.88-.11-.44-.88-1.31-.99-2.84-.36-7.28.02-10.33.04.36-1.87-3.24-.48-3.66-.92-.53-1.44,1.15-2.5,1.25-3.48.11-1.04-.7-2.58.13-3.99l-2.3-1.46c-.2-1.13.89-.63,1.6-.68.99-.07,2,.05,2.98,0v-3.2c1.74.1,1.66-.55,2.08,1.4,2.99.26,6.74-.44,9.62-.07.84.11.55,1.49,2.64.94.43-.11.11-1.25,1.45-.92.21.05,0,.85.89.96,1.51.19,5.87.18,7.37,0,1.89-.24,1.65-3.06,1.58-4.4-.04-.88.48-1.83-.91-1.58Z"/>
      <path class="cls-19" d="M67.48,51.27c2.92-4.76,4.5-9.92,7.78-14.42,2.14-2.93,10.66-11.17,13.66-12.89,8.08-4.62,24.48-9.75,33.61-6.91.65.2.98,1.01,1.59,1.16,6.49,1.61,12.78,2.06,18.39,6.32,6.5,4.95,12.12,11,16.72,17.61l3.89,8.83c.21.47.7.21.95.29,1.18.39.89,0,1.37,0,.3,1.51-.89.61-1.7,1.06-.15.08-.12.74-.43.79-1.14.15-3.33-1.28-2.9,1.36l1.37.45-1.81.22c1.59,1.92-.24,4.46-.02,5.92.15,1.04,1.49,2.41.83,4.18-.13.35-1.23-.07-.82,1.12,1.2.06,1.68.28,2.06-.91.35,1.34,2.29,2.21,1.62,3.44,2.17-.59,2.23.46,3.19,2.05l-.91,2.29c2.78-.4,1.46.63,1.83,1.38-2.35.2-.95,4.19-1.45,5.65-.25.73-1.61.87-2.02,2.1-.56,1.67-.47,4.73-1.23,6.55-.47,1.11-1.82,1.98-2.07,3.43-.19,1.15.44,3.97-1.93,4.24.01-2.21-.02-4.43-.02-6.65-.02-6.04,1.17-22.05.01-26.9-.08-.35-.81-.28-.9-.63-.25-1.05.23-2.43-.02-3.49-.07-.3-.68-.32-.75-.47-.21-.54-.08-1.2-.3-1.54-.14-.22-3.41-3.56-3.64-3.67-.82-.39-2,.43-1.7-1.05.55-.27,1.61-.4,1.36-1.13s-4.3-6.8-5.03-7.79-6.61-8.17-7.06-8.5c-1.04-.75-4.29-1.5-5.62-2.16-7.82-3.91-16.47-8.37-25.88-5.94-1.13.29-3.88,2.27-4.78,2.54-2.05.62-5.13.89-7.33,1.82-1.71.72-3.3,2.65-4.26,3.07-.77.34-1.8.07-2.2.31-.21.13-1.68,3.46-2.56,4.08s-1.87.2-2.45.53c-.64.36-7.52,10.98-7.88,12.25-.06.22-.47.55-.46.92-2.63.26-6.42,2.5-7.79,4.79-1.96,3.27-1.17,9.37-1.36,13.06l8.7-.46c-.23-3.51-.47-9.6,4.35-9.6s4.74,7.73,4.35,11.21c-.62,5.47-4.15,4.96-8.7,4.8v8.7c.39,1.63,4.2.66,5.62.94.96.19,1.58,3.61,3.08,4.1.04.29-.02.62,0,.92-1.54-.22-.69.54-.74,1.3-.16,2.23.18,5.7-.19,7.52-.03.16-2.19,2.15-2.48,2.19-2.19.32-4.06-.44-4.6-2.76-.35-1.51-.87-5.78.7-6.2v-.68s-.81-.08-.81-.08l.36-.84c-3.12-.21-6.54.27-9.62,0-.28-.03-.82.07-.92,0-.09-.06.12-1.08-1.41-1.17,1.02-3.15-1.61-5.38-2.16-7.85-.71-3.22-1.64-9.97-1.49-13.2.15-3.44,1.65-6.42,1.4-9.81l1.83.91v-2.28s-1.82.91-1.82.91l.05-3.38c.25-.78,1.24-.52,1.66-.88.14-.13,1.72-2.68,1.95-3.06ZM164.64,71.4c0-.31-.25-.57-.57-.57s-.57.25-.57.57.25.57.57.57.57-.25.57-.57Z"/>
      <path class="cls-1" d="M164.07,51.27c-.24-.08-.74.18-.95-.29l-3.89-8.83c-4.6-6.62-10.21-12.67-16.72-17.61-5.61-4.27-11.9-4.72-18.39-6.32-.61-.15-.94-.96-1.59-1.16-9.14-2.84-25.53,2.29-33.61,6.91-3,1.71-11.52,9.95-13.66,12.89-3.29,4.5-4.86,9.65-7.78,14.42-1.15.02-1.6.36-1.35-1.12.85-5.13,6.57-11.55,9.51-15.66,1.05-1.46,1.91-3.93,2.98-5.03,2.47-2.54,14.48-10.06,17.68-10.93,1.01-.27,2.67-.02,3.25-.42.52-.35.31-1.72,1.18-2.03s2.44.09,3.56-.11c6.61-1.15,14.3-2.16,21.1-.86,1.06.2,1.4,1.15,2.19,1.48,4.78,1.95,9.46,2.46,13.95,5.27,7.85,4.92,18.29,15.3,21.85,23.92.53,1.29.46,3.97.7,5.48Z"/>
      <path class="cls-1" d="M173.22,52.64l-.92-.46c.47.16.54.22.92.46Z"/>
      <path class="cls-17" d="M78.01,51.27c.37-1.27,7.25-11.89,7.88-12.25.58-.33,1.54.11,2.45-.53s2.35-3.95,2.56-4.08c.4-.24,1.43.03,2.2-.31.95-.42,2.55-2.35,4.26-3.07,2.2-.94,5.28-1.2,7.33-1.82.91-.27,3.65-2.25,4.78-2.54,9.41-2.43,18.06,2.03,25.88,5.94,1.33.66,4.57,1.41,5.62,2.16.45.33,6.31,7.49,7.06,8.5s4.78,7.09,5.03,7.79-.81.86-1.36,1.13c-.18.09-.34.43-.46.46-.13.03-.3,0-.46,0-.89-.06-2.1-1.36-2.49-1.41-1.23-.15-7.18-.2-8.18.04-.35.08-.28.82-.63.9-1.09.25-2.93-.32-3.98.43-.37.26-.23.97-.46,1.22-.72.77-3.73,3.03-3.81,3.58-.05.36.43,1.11.34,1.83-.13,1.03-1.88,5.65-1.89,5.98-.05,1.31.83,1.99,1,3.19,1.4,9.96-1.33,23.38-.06,33.46.08.66,2.08,1.76.49,3.86,2.31-.37,1.78,2.09,1.32,3.61l-2.7.05v2.75s-1.83,0-1.83,0v-1.84c-2.24-.9-2.53,2.22-3.51,2.67-1.79.82-4.93.24-6.77.56-1.07.19-1.95,1.3-3.23,1.29-2.05-.01-5.87-1.76-8.01-2.23.11-2.46,3.62-.59,5.27-.46,2.93.22,5.53-.66,8.46,0l-1.37-1.37c1.6.54,2.81-1.34,2.98-1.38,1.35-.33-.06,1.85,1.6,1.37-1.07-3.86,3.23-2.26,3.59-3.98l-.55-32.35c-.63-3.01-2.22.24-3.96-.29-4.11-2.74-11.03-1.47-13.73,2.75v-11.67c0-1.05,1.43-4.11,2.45-4.62,5.09-2.58,7.38,2.81,6.7,7.14h8.7c.19-9.02-3.58-16.16-13.5-16.06-3.92.04-11.05,2.45-11.68,6.9h-1.83c-.24,1,.25.89.91,1.37-.03.15.02.31,0,.46-1.66-.3-.69,1.91-.93,2.89-.09.37-.8.11-.94.98-.36,2.32.88,1.89.99,2.74.49,3.76.47,16.41,0,20.2-.12.98-1.31.42-.96,1.8.05.21.85,0,.96.89.33,2.64.27,10.11-.05,12.79-.04.33-1.24.03-.9,1.88.08.44,1.94.11,2.64.83.08.08,1.06,1.8,1.07,1.91.11,1.41-1.52,1.11-.96,2.98l1.83.91c-1.68-.22-4.08.37-5.63-.09s-1.74-3.08-4.44-1.74l.46-2.05-1.38.22,1.39-1.21.51-3.75,2.23-.34.9,2.55.93-3.88-2.29.22c-.2-.21.18-2.98-.01-3.8-.09-.37-.82-.12-.94-.97-.34-2.45.66-6.87.36-9.6l-2.15-3.02c-.55-1.03-3.67-3.35-3.67-4.34,4.19-2.2,4.88-6.13,5.06-10.51.3-7.12-1.02-15.84-9.64-16.73v-.91s-6.87,0-6.87,0Z"/>
      <path class="cls-14" d="M101.35,58.59c.63-4.46,7.76-6.86,11.68-6.9,9.92-.1,13.69,7.04,13.5,16.06h-8.7c.67-4.33-1.62-9.72-6.7-7.14-1.02.52-2.45,3.57-2.45,4.62v11.67c2.71-4.22,9.62-5.48,13.73-2.75,2.41,1.61,3.23,5.1,3.66,7.78v18.31c-.48,2.95-1.12,5.68-3.41,7.8-5.12,4.73-16.7,4.3-20.6-1.87-.64-1.02-.43-1.56-.7-2.27v-2.29s-.92,0-.92,0c-.02-.15.01-.31,0-.46-1.03-11.3-.29-27.26,0-38.9,0-.15,0-.31,0-.46h.91c.11-1.02-.14-2.21,0-3.2ZM111.75,81.12c-.76.17-1.45.67-1.92,1.29-1.57,2.08-1.48,12.41-1.16,15.32.69,6.19,7.69,6.27,8.59,1.72.5-2.49.41-11.82.11-14.54-.38-3.32-2.32-4.54-5.63-3.79Z"/>
      <path class="cls-14" d="M150.79,52.64c.16,0,.33.03.46,0,.27,1.48,2.11,1.78,3.2,2.98,1.02,1.12,1.28,2.15,1.83,3.43v2.75s.92,0,.92,0c.01.15,0,.31,0,.46.8,12.51-.6,25.85,0,38.44-.01.07-.35.41-.46.92-.03.15.04.31,0,.46-.22.88-.27,2.14-.46,2.75-.04.14.05.33,0,.46-.03.08-.75,1.13-.92,1.37-1.47,2.17-4.59,3.26-5.95,4.58-3.67-.44-8.49,1.39-11.36-1.32-3.68-.76-6.48-6.2-6.95-9.67.76-.48.46-1.74.47-2.51.12-11.29-.67-23.42,0-34.56.43-7.18,5.03-10.97,12.16-11.32,2.2-.11,4.99.88,7.07.8ZM146.99,60.56c-.97-.71-4.03-.76-5.03-.15-.24.14-1.64,2.81-1.73,3.41l.05,35.7c.68,4.32,7.94,4.68,8.67-1.8,1.13-10.09-.85-22.19,0-32.5-.08-1.13-1.14-4.07-1.97-4.67Z"/>
      <path class="cls-14" d="M77.55,52.19c1.9-.19,5.43-.2,7.32,0,8.62.89,9.94,9.6,9.64,16.73-.18,4.38-.88,8.31-5.06,10.51,0,1,3.12,3.31,3.67,4.34.44.82.74,2.67.92,3.66v13.73c-1.33,7.18-5.78,10.32-13.07,10.09-11.73-.38-13.11-10-12.57-19.7h8.24c.05,4.62-1.11,11.9,5.74,11.01,4.39-.57,3.67-8.64,3.41-11.93-.02-.3.04-.62,0-.92-.7-5.21-4.12-5.38-8.7-5.03v-8.7c4.54.15,8.08.67,8.7-4.8.39-3.48.43-11.22-4.35-11.21s-4.58,6.09-4.35,9.6l-8.7.46c.2-3.69-.59-9.79,1.36-13.06,1.37-2.29,5.17-4.53,7.79-4.79Z"/>
      <path class="cls-3" d="M172.77,69.12c1.77,1.72,2.43,4.31,3.25,6.63-1.15,3.52-2.06,7.1-3.14,10.64-2.43,7.99-4.8,15.13-10.37,21.67-1.63,1.92-.7,2.78-4.39,2.25-.52,1.74,1.19,1.19,1.37,2.51-.71,1.31-2.87,1.51-3.65,2.31-.5.51-.51,1.41-.92,1.83-4.73,4.88-10.48,6.15-15.71,9.8-3.89,2.71-3.38,1.71-7.77,2.88-.56.15-1.01.91-1.97,1.24-1.77.6-4.01.47-5.86.47l-.3.92c-.85.08-.56-1.47-.98-1.76-.38-.26-1.26.02-1.76-.06.03-.76-.02-1.53,0-2.29-.61-.66-2.84,1.79,0,2.29-.02.61.03,1.22,0,1.83h-.91c-.09-.1-.86-.87-.92-.92l-.46-.92c.05-.22.09-.76-.04-.86-2.05.4-2.16-1.11-3.96-1.08l-1.95-4.01c3.24.31,6.57.75,9.83.45,3.52-.32,9.07-2.04,12.61-2.95.62-.16,10.32-5.57,11.2-6.19,1.56-1.1,2.33-3.52,3.43-4.58,1.37-1.32,4.49-2.41,5.95-4.58l.87-.04.04-1.34c.05-.13-.04-.32,0-.46h.91s0-2.29,0-2.29c.19.29.52.5.47.91.81.41,2.61-4.96,3.1-5.82,3.35-5.8,4.59-8.75,6.16-15.35.4-1.67,1.89-6,1.49-7.19-.09-.27-.64-.39-.69-.48-.37-.74.95-1.77-1.83-1.38l.91-2.29h3.2v1.37s1.37,0,1.37,0c.33-1.28-1-1.05-1.37-1.37-.06-.05.14-.64-.07-.82-.66-.55-2.63.7-2.21-1.01,1.05-.32,4.34.72,5.03,0ZM123.44,128.15c0-.31-.25-.57-.57-.57s-.57.25-.57.57.25.57.57.57.57-.25.57-.57Z"/>
      <path class="cls-12" d="M85.79,90.63c.25,3.29.97,11.36-3.41,11.93-6.85.89-5.69-6.39-5.74-11.01h-8.24s0-.46,0-.46c3.08.28,6.5-.21,9.62,0l-.36.84.8.08v.68c-1.55.42-1.04,4.69-.68,6.2.55,2.32,2.41,3.08,4.6,2.76.29-.04,2.45-2.03,2.48-2.19.37-1.82.03-5.3.19-7.52.05-.76-.8-1.51.74-1.3Z"/>
      <path class="cls-4" d="M131.11,100.24c-1.23-9.07-.11-24.8,0-34.56,0-.77-.29-2.04.47-2.51-.66,11.14.13,23.28,0,34.56,0,.77.29,2.03-.47,2.51Z"/>
      <path class="cls-9" d="M126.07,100.24v-18.31c.84,5.14.84,13.17,0,18.31Z"/>
      <rect class="cls-3" x="111.43" y="124.04" width=".45" height=".91"/>
      <path class="cls-1" d="M165.44,51.27c2.13.02,4.28-.02,6.41,0v.91c-6.74-1.54-11.5,2.97-10.49,9.8.86,5.84,7.39,7.61,12.32,5.3-.12.25.09.98,0,1.38-1.38-.93-.74.28-.91.45-.69.72-3.99-.32-5.03,0-.42,1.71,1.56.46,2.21,1.01.21.18.02.77.07.82h-3.2c-.95-1.59-1.02-2.64-3.19-2.05.66-1.22-1.27-2.1-1.62-3.44-.37,1.19-.85.98-2.06.91-.41-1.19.69-.77.82-1.12.66-1.76-.67-3.14-.83-4.18-.22-1.46,1.62-4,.02-5.92l1.81-.22-1.37-.45c-.43-2.64,1.76-1.21,2.9-1.36.31-.04.28-.7.43-.79.81-.44,2,.45,1.7-1.06Z"/>
      <path class="cls-16" d="M172.18,57.35c.66.8.75,2.76.62,3.78-.56,4.42-8.03,3.89-7.35-1.81.39-3.21,4.72-4.39,6.73-1.97Z"/>
      <path class="cls-11" d="M180.32,132.28c.3.15.3.31,0,.46v-.46Z"/>
      <path class="cls-16" d="M118.75,131.36c-.08-.08-.62.09-.87-.03-.34-.88.4-.83.42-.88l.46.92Z"/>
      <path class="cls-1" d="M151.71,52.19c-.3,1.48.88.66,1.7,1.05.23.11,3.5,3.45,3.64,3.67.22.34.09,1,.3,1.54.06.16.67.17.75.47.25,1.05-.22,2.43.02,3.49.08.34.81.28.9.63,1.16,4.85-.04,20.86-.01,26.9,0,2.22.04,4.44.02,6.65,2.37-.27,1.74-3.09,1.93-4.24.24-1.45,1.6-2.32,2.07-3.43.76-1.81.68-4.88,1.23-6.55.41-1.23,1.77-1.37,2.02-2.1.5-1.45-.9-5.44,1.45-5.65.05.09.6.21.69.48.4,1.18-1.09,5.52-1.49,7.19-1.57,6.6-2.81,9.55-6.16,15.35-.49.85-2.29,6.22-3.1,5.82.05-.42-.28-.62-.47-.91-.13-.2-.17-.42-.46-.46.04-.14-.03-.31,0-.46,1.6.06,1.26.28,1.37-1.12.71-9.05.82-27.28-.46-35.95-.1-.7.34-1.89-.46-2.29,0-.15.01-.31,0-.46-.18-1.87-.39-1.52-.92-2.75s-.82-2.31-1.83-3.43c-1.09-1.19-2.93-1.5-3.2-2.98.11-.03.28-.37.46-.46Z"/>
      <path class="cls-12" d="M85.79,89.72c-1.5-.48-2.12-3.91-3.08-4.1-1.42-.28-5.22.7-5.61-.94,4.58-.34,8-.17,8.7,5.03Z"/>
      <path class="cls-8" d="M78.01,51.27h6.87s0,.92,0,.92c-1.89-.2-5.42-.19-7.32,0-.02-.37.4-.7.46-.92Z"/>
      <circle class="cls-1" cx="164.08" cy="71.4" r=".57"/>
      <path class="cls-9" d="M101.35,58.59c-.14.99.11,2.18,0,3.21h-.91c.02-.46-.05-.93,0-1.38.02-.15-.03-.31,0-.46.04-.21.7-.8.46-1.37h.46Z"/>
      <path class="cls-1" d="M100.9,58.59c.24.57-.42,1.16-.46,1.37-.67-.49-1.15-.37-.91-1.37h1.37Z"/>
      <path class="cls-5" d="M111.75,81.12c3.31-.75,5.25.47,5.63,3.79.31,2.72.39,12.05-.11,14.54-.91,4.54-7.9,4.46-8.59-1.72-.33-2.91-.41-13.24,1.16-15.32.46-.62,1.16-1.11,1.92-1.29Z"/>
      <path class="cls-9" d="M100.44,101.16v-38.9c-.29,11.65-1.03,27.6,0,38.9Z"/>
      <path class="cls-9" d="M100.44,101.62h.91s0,2.29,0,2.29c-.3-.79-.77-1.16-.92-2.29Z"/>
      <path class="cls-5" d="M146.99,60.56c.82.6,1.89,3.54,1.97,4.67-.85,10.31,1.13,22.41,0,32.5-.73,6.48-8,6.13-8.67,1.8l-.05-35.7c.08-.61,1.49-3.27,1.73-3.41,1-.61,4.06-.56,5.03.15Z"/>
      <path class="cls-8" d="M157.66,64.54c1.28,8.67,1.17,26.9.46,35.95-.11,1.4.23,1.18-1.37,1.12.11-.51.44-.85.46-.92.03-.12.68-.61.48-1.1l-.03-35.06Z"/>
      <path class="cls-9" d="M157.66,64.54l.03,35.06c.2.48-.46.97-.48,1.1-.6-12.6.8-25.93,0-38.44.8.39.35,1.59.46,2.29Z"/>
      <path class="cls-8" d="M157.2,102.53v2.29s-.92,0-.92,0c.19-.6.24-1.87.46-2.75.28.03.33.26.46.46Z"/>
      <path class="cls-9" d="M157.2,61.8h-.91s0-2.75,0-2.75c.53,1.22.74.88.92,2.75Z"/>
      <path class="cls-8" d="M156.29,105.28l-.04,1.34-.87.04c.17-.24.89-1.29.92-1.37Z"/>
      <path class="cls-9" d="M94.03,101.16v-13.73c.77,4.29.79,9.47,0,13.73Z"/>
      <path class="cls-16" d="M170.02,70.95c.37.32,1.7.09,1.37,1.37h-1.37s0-1.37,0-1.37Z"/>
      <circle class="cls-16" cx="122.88" cy="128.15" r=".57"/>
    </g>
  </g>
</svg>