<?xml version="1.0" encoding="utf-8"?>
<!-- Generator: Adobe Adobe Illustrator 24.2.0, SVG Export Plug-In . SVG Version: 6.00 Build 0)  -->
<svg version="1.1" id="Layer_1" xmlns="http://www.w3.org/2000/svg" xmlns:xlink="http://www.w3.org/1999/xlink" x="0px" y="0px"
	 width="1920px" height="1080px" viewBox="0 0 1920 1080" style="enable-background:new 0 0 1920 1080;" xml:space="preserve">
<style type="text/css">
	.st0{fill:#FFFFFF;}
	.st1{fill:#0A74BB;}
	.st2{fill:#0B75BC;}
	.st3{fill:#0C76BC;}
	.st4{fill:#ED222A;}
	.st5{fill:#0A0A0A;}
	.st6{fill:#0B0B0B;}
	.st7{fill:#080808;}
	.st8{fill:#101010;}
</style>
<g>
	<g>
		<path class="st0" d="M728.78,723.71c-10.18-20.12-30.86-60.99-30.86-60.99l-0.33,0.02c-0.34,0.02-0.69,0.03-1.03,0.04l-0.36,0.01
			l-0.1,0.35c-3.4,11.65-6.63,23.57-9.76,35.11c-2.25,8.3-4.58,16.89-6.96,25.36h-24.75c0.11-0.47,0.22-0.93,0.32-1.39
			c0.28-1.23,0.55-2.4,0.87-3.56c3.65-13.35,7.3-26.71,10.96-40.06c3.23-11.78,9.72-35.51,9.72-35.51c1.15-4.2,1.15-4.2,4.76-4.2
			l0.68,0c11.04,0.03,22.07,0.11,32.35,0.2l0.12,0c0.19,0,0.39-0.01,0.58-0.01c0.19,0,0.37-0.01,0.56-0.01
			c1.06,0,1.77,0.19,2.24,1.13c10.32,20.29,20.15,39.7,30.14,59.45l0.14,0.28l1.63-0.05l0.11-0.34c0.22-0.69,0.44-1.37,0.66-2.05
			c0.47-1.45,0.96-2.95,1.37-4.45c2.32-8.38,4.62-16.75,6.92-25.13c2.3-8.37,4.6-16.75,6.92-25.12c1.08-3.9,1.08-3.9,5.29-3.91
			c2.33,0,4.62-0.01,6.92-0.01c3.25,0,6.5,0,9.74,0.02c0.82,0,1.67,0.05,2.65,0.11c0.4,0.02,0.83,0.05,1.29,0.07l-23.19,84.62
			H728.78z"/>
		<path d="M777.89,639.39c3.25,0,6.5,0,9.74,0.02c0.81,0,1.61,0.05,2.62,0.11c0.21,0.01,0.44,0.03,0.67,0.04l-10.88,39.69
			l-12.05,43.96h-38.9c-10.14-20.03-20.36-40.23-30.57-60.42l-0.3-0.58l-0.65,0.04c-0.34,0.02-0.68,0.03-1.02,0.04l-0.73,0.02
			l-0.2,0.7c-3.4,11.65-6.63,23.58-9.76,35.11c-2.22,8.19-4.51,16.64-6.86,25h-23.74c0.06-0.26,0.12-0.52,0.18-0.77
			c0.28-1.23,0.55-2.39,0.86-3.54c3.65-13.37,7.31-26.73,10.97-40.1c3.22-11.77,6.44-23.54,9.66-35.3l0.04-0.16
			c0.51-1.88,0.82-3.01,1.27-3.42c0.39-0.35,1.24-0.41,3-0.41l0.68,0c11.08,0.03,22.09,0.11,32.34,0.2l0.14,0
			c0.2,0,0.39-0.01,0.59-0.01c0.18,0,0.36-0.01,0.54-0.01c1.05,0,1.47,0.2,1.8,0.86c10.27,20.18,20.12,39.64,30.14,59.45l0.29,0.57
			l0.64-0.02l0.48-0.02l0.48-0.02l0.71-0.02l0.21-0.68c0.22-0.69,0.44-1.37,0.66-2.05c0.47-1.45,0.96-2.95,1.38-4.46
			c2.32-8.38,4.62-16.75,6.92-25.13c2.3-8.37,4.6-16.75,6.92-25.12c0.52-1.87,0.81-2.87,1.26-3.2c0.47-0.34,1.63-0.34,3.58-0.35
			C773.3,639.39,775.6,639.39,777.89,639.39 M777.89,638.39c-2.3,0-4.59,0-6.89,0.01c-4.56,0.01-4.62,0-5.8,4.28
			c-4.63,16.75-9.21,33.5-13.84,50.25c-0.6,2.18-1.35,4.32-2.03,6.48c-0.32,0.01-0.64,0.02-0.96,0.03
			c-9.93-19.63-19.86-39.25-30.14-59.45c-0.62-1.25-1.64-1.41-2.69-1.41c-0.38,0-0.76,0.02-1.13,0.02c-0.04,0-0.08,0-0.12,0
			c-10.78-0.09-21.57-0.17-32.35-0.2c-0.24,0-0.47,0-0.69,0c-4.04,0-4.07,0.28-5.28,4.73c-6.87,25.13-13.76,50.26-20.63,75.4
			c-0.49,1.8-0.87,3.63-1.34,5.58c8.97,0,17.29,0,25.76,0c5.75-20.4,10.95-40.71,16.82-60.83c0.35-0.01,0.7-0.02,1.05-0.04
			c10.31,20.38,20.62,40.76,30.85,60.97c13.6,0,26.75,0,40.28,0c7.8-28.45,15.57-56.81,23.46-85.59c-1.96-0.09-3.27-0.21-4.58-0.21
			C784.39,638.39,781.14,638.39,777.89,638.39L777.89,638.39z"/>
	</g>
	<g>
		<path class="st0" d="M810.44,723.65c4-14.63,7.95-29.12,11.94-43.74l5.63-20.61h-36.33l5.54-20.21
			c15.39-0.22,30.5-0.25,41.98-0.25c6.48,0,12.97,0.01,19.48,0.02c6.54,0.01,13.09,0.02,19.66,0.02c5.52,0,11.05-0.01,16.6-0.03
			c-1.91,7.01-3.7,13.57-5.57,20.4H853l-0.1,0.37c-3.54,12.89-7.06,25.69-10.57,38.47l-7.02,25.55H810.44z"/>
		<path d="M839.16,639.35c6.49,0,12.99,0.01,19.5,0.02c6.55,0.01,13.11,0.02,19.69,0.02c5.84,0,11.07-0.01,15.93-0.03
			c-1.81,6.65-3.52,12.9-5.29,19.4h-35.61h-0.76l-0.2,0.74c-3.58,13.02-7.13,25.94-10.68,38.86c-2.27,8.26-4.54,16.52-6.82,24.8
			H811.1c3.9-14.26,7.75-28.39,11.64-42.64l5.58-20.44l0.34-1.26h-1.31h-20.77l-14.25,0l1.22-4.45c1.36-4.96,2.68-9.78,4.05-14.77
			C812.85,639.38,827.79,639.35,839.16,639.35 M839.16,638.35c-14.13,0-28.21,0.05-42.33,0.25c-1.96,7.14-3.81,13.9-5.81,21.2
			c5.15,0,9.9,0,15.56,0c6.7,0,13.41,0,20.77,0c-5.93,21.72-11.7,42.88-17.57,64.35c9,0,17.33,0,25.9,0
			c5.9-21.47,11.77-42.79,17.7-64.39c12.29,0,24.23,0,36.37,0c1.96-7.17,3.83-14.02,5.84-21.4c-5.77,0.02-11.51,0.03-17.24,0.03
			C865.22,638.39,852.17,638.35,839.16,638.35L839.16,638.35z"/>
	</g>
	<g>
		<path class="st0" d="M877.65,723.65c0.95-5.03,2.35-9.95,3.7-14.71c0.66-2.34,1.35-4.75,1.97-7.14
			c1.33-5.11,2.77-10.28,4.16-15.28c0.67-2.41,1.34-4.83,2.01-7.24c3.79-13.7,7.37-26.71,11.03-40.01h24.86
			c-2.85,10.39-5.66,20.66-8.48,30.93c-2.84,10.38-5.67,20.75-8.65,31.69l-0.17,0.63h58.08c-1.96,7.37-3.78,14.2-5.63,21.14H877.65z
			"/>
		<path d="M924.72,639.76c-2.79,10.18-5.55,20.23-8.3,30.3c-2.84,10.38-5.67,20.75-8.65,31.69l-0.34,1.26h1.31h56.78
			c-1.86,7-3.6,13.52-5.37,20.14h-81.89c0.94-4.8,2.28-9.51,3.58-14.07c0.66-2.34,1.35-4.76,1.97-7.15
			c1.33-5.1,2.77-10.27,4.16-15.26c0.67-2.42,1.35-4.83,2.01-7.25c3.75-13.58,7.31-26.47,10.93-39.65H924.72 M926.04,638.76
			L926.04,638.76L926.04,638.76z M926.04,638.76c-9,0-17.33,0-25.9,0c-3.69,13.43-7.31,26.55-11.13,40.38
			c-2.06,7.51-4.21,15-6.17,22.53c-1.93,7.42-4.38,14.73-5.79,22.48c28.26,0,55.91,0,83.87,0c1.94-7.27,3.84-14.4,5.9-22.14
			c-19.66,0-38.59,0-58.08,0c2.98-10.94,5.81-21.31,8.65-31.69C920.26,659.84,923.12,649.37,926.04,638.76L926.04,638.76z"/>
	</g>
	<g>
		<path class="st1" d="M532.76,756.38l5.25-20.75l441.82,0.01c26.36,0,52.71,0,79.06-0.02c9.72-0.01,19.6-0.1,29.15-0.19
			c3.61-0.03,7.23-0.07,10.84-0.1c5.32-0.04,9.31-0.77,12.92-2.39c4.44-2,7.19-5.25,8.66-10.23l0.19-0.64h-11.09l-0.1-0.52
			c-4.34-22.34-8.43-43.44-12.88-65.17l-0.05-0.23c0,0-0.23-0.13-0.24-0.13c-0.72-4.63-1.43-9.25-2.16-13.88
			c0,0-0.46-2.95-0.57-3.67h33.24l7.9,60.79l0.73-0.8c0.4-0.45,0.75-0.81,1.06-1.13c0.59-0.61,1.01-1.06,1.36-1.58l5.15-7.72
			c10.09-15.12,20.52-30.75,30.67-46.2c1.82-2.76,3.55-3.78,6.39-3.78c0.12,0,0.25,0,0.37,0.01c3.63,0.11,7.61,0.16,12.51,0.16
			c2.71,0,5.44-0.01,8.21-0.03c2.57-0.01,5.16-0.03,7.8-0.03c-0.11,0.22-0.22,0.43-0.32,0.64c-0.38,0.75-0.67,1.34-1.06,1.87
			c-9.63,13.39-19.27,26.77-28.92,40.14c-6.48,8.99-12.96,17.98-19.43,26.97c-2.12,2.94-4.26,5.86-6.4,8.79
			c-5.3,7.23-10.79,14.71-15.78,22.34c-7.31,11.17-17.98,16.85-32.6,17.34c-2.81,0.09-5.75,0.14-8.97,0.14
			c-185.94,0.01-371.89,0.01-557.83,0.01H532.76z"/>
		<path d="M1180.05,638.53c0.12,0,0.24,0,0.36,0.01c3.63,0.11,7.61,0.16,12.5,0.16c2.71,0,5.45-0.01,8.22-0.03
			c2.31-0.01,4.63-0.03,6.99-0.03c-0.34,0.69-0.62,1.24-0.97,1.71c-9.56,13.29-19.14,26.58-28.71,39.86
			c-6.55,9.08-13.09,18.17-19.64,27.25c-2.12,2.94-4.3,5.92-6.41,8.79c-5.3,7.24-10.79,14.72-15.79,22.35
			c-7.22,11.03-17.75,16.63-32.2,17.12c-2.81,0.09-5.74,0.14-8.96,0.14c-185.94,0.01-371.89,0.01-557.83,0.01h-4.24
			c0.99-3.93,1.96-7.73,2.93-11.58l2.07-8.17h4.91h334.43l51.76,0l51.76,0c25.88,0,51.76,0,77.64-0.02
			c9.7-0.01,19.56-0.1,29.09-0.19c3.64-0.03,7.27-0.07,10.9-0.1c5.4-0.04,9.44-0.79,13.12-2.44c4.58-2.06,7.42-5.41,8.93-10.55
			l0.38-1.28h-1.34h-10.01l-0.06-0.32c-4.32-22.27-8.41-43.31-12.84-64.97l-0.09-0.45l-0.23-0.13c-0.7-4.55-1.41-9.09-2.12-13.63
			l-0.25-1.59c-0.08-0.48-0.15-0.98-0.24-1.51h32.22c2.55,19.63,5.08,39.05,7.71,59.28l0.28,2.15l1.45-1.6
			c0.4-0.44,0.75-0.8,1.05-1.12c0.58-0.61,1.04-1.09,1.41-1.65l5.35-8.02c10.02-15.02,20.39-30.56,30.47-45.9
			C1175.81,639.46,1177.37,638.53,1180.05,638.53 M1180.05,637.53c-3.28,0-5.06,1.35-6.81,4.01
			c-11.85,18.03-23.85,35.97-35.82,53.92c-0.5,0.75-1.21,1.37-2.37,2.65c-2.67-20.53-5.23-40.22-7.82-60.15
			c-11.64,0-22.78,0-34.26,0c0.25,1.65,0.46,2.95,0.66,4.25c0.74,4.72,1.47,9.43,2.2,14.14c0,0,0,0,0,0c0.01,0,0.07,0.02,0.25,0.12
			c4.51,22.03,8.75,43.89,13.06,66.09c3.8,0,7.16,0,10.83,0c-1.45,4.93-4.18,8.03-8.38,9.92c-4.06,1.82-8.35,2.32-12.72,2.35
			c-13.33,0.11-26.66,0.28-39.99,0.29c-25.88,0.01-51.76,0.02-77.64,0.02c-34.5,0-69.01-0.01-103.51-0.01
			c-111.48,0-222.95,0-334.43,0c-1.9,0-3.8,0-5.69,0c-1.89,7.47-3.63,14.37-5.5,21.75c2.27,0,3.89,0,5.52,0
			c185.94,0,371.89,0,557.83-0.01c3,0,6-0.04,8.99-0.14c13.85-0.47,25.09-5.48,33-17.57c6.97-10.65,14.73-20.78,22.17-31.11
			c16.11-22.37,32.25-44.73,48.35-67.11c0.63-0.87,1.04-1.9,1.8-3.3c-5.78,0-11.36,0.06-16.86,0.06c-4.19,0-8.34-0.04-12.47-0.16
			C1180.31,637.53,1180.18,637.53,1180.05,637.53L1180.05,637.53z M1209.77,637.63L1209.77,637.63L1209.77,637.63z M1095.83,656.35
			C1095.83,656.35,1095.84,656.35,1095.83,656.35C1095.83,656.35,1095.83,656.35,1095.83,656.35L1095.83,656.35z"/>
	</g>
	<g>
		<path class="st1" d="M464.11,761.67c-2.1,0-4.22-0.02-6.37-0.05c-2.21-0.02-4.44-0.05-6.72-0.05H348.88
			c1.51-5.64,2.89-10.77,4.28-15.91l26.62-98.4c2.55-9.43,8.23-13.63,20.26-14.99c1.16-0.13,2.4-0.19,3.91-0.19
			c1.13,0,2.26,0.03,3.39,0.07c1.14,0.03,2.28,0.07,3.42,0.07l44.37,0c14.12,0,28.23,0,42.35,0.01c6.33,0.01,13.8,0.32,21.17,2.56
			c1.15,0.35,2.28,0.7,3.35,1.14c7.9,3.25,12,9.19,11.86,17.18c-0.21,11.85-3.83,22.6-10.76,31.95c-2.66,3.59-6.46,6.31-11.31,8.09
			c-1.23,0.45-2.45,0.91-4.08,1.52l-3.3,1.23l1.41,0.43c0.98,0.3,1.83,0.55,2.58,0.77c1.26,0.37,2.26,0.67,3.24,1
			c6.55,2.24,9.95,6.33,10.13,12.17c0.48,16.31-4.51,29.98-14.85,40.63c-4.35,4.49-10.1,7.47-16.63,8.64
			c-5.56,0.99-11.67,1.65-18.19,1.97C469.76,761.62,467.21,761.67,464.11,761.67z M437.89,709.69c-11.22,0-22.44,0.01-33.66,0.02
			c-0.72,0-1.42,0.11-2.16,0.23c-0.34,0.05-0.69,0.11-1.05,0.16l-0.33,0.04l-5.58,21.03h0.65c22.85-0.01,45.11-0.01,68.25-0.01
			c0.48-0.01,0.96-0.01,1.43-0.01l1.27,0c1.1,0,2.37-0.01,3.63-0.15c6.59-0.74,11.07-4.29,12.27-9.74c0.83-3.79,0.67-6.26-0.54-8.02
			c-1.14-1.66-3.24-2.7-6.44-3.18c-1.6-0.24-2.9-0.36-4.09-0.36C460.33,709.7,449.11,709.69,437.89,709.69z M408.05,683.39l0.6,0.05
			c0.55,0.05,1.03,0.1,1.46,0.14c0.87,0.09,1.56,0.16,2.25,0.16c8.06,0,16.11,0.01,24.16,0.01c13.52,0,27.03-0.01,40.55-0.03
			c1.42,0,2.86-0.17,4.09-0.33c4.79-0.64,8.21-3.29,10.14-7.89c1.75-4.15,1.91-7.37,0.45-9.59c-1.44-2.19-4.41-3.32-8.82-3.35
			c-8.58-0.06-17.15-0.1-26.03-0.13l-11.72-0.05H413.7L408.05,683.39z"/>
		<path d="M403.96,632.58c1.12,0,2.26,0.03,3.37,0.07c1.12,0.03,2.29,0.07,3.44,0.07l21.67,0l21.66,0c14.46,0,28.92,0,43.39,0.01
			c6.3,0.01,13.72,0.32,21.03,2.54l0.08,0.03c1.08,0.33,2.19,0.67,3.23,1.1c7.8,3.21,11.69,8.83,11.55,16.71
			c-0.21,11.74-3.8,22.4-10.66,31.66c-2.6,3.51-6.33,6.17-11.08,7.92c-1.23,0.45-2.46,0.91-4.1,1.52l-1.89,0.71l-2.76,1.03
			l2.82,0.86c0.99,0.3,1.83,0.55,2.59,0.78c1.25,0.37,2.25,0.66,3.22,0.99c6.33,2.17,9.62,6.11,9.79,11.71
			c0.48,16.17-4.47,29.72-14.71,40.26c-4.28,4.41-9.93,7.34-16.36,8.49c-5.61,1-11.54,1.64-18.12,1.97
			c-2.37,0.11-4.91,0.17-8.01,0.17c-2.1,0-4.16-0.02-6.35-0.05c-2.18-0.02-4.44-0.05-6.72-0.05h-101.5
			c1.45-5.39,2.78-10.33,4.11-15.28c4.43-16.39,8.87-32.78,13.3-49.17c4.44-16.41,8.88-32.82,13.32-49.23
			c2.51-9.31,7.89-13.27,19.84-14.63C401.24,632.64,402.46,632.58,403.96,632.58 M436.05,684.25c13.67,0,27.34-0.01,41.01-0.03
			c1.45,0,2.92-0.17,4.15-0.34c4.98-0.67,8.53-3.42,10.54-8.19c1.82-4.31,1.96-7.7,0.41-10.06c-1.54-2.34-4.64-3.54-9.23-3.57
			c-8.53-0.06-16.95-0.1-25.87-0.13c-3.9-0.02-7.85-0.03-11.89-0.05h-31.09h-0.77l-0.2,0.74c-1.01,3.76-1.98,7.37-2.95,10.97
			l-2.45,9.09l-0.31,1.15l1.19,0.1c0.55,0.05,1.03,0.1,1.47,0.14c0.88,0.09,1.57,0.16,2.3,0.16
			C420.26,684.25,428.16,684.25,436.05,684.25 M394.45,731.68l1.3,0c22.85-0.01,45.11-0.01,68.27-0.01
			c0.46-0.01,0.92-0.01,1.38-0.01l0.65,0l0.65,0c1.11,0,2.39-0.01,3.68-0.15c6.82-0.76,11.45-4.45,12.71-10.13
			c0.58-2.65,1.04-5.99-0.62-8.41c-1.22-1.77-3.43-2.88-6.78-3.39c-1.63-0.25-2.95-0.36-4.16-0.36
			c-11.22-0.01-22.44-0.02-33.66-0.02s-22.44,0.01-33.65,0.02c-0.76,0-1.48,0.12-2.24,0.24c-0.33,0.05-0.68,0.11-1.04,0.16
			l-0.66,0.09l-0.17,0.65c-0.93,3.49-1.84,6.93-2.77,10.43l-2.56,9.65L394.45,731.68 M403.96,631.58c-1.33,0-2.66,0.05-3.97,0.19
			c-12.72,1.44-18.16,5.99-20.69,15.36c-8.87,32.8-17.75,65.6-26.62,98.4c-1.44,5.33-2.87,10.65-4.45,16.54c34.44,0,68.39,0,102.8,0
			c4.49,0,8.82,0.1,13.08,0.1c2.7,0,5.38-0.04,8.05-0.17c6.1-0.3,12.24-0.91,18.25-1.98c6.44-1.15,12.32-4.06,16.9-8.78
			c11.05-11.38,15.45-25.4,14.99-40.99c-0.2-6.62-4.42-10.56-10.47-12.63c-1.59-0.54-3.22-0.98-5.84-1.78
			c2.68-1,4.33-1.62,5.99-2.23c4.61-1.69,8.63-4.33,11.54-8.26c7.07-9.54,10.65-20.44,10.86-32.24c0.15-8.51-4.29-14.41-12.17-17.65
			c-1.11-0.46-2.26-0.81-3.4-1.16c-6.95-2.11-14.12-2.57-21.32-2.58c-14.47-0.01-28.92-0.01-43.39-0.01c-14.44,0-28.89,0-43.33,0
			C408.5,631.71,406.22,631.58,403.96,631.58L403.96,631.58z M436.05,683.25c-7.89,0-15.79,0-23.69-0.01
			c-1.02-0.01-2.04-0.16-3.68-0.3c1.81-6.73,3.54-13.14,5.4-20.06c10.5,0,20.79,0,31.09,0c13.18,0.06,25.46,0.09,37.75,0.18
			c8.58,0.06,11.27,4.3,7.91,12.24c-1.85,4.39-5.03,6.96-9.75,7.59c-1.33,0.18-2.68,0.33-4.02,0.33
			C463.39,683.24,449.72,683.25,436.05,683.25L436.05,683.25z M395.76,730.67c1.86-7,3.57-13.46,5.33-20.08
			c1.15-0.15,2.15-0.39,3.15-0.39c11.22-0.01,22.44-0.02,33.65-0.02s22.43,0.01,33.65,0.02c1.34,0,2.69,0.15,4.01,0.35
			c6.97,1.06,7.89,4.61,6.57,10.6c-1.19,5.38-5.56,8.65-11.84,9.35c-1.18,0.13-2.38,0.15-3.57,0.15c-0.43,0-0.87,0-1.3,0
			c-0.47,0-0.94,0-1.4,0.01C440.87,730.66,418.61,730.66,395.76,730.67L395.76,730.67z"/>
	</g>
	<g>
		<path class="st2" d="M600.28,724.53c-10.17,0-22.2-0.07-34.24-0.63c-4.51-0.21-9.44-1.33-14.65-3.33
			c-11.69-4.48-17.1-13.75-15.23-26.1c1.92-12.68,5.76-24.18,11.42-34.18c6.89-12.17,17.67-19.37,32.03-21.38
			c4.88-0.69,10.28-1.07,16.5-1.16c2.85-0.04,5.71-0.06,8.56-0.06c4.69,0,9.39,0.04,14.16,0.08c3.04,0.03,6.1,0.05,9.2,0.07
			l0.56,0.08c6.41,0.83,12.46,1.61,18.46,2.53c1.42,0.21,2.81,0.8,4.12,1.37c8.05,3.48,11.61,9.38,10.88,18.01
			c-0.31,3.73-0.96,7.56-1.93,11.4c-0.99,3.92-2.14,7.72-3.35,11.75c-0.48,1.6-0.97,3.22-1.45,4.85h-83.88l-0.13,0.3
			c-0.17,0.4-0.34,0.76-0.5,1.11c-0.31,0.68-0.61,1.32-0.83,1.98c-1.5,4.58-1.54,7.73-0.13,9.9c1.37,2.12,4.09,3.32,8.54,3.79
			c5.63,0.6,10.65,0.89,15.34,0.89c5.46,0,10.45-0.39,15.25-1.19c7.99-1.33,8.89-2.25,12.78-8.84h30.79
			c-0.01,0.14-0.01,0.28-0.02,0.42c-0.03,0.62-0.05,1.16-0.19,1.64c-3.57,12.16-11.66,19.9-24.74,23.66
			c-6.85,1.97-14.12,2.98-21.61,3C604.08,724.53,602.18,724.53,600.28,724.53z M616.06,669.88c0.98,0,1.97,0.03,2.95,0.05
			c1,0.03,2,0.05,3,0.05c2.39,0,4.22-0.16,5.93-0.53l0.31-0.07l0.07-0.31c0.07-0.3,0.14-0.57,0.21-0.82
			c0.11-0.42,0.2-0.78,0.27-1.15c0.99-5.08-0.44-7.51-5.3-8.96c-1.09-0.32-2.37-0.66-3.63-0.69l-4.25-0.12
			c-5.89-0.17-11.98-0.36-17.98-0.36c-0.8,0-1.6,0-2.4,0.01c-2.92,0.03-6.13,0.54-9.81,1.58c-4.99,1.4-7.86,5.24-8.08,10.83
			l-0.02,0.52l0.52,0c3.41-0.01,6.83-0.01,11.14-0.01h13c1.33,0,2.66,0.01,3.98,0.01c1.33,0.01,2.66,0.01,3.99,0.01
			c1.68,0,3.36-0.01,5.03-0.05C615.36,669.89,615.71,669.88,616.06,669.88z"/>
		<path d="M604.66,637.21v1h0c4.69,0,9.3,0.04,14.18,0.08c3.01,0.03,6.04,0.05,9.11,0.07l0.5,0.06c6.42,0.83,12.49,1.61,18.51,2.53
			c1.36,0.2,2.72,0.77,4,1.34c7.93,3.43,11.29,9,10.58,17.51c-0.31,3.7-0.95,7.51-1.91,11.32c-0.98,3.91-2.13,7.7-3.35,11.72
			c-0.45,1.49-0.9,2.99-1.35,4.5h-83.18h-0.66l-0.26,0.6c-0.17,0.39-0.34,0.76-0.49,1.1c-0.32,0.69-0.62,1.34-0.85,2.04
			c-1.55,4.73-1.57,8.02-0.07,10.33c1.46,2.25,4.29,3.53,8.91,4.02c5.65,0.6,10.68,0.9,15.4,0.9c5.49,0,10.5-0.39,15.34-1.19
			c7.95-1.32,9.1-2.28,12.99-8.84h29.98c-0.03,0.55-0.05,1.02-0.17,1.42c-3.52,11.98-11.5,19.61-24.4,23.32
			c-6.8,1.96-14.03,2.96-21.48,2.98c-1.89,0-3.79,0.01-5.68,0.01c-10.18,0-22.2-0.07-34.24-0.63c-4.46-0.21-9.34-1.31-14.5-3.29
			c-11.61-4.45-16.77-13.29-14.92-25.56c1.91-12.62,5.73-24.06,11.36-34.01c6.81-12.03,17.46-19.14,31.67-21.13
			c4.86-0.68,10.24-1.06,16.43-1.15c2.65-0.04,5.45-0.06,8.55-0.06L604.66,637.21 M576.81,670.43l1.04,0
			c3.41-0.01,6.83-0.01,11.14-0.01h13c1.33,0,2.66,0.01,3.99,0.02c1.34,0.01,2.67,0.02,4.01,0.02c1.93,0,3.53-0.02,5.02-0.05
			c0.35-0.01,0.7-0.01,1.05-0.01c0.97,0,1.97,0.03,2.94,0.05c0.98,0.03,2,0.05,3.01,0.05c2.42,0,4.28-0.17,6.03-0.54l0.62-0.13
			l0.15-0.62c0.07-0.3,0.14-0.57,0.2-0.81c0.11-0.42,0.2-0.79,0.28-1.18c1.04-5.34-0.54-8.02-5.65-9.54
			c-1.12-0.33-2.43-0.68-3.76-0.71c-1.43-0.04-2.85-0.08-4.28-0.12c-5.88-0.17-11.96-0.36-17.94-0.36c-0.81,0-1.61,0-2.42,0.01
			c-2.96,0.03-6.22,0.55-9.94,1.6c-5.22,1.46-8.22,5.47-8.45,11.29L576.81,670.43 M604.66,637.21c-2.86,0-5.71,0.02-8.57,0.06
			c-5.53,0.08-11.09,0.39-16.56,1.16c-14.2,1.99-25.26,9.01-32.4,21.63c-6.05,10.68-9.66,22.3-11.48,34.35
			c-1.92,12.7,3.62,22.07,15.55,26.64c4.69,1.8,9.82,3.13,14.81,3.36c11.42,0.52,22.86,0.63,34.29,0.63c1.89,0,3.79,0,5.68-0.01
			c7.34-0.02,14.63-0.97,21.75-3.02c12.58-3.62,21.32-11.2,25.08-24c0.23-0.79,0.18-1.67,0.27-2.7c-10.74,0-21.2,0-31.61,0
			c-3.99,6.77-4.77,7.55-12.58,8.85c-5.04,0.84-10.1,1.18-15.17,1.18c-5.1,0-10.21-0.35-15.29-0.89
			c-8.72-0.92-10.71-4.72-7.99-13.04c0.32-0.96,0.8-1.87,1.31-3.05c27.94,0,55.78,0,83.93,0c1.7-5.8,3.5-11.34,4.92-16.98
			c0.95-3.76,1.62-7.62,1.94-11.48c0.75-8.96-2.98-14.96-11.18-18.51c-1.36-0.6-2.79-1.19-4.25-1.41
			c-6.2-0.95-12.43-1.75-19.09-2.61C620.06,637.32,612.34,637.21,604.66,637.21L604.66,637.21z M577.86,669.42
			c0.21-5.3,2.82-9,7.72-10.37c3.13-0.88,6.44-1.53,9.68-1.56c0.8-0.01,1.61-0.01,2.41-0.01c7.4,0,14.79,0.27,22.19,0.48
			c1.17,0.03,2.36,0.33,3.5,0.67c4.62,1.38,5.89,3.57,4.95,8.39c-0.11,0.58-0.28,1.15-0.47,1.95c-1.94,0.41-3.88,0.52-5.82,0.52
			c-1.99,0-3.97-0.11-5.95-0.11c-0.36,0-0.71,0-1.07,0.01c-1.67,0.04-3.33,0.05-5,0.05c-2.67,0-5.34-0.03-8-0.03
			c-4.33,0-8.67,0-13,0C584.69,669.41,581.27,669.41,577.86,669.42L577.86,669.42z M653.09,695.3L653.09,695.3L653.09,695.3z"/>
	</g>
	<g>
		<path class="st2" d="M1020.81,727c-7.87,0-15.77-0.31-23.48-0.92c-8.49-0.67-15.01-2.68-20.53-6.33
			c-6.02-3.98-9.2-9.51-9.46-16.45c-0.16-4.4,0.3-9.13,1.33-13.66c1.31-5.72,3.25-11.35,5.29-17.1
			c7.28-20.51,21.82-31.4,43.24-32.38c9.89-0.45,17.46-0.65,24.54-0.65c10.75,0,20.28,0.49,29.14,1.5c2.79,0.31,5.76,0.98,9.07,2.04
			c7.74,2.45,12.19,7.48,13.59,15.38l0.05,0.26l0.1,0.04c-0.02,0.07-0.05,0.14-0.07,0.21c-0.22,0.61-0.44,1.25-0.46,1.93
			c-0.23,7.45-2.37,14.28-4.65,21.52c-0.76,2.41-1.54,4.9-2.24,7.41h-83.91l-0.11,0.34c-0.22,0.66-0.45,1.3-0.67,1.91
			c-0.46,1.29-0.9,2.5-1.21,3.77c-1.45,5.86,0.5,9.13,6.33,10.61c2.71,0.68,5.33,1.03,7.8,1.03l0.29,0
			c8.02-0.08,16.62-0.21,25.07-0.69c6.3-0.36,10.68-3.39,12.69-8.76h31.18c-2.98,11.73-9.53,19.5-19.99,23.75
			c-5.75,2.34-11.7,3.77-17.66,4.25C1037.6,726.65,1029.1,727,1020.81,727z M1036.09,658.57c-5.89,0-11.74,0.48-17.38,1.44
			c-4.69,0.79-7.84,3.28-9.9,7.83c-0.33,0.99-1.28,3.85-1.28,3.85h51.38l0.11-0.36c1.2-4.02,1.21-6.63,0.04-8.46
			c-1.05-1.63-3.04-2.61-6.28-3.08C1047.12,658.98,1041.5,658.57,1036.09,658.57z"/>
		<path d="M1041.74,639v1h0c10.72,0,20.23,0.49,29.08,1.5c2.76,0.31,5.69,0.97,8.98,2.02c7.54,2.38,11.88,7.29,13.25,14.99
			l0.06,0.34c-0.21,0.6-0.44,1.27-0.46,1.99c-0.22,7.38-2.36,14.18-4.63,21.38c-0.72,2.3-1.47,4.67-2.14,7.06h-83.17h-0.72
			l-0.23,0.68c-0.22,0.66-0.44,1.28-0.66,1.9c-0.47,1.3-0.91,2.53-1.23,3.82c-1.51,6.11,0.61,9.68,6.7,11.21
			c2.74,0.69,5.41,1.04,7.93,1.04l0.3,0c8.03-0.08,16.62-0.21,25.1-0.69c6.39-0.37,10.87-3.39,13.01-8.76h30.19
			c-3.01,11.22-9.41,18.68-19.53,22.78c-5.71,2.32-11.6,3.74-17.51,4.21c-8.47,0.68-16.95,1.02-25.22,1.02
			c-7.86,0-15.74-0.31-23.44-0.92c-8.4-0.66-14.85-2.65-20.3-6.25c-5.88-3.88-8.99-9.28-9.23-16.05c-0.16-4.36,0.29-9.04,1.32-13.53
			c1.3-5.7,3.23-11.32,5.27-17.05c7.2-20.3,21.6-31.08,42.79-32.05c9.88-0.45,17.44-0.65,24.52-0.65L1041.74,639 M1006.83,672.18
			h1.39h50.31h0.75l0.21-0.71c1.24-4.18,1.24-6.91-0.02-8.87c-1.13-1.77-3.24-2.81-6.63-3.3c-5.67-0.81-11.31-1.22-16.75-1.22
			c-5.92,0-11.8,0.49-17.47,1.44c-4.87,0.82-8.14,3.4-10.27,8.11l-0.02,0.05l-0.02,0.05l-0.02,0.07c-0.3,0.92-0.61,1.84-1.02,3.07
			L1006.83,672.18 M1041.74,639c-8.19,0-16.38,0.28-24.56,0.66c-21.7,0.99-36.38,12.11-43.69,32.71c-2,5.64-3.97,11.34-5.3,17.16
			c-1.02,4.48-1.51,9.21-1.34,13.79c0.26,7.14,3.61,12.84,9.68,16.85c6.31,4.17,13.42,5.83,20.77,6.41
			c7.84,0.62,15.68,0.92,23.52,0.92c8.44,0,16.87-0.35,25.3-1.02c6.13-0.49,12.08-1.95,17.81-4.28
			c11.11-4.51,17.57-12.8,20.44-24.71c-10.92,0-21.43,0-32.17,0c-2.04,5.83-6.61,8.43-12.37,8.76c-8.34,0.47-16.7,0.61-25.05,0.69
			c-0.1,0-0.19,0-0.29,0c-2.57,0-5.2-0.38-7.68-1.01c-5.63-1.42-7.35-4.43-5.97-10c0.46-1.84,1.19-3.61,1.87-5.64
			c28.11,0,55.87,0,83.93,0c2.74-9.91,6.7-19.19,7.01-29.41c0.02-0.83,0.41-1.64,0.65-2.44c-0.03,0-0.11-0.03-0.27-0.1
			c-1.48-8.33-6.3-13.36-13.93-15.77c-2.98-0.95-6.07-1.71-9.17-2.06C1061.21,639.4,1051.48,639,1041.74,639L1041.74,639z
			 M1008.21,671.18c0.42-1.26,0.73-2.2,1.04-3.14c2.1-4.63,5.2-6.81,9.53-7.54c5.76-0.97,11.53-1.43,17.3-1.43
			c5.54,0,11.08,0.42,16.61,1.21c6.48,0.93,7.9,3.94,5.83,10.9C1041.96,671.18,1025.31,671.18,1008.21,671.18L1008.21,671.18z
			 M1094.31,658.41c0,0.01,0,0.02-0.01,0.02c0,0,0.01,0,0.01,0C1094.33,658.44,1094.31,658.42,1094.31,658.41L1094.31,658.41z
			 M1084.36,697.48L1084.36,697.48L1084.36,697.48z"/>
	</g>
	<g>
		<path class="st2" d="M728.77,723.68c-5.91-11.68-30.85-60.98-30.85-60.98l-0.32,0.01c-0.35,0.01-0.71,0.02-1.07,0.04l-0.35,0.02
			l-0.1,0.34c-3.43,11.76-6.7,23.81-9.85,35.46c-2.22,8.19-4.51,16.65-6.86,25.01h-24.75c0.11-0.46,0.21-0.92,0.32-1.38
			c0.28-1.24,0.55-2.41,0.87-3.57c3.21-11.75,6.43-23.5,9.65-35.25c3.66-13.38,7.33-26.76,10.98-40.15l0.04-0.16
			c1.15-4.2,1.15-4.2,4.96-4.2l0.48,0c10.79,0.04,21.57,0.12,32.35,0.2l1.05-0.01c1.04,0,1.96,0.11,2.65,1.44
			c10.1,19.91,20.03,39.52,29.95,59.14l0.14,0.29l1.63-0.05l0.11-0.34c0.22-0.69,0.44-1.38,0.67-2.07c0.47-1.44,0.96-2.94,1.37-4.43
			c1.93-7,3.86-14.01,5.78-21.01c2.68-9.75,5.36-19.5,8.06-29.24c1.08-3.9,1.08-3.9,5.29-3.91c2.36,0,4.69-0.01,7.01-0.01
			c3.22,0,6.43,0,9.65,0.02c0.82,0,1.67,0.05,2.65,0.11c0.4,0.02,0.82,0.05,1.29,0.07c0,0-18.66,68.08-23.19,84.62H728.77z"/>
		<path d="M777.89,639.37c3.25,0,6.49,0,9.74,0.02c0.81,0,1.61,0.05,2.62,0.11c0.21,0.01,0.44,0.03,0.67,0.04l-9.38,34.22
			c-4.53,16.52-9.03,32.97-13.55,49.44h-38.9c-5.9-11.66-11.83-23.38-17.77-35.12l-12.8-25.3l-0.29-0.57l-0.63,0.02
			c-0.36,0.01-0.72,0.02-1.08,0.04l-0.71,0.04l-0.2,0.68c-3.43,11.77-6.7,23.82-9.86,35.48c-2.19,8.07-4.45,16.4-6.76,24.63h-23.74
			c0.06-0.26,0.12-0.52,0.18-0.77c0.28-1.23,0.55-2.39,0.86-3.55c3.21-11.76,6.43-23.51,9.65-35.27
			c3.66-13.38,7.32-26.75,10.98-40.13l0.04-0.16c0.52-1.89,0.83-3.03,1.29-3.43c0.4-0.35,1.27-0.4,3.21-0.4l0.46,0
			c10.79,0.04,21.75,0.12,32.33,0.2l0.22,0c0.14,0,0.29,0,0.43,0c0.14,0,0.27,0,0.41,0c1.11,0,1.69,0.17,2.2,1.16
			c9.86,19.44,19.66,38.79,29.95,59.14l0.29,0.57l0.64-0.02l0.48-0.02l0.48-0.02l0.71-0.02l0.21-0.68c0.22-0.69,0.44-1.37,0.66-2.05
			c0.47-1.45,0.96-2.95,1.38-4.46c1.93-7.01,3.86-14.02,5.79-21.02c2.68-9.74,5.36-19.49,8.05-29.23c0.52-1.87,0.81-2.87,1.26-3.2
			c0.47-0.34,1.63-0.34,3.58-0.35C773.29,639.37,775.59,639.37,777.89,639.37 M777.89,638.37c-2.3,0-4.59,0-6.89,0.01
			c-4.56,0.01-4.62,0-5.8,4.28c-4.63,16.74-9.22,33.5-13.84,50.25c-0.6,2.18-1.35,4.32-2.03,6.48c-0.32,0.01-0.64,0.02-0.96,0.03
			c-9.92-19.62-19.85-39.23-29.95-59.14c-0.8-1.55-1.95-1.71-3.09-1.71c-0.28,0-0.57,0.01-0.84,0.01c-0.07,0-0.14,0-0.2,0
			c-10.78-0.08-21.56-0.16-32.35-0.2c-0.16,0-0.32,0-0.47,0c-4.26,0-4.27,0.21-5.5,4.73c-6.87,25.14-13.76,50.27-20.63,75.4
			c-0.49,1.8-0.87,3.63-1.34,5.58c8.97,0,17.29,0,25.76,0c5.74-20.4,10.95-40.71,16.82-60.83c0.35-0.02,0.7-0.03,1.05-0.04
			c10.31,20.38,20.63,40.76,30.85,60.97c13.6,0,26.75,0,40.28,0c7.8-28.44,15.57-56.81,23.46-85.59c-1.96-0.09-3.27-0.21-4.58-0.21
			C784.38,638.37,781.13,638.37,777.89,638.37L777.89,638.37z"/>
	</g>
	<g>
		<path class="st3" d="M810.44,723.65c3.63-13.3,17.57-64.35,17.57-64.35h-36.33l5.54-20.21c15.39-0.22,30.5-0.25,41.98-0.25
			c6.48,0,12.97,0.01,19.48,0.02c6.54,0.01,13.09,0.02,19.66,0.02c5.52,0,11.05-0.01,16.6-0.03c-1.91,7.01-3.7,13.57-5.57,20.4H853
			l-0.1,0.37c-5.2,18.9-10.34,37.59-15.49,56.36l-2.11,7.66H810.44z"/>
		<path d="M839.16,639.35c6.49,0,12.99,0.01,19.5,0.02c6.55,0.01,13.11,0.02,19.69,0.02c5.84,0,11.07-0.01,15.93-0.03
			c-1.81,6.65-3.52,12.9-5.29,19.4h-35.61h-0.76l-0.2,0.73c-5.02,18.24-9.98,36.3-14.96,54.41l-2.54,9.24h-23.83
			c3.63-13.29,7.22-26.46,10.84-39.72l6.38-23.37l0.34-1.26h-1.31l-21.22,0h-13.8l1.22-4.45c1.36-4.96,2.68-9.78,4.05-14.77
			C812.85,639.38,827.79,639.35,839.16,639.35 M839.16,638.35c-14.12,0-28.21,0.05-42.33,0.25c-1.96,7.14-3.81,13.9-5.81,21.2
			c5.15,0,9.91,0,15.11,0c7.15,0,13.86,0,21.22,0c-5.93,21.72-11.71,42.87-17.57,64.35c8.99,0,17.32,0,25.9,0
			c5.9-21.47,11.76-42.8,17.7-64.39c12.29,0,24.23,0,36.37,0c1.96-7.17,3.83-14.02,5.84-21.4c-5.77,0.02-11.51,0.03-17.24,0.03
			C865.22,638.39,852.17,638.35,839.16,638.35L839.16,638.35z M895.6,638.36L895.6,638.36L895.6,638.36z"/>
	</g>
	<g>
		<path class="st3" d="M877.66,723.67c0.95-5.03,2.35-9.95,3.7-14.71c0.66-2.34,1.35-4.75,1.97-7.14
			c1.42-5.47,2.91-10.81,4.48-16.46c0.59-2.12,1.19-4.25,1.78-6.42c2.31-8.37,4.58-16.6,6.85-24.86l4.08-14.8h24.86
			c-2.85,10.39-5.66,20.66-8.48,30.93c-1.59,5.82-3.18,11.65-4.8,17.57l-4.02,14.75h58.08l-5.63,21.14H877.66z"/>
		<path d="M924.73,639.77c-2.79,10.18-5.55,20.23-8.3,30.3c-1.61,5.89-3.22,11.77-4.85,17.77c-1.24,4.57-2.51,9.19-3.8,13.92
			l-0.35,1.26h1.31h56.78c-1.26,4.74-2.47,9.26-3.66,13.75l-1.7,6.39h-81.89c0.94-4.8,2.28-9.51,3.58-14.07
			c0.66-2.34,1.35-4.76,1.97-7.16c1.42-5.46,2.91-10.8,4.48-16.45c0.59-2.12,1.19-4.26,1.78-6.42c2.29-8.29,4.54-16.45,6.79-24.63
			l4.04-14.65H924.73 M926.05,638.77c-9.01,0-17.33,0-25.9,0c-3.7,13.42-7.31,26.55-11.03,40.02c-2.17,7.86-4.31,15.34-6.27,22.89
			c-1.93,7.42-4.38,14.73-5.79,22.48c28.26,0,55.92,0,83.87,0c1.94-7.28,3.84-14.4,5.9-22.14c-19.66,0-38.59,0-58.08,0
			c2.99-10.94,5.81-21.32,8.65-31.69C920.27,659.85,923.14,649.38,926.05,638.77L926.05,638.77z M966.83,702.02L966.83,702.02
			L966.83,702.02z"/>
	</g>
	<g>
		<path class="st0" d="M368.34,641.01c-0.53,0-1.09-0.06-1.68-0.18c-5.86-1.23-10.25-3.04-13.79-5.67c-1.12-0.83-1.99-2-2.92-3.23
			c-0.39-0.53-0.79-1.06-1.2-1.56c-1.28-7.41-0.9-14.42,1.23-22.64c0.74,0.28,1.46,0.56,2.16,0.82c1.73,0.66,3.36,1.29,4.99,1.88
			c2.23,0.81,4.5,1.69,6.68,2.54c5.23,2.03,10.63,4.13,16.13,5.54c5.21,1.33,10.67,1.98,15.96,2.61c2.2,0.26,4.47,0.53,6.69,0.84
			c0.48,0.07,0.96,0.12,1.44,0.18c0.57,0.06,1.14,0.13,1.72,0.22c-6.57,1.92-13.56,3.67-20.67,4.15c-4.06,0.28-6.26,1.78-7.59,5.2
			c-0.92,2.36-2.55,4.53-4.13,6.63l-0.06,0.08C371.97,640.17,370.35,641.01,368.34,641.01L368.34,641.01z"/>
		<path d="M350.33,608.39c0.55,0.21,1.08,0.41,1.61,0.62c1.74,0.67,3.37,1.29,5.02,1.89c2.23,0.81,4.49,1.69,6.68,2.54
			c5.24,2.04,10.66,4.14,16.19,5.56c5.24,1.34,10.73,1.99,16.03,2.62c2.19,0.26,4.46,0.53,6.67,0.84c0.25,0.03,0.49,0.07,0.74,0.1
			c-5.84,1.64-11.99,3.04-18.22,3.46c-4.23,0.29-6.63,1.94-8.02,5.51c-0.9,2.3-2.51,4.44-4.06,6.51l-0.06,0.08
			c-1.22,1.61-2.71,2.4-4.56,2.4c-0.5,0-1.03-0.06-1.57-0.17c-5.79-1.22-10.11-2.99-13.6-5.59c-1.06-0.79-1.91-1.93-2.81-3.13
			c-0.36-0.49-0.74-0.99-1.13-1.48C348.01,623.02,348.35,616.26,350.33,608.39 M349.64,607.06c-2.13,7.97-2.8,15.31-1.36,23.52
			c1.41,1.68,2.57,3.71,4.29,4.98c4.13,3.07,8.95,4.7,13.99,5.76c0.62,0.13,1.21,0.19,1.78,0.19c2.19,0,3.96-0.96,5.35-2.79
			c1.61-2.14,3.3-4.37,4.26-6.83c1.35-3.47,3.63-4.64,7.16-4.88c7.71-0.52,15.18-2.48,22.64-4.72c-1.69-0.51-3.4-0.58-5.09-0.82
			c-7.55-1.07-15.25-1.56-22.59-3.44c-7.77-1.99-15.2-5.31-22.77-8.07C354.85,609.07,352.41,608.11,349.64,607.06L349.64,607.06z"/>
	</g>
	<g>
		<path class="st4" d="M368.34,641.03c-0.53,0-1.1-0.06-1.69-0.19c-5.85-1.23-10.24-3.03-13.8-5.67c-1.24-0.93-2.21-2.32-3.24-3.79
			c-0.31-0.45-0.63-0.9-0.96-1.35c-1.2-7.09-0.79-14.19,1.31-22.29c0.71,0.27,1.41,0.54,2.09,0.8c1.75,0.67,3.4,1.3,5.06,1.91
			c2.23,0.82,4.5,1.69,6.69,2.55c5.23,2.03,10.63,4.13,16.13,5.54c5.21,1.33,10.68,1.98,15.97,2.61c2.19,0.26,4.46,0.53,6.68,0.84
			c0.47,0.07,0.95,0.12,1.42,0.18c0.57,0.07,1.15,0.13,1.73,0.22c-6.55,1.91-13.52,3.65-20.66,4.15c-4.05,0.28-6.25,1.78-7.59,5.2
			c-0.94,2.42-2.6,4.6-4.19,6.71C371.97,640.18,370.35,641.03,368.34,641.03z"/>
		<path d="M350.32,608.4c0.55,0.21,1.08,0.41,1.61,0.62c1.74,0.67,3.37,1.29,5.02,1.89c2.23,0.81,4.49,1.69,6.68,2.54
			c5.24,2.04,10.66,4.14,16.19,5.56c5.24,1.34,10.73,1.99,16.03,2.62c2.19,0.26,4.46,0.53,6.67,0.84c0.24,0.03,0.49,0.07,0.73,0.1
			c-5.83,1.63-11.97,3.03-18.21,3.46c-4.22,0.29-6.62,1.94-8.02,5.51c-0.92,2.35-2.55,4.51-4.13,6.59c-1.22,1.61-2.7,2.4-4.54,2.4
			c-0.5,0-1.03-0.06-1.59-0.18c-5.78-1.22-10.1-2.99-13.6-5.58c-1.18-0.88-2.12-2.24-3.13-3.68c-0.29-0.42-0.59-0.84-0.89-1.27
			C347.98,622.91,348.35,616.25,350.32,608.4 M349.63,607.07c-2.12,7.96-2.79,15.3-1.44,23.15c1.5,2.04,2.66,4.07,4.37,5.35
			c4.14,3.07,8.95,4.7,13.99,5.76c0.63,0.13,1.22,0.2,1.79,0.2c2.19,0,3.96-0.96,5.34-2.8c1.62-2.14,3.3-4.37,4.26-6.83
			c1.36-3.47,3.63-4.64,7.16-4.88c7.71-0.53,15.17-2.48,22.64-4.72c-1.7-0.5-3.4-0.58-5.09-0.82c-7.55-1.07-15.25-1.56-22.59-3.44
			c-7.77-1.99-15.2-5.31-22.77-8.07C354.84,609.08,352.4,608.12,349.63,607.07L349.63,607.07z"/>
	</g>
	<g>
		<path class="st0" d="M905.94,824.47c-1.46,0-1.94-0.7-3.74-3.69l-1.99-3.32c-4.19-6.98-8.39-13.96-12.62-20.93
			c-0.49-0.79-1.09-1.51-1.68-2.2c-0.27-0.32-0.55-0.65-0.81-0.98l-0.64-0.82l-0.24,1.01c-2.43,10.46-4.28,20.71-6.06,30.63H870
			c2.8-15.87,5.56-31.58,8.27-47.02c0.18-0.09,0.32-0.17,0.45-0.23c0.15-0.08,0.32-0.17,0.37-0.17c1.09-0.04,2-0.08,2.76-0.08
			c3.4,0,3.75,0.58,6.5,5.09l0.06,0.1c3.74,6.15,7.58,12.37,11.3,18.38l1.41,2.29c0.35,0.56,0.75,1.1,1.29,1.84
			c0.31,0.42,0.67,0.91,1.11,1.51l0.64,0.89l0.25-1.07c1.32-5.63,2.24-11.12,3.12-16.42c0.67-4.03,1.36-8.19,2.22-12.29h8.16
			c-2.77,15.76-5.5,31.33-8.23,46.83C907.95,824.23,906.78,824.47,905.94,824.47z"/>
		<path d="M881.85,777.19c3.12,0,3.34,0.37,6.07,4.85l0.06,0.1c3.73,6.13,7.56,12.34,11.27,18.34l1.44,2.33
			c0.36,0.58,0.76,1.11,1.31,1.86c0.31,0.42,0.67,0.91,1.11,1.51l1.28,1.78l0.5-2.14c1.33-5.65,2.24-11.14,3.12-16.45
			c0.65-3.89,1.32-7.91,2.13-11.87h7.16c-2.71,15.45-5.39,30.71-8.07,45.92c-1.52,0.33-2.57,0.54-3.31,0.54
			c-1.16,0-1.49-0.43-3.31-3.44l-2.02-3.37c-4.11-6.85-8.37-13.94-12.59-20.89c-0.51-0.82-1.12-1.55-1.72-2.26
			c-0.27-0.32-0.54-0.64-0.8-0.97l-1.29-1.63l-0.47,2.03c-2.4,10.33-4.23,20.45-5.99,30.25h-7.15c2.75-15.59,5.46-31.02,8.13-46.19
			c0.09-0.04,0.16-0.09,0.23-0.12c0.09-0.05,0.16-0.09,0.22-0.11C880.21,777.22,881.1,777.19,881.85,777.19L881.85,777.19
			 M881.85,776.19c-0.77,0-1.68,0.04-2.78,0.08c-0.27,0.01-0.52,0.23-1.24,0.56c-2.76,15.71-5.57,31.7-8.42,47.86
			c3.26,0,6.05,0,9.18,0c1.85-10.28,3.67-20.43,6.13-31.02c0.82,1.04,1.76,2.01,2.45,3.13c4.9,8.07,9.75,16.16,14.61,24.25
			c1.76,2.92,2.37,3.93,4.17,3.93c0.95,0,2.22-0.28,4.17-0.71c2.78-15.81,5.57-31.68,8.39-47.75c-3.37,0-6.26,0-9.16,0
			c-2.03,9.57-3.05,19.02-5.42,29.1c-1.21-1.68-1.85-2.47-2.38-3.32c-4.25-6.88-8.51-13.76-12.71-20.67
			C886.02,777,885.56,776.19,881.85,776.19L881.85,776.19z"/>
	</g>
	<g>
		<path class="st0" d="M813.06,824.12l8.23-47.19h35.59l-1.39,7.68h-12.68c-5.08,0-9.27,0-13.66,0.02l-0.31,0l-0.14,0.28
			c-1.4,2.89-1.78,5.92-2.18,9.14c-0.09,0.71-0.18,1.44-0.28,2.17l-0.08,0.57h26.22l-1.4,7.6h-26.4l-0.07,0.42
			c-0.62,3.79-1.19,7.27-1.84,11.21l-0.1,0.58h27.2c-0.42,2.66-0.8,5-1.2,7.52H813.06z"/>
		<path d="M856.28,777.43l-0.06,0.32c-0.38,2.08-0.75,4.12-1.15,6.36h-12.26c-5.08,0-9.27,0-13.66,0.02l-0.62,0l-0.27,0.56
			c-1.44,2.96-1.82,6.04-2.23,9.29c-0.09,0.71-0.18,1.43-0.28,2.17l-0.16,1.14h1.15h25.05l-0.12,0.63c-0.38,2.05-0.73,3.95-1.1,5.97
			h-25.56h-0.85l-0.14,0.84c-0.62,3.79-1.19,7.27-1.84,11.21l-0.19,1.16h1.18h26.03c-0.36,2.28-0.69,4.34-1.04,6.52h-34.49
			c1.57-8.97,3.12-17.92,4.69-26.9l3.36-19.29H856.28 M857.47,776.43L857.47,776.43L857.47,776.43z M857.47,776.43
			c-12.54,0-24.46,0-36.61,0c-2.82,16.17-5.6,32.15-8.4,48.19c12.55,0,24.47,0,36.53,0c0.46-2.86,0.88-5.47,1.36-8.52
			c-9.15,0-17.91,0-27.2,0c0.65-3.94,1.22-7.42,1.84-11.21c8.96,0,17.59,0,26.39,0c0.54-2.93,1.02-5.52,1.59-8.6
			c-8.94,0-17.41,0-26.25,0c0.57-4.07,0.75-7.72,2.42-11.16c4.39-0.02,8.58-0.02,13.66-0.02c4.3,0,8.6,0,13.1,0
			C856.47,782,856.96,779.3,857.47,776.43L857.47,776.43z"/>
	</g>
	<g>
		<path class="st0" d="M984.18,824.13c0.17-0.99,0.9-5.39,0.9-5.39l2.43-13.68c1.67-9.43,3.31-18.68,4.96-28.04h35.42l-1.16,7.48
			h-27.45l-2.12,12.21h26.37c-0.29,1.72-1.27,7.68-1.27,7.68h-26.34l-2.18,11.45l0.38,0.15c1.67,0.68,3.28,0.77,4.5,0.77
			c0.65,0,1.31-0.03,1.95-0.06c0.62-0.03,1.24-0.06,1.86-0.06c0.25,0,0.5,0,0.74,0.02c1.06,0.05,2.19,0.07,3.57,0.07
			c0.91,0,1.82-0.01,2.73-0.02c0.91-0.01,1.81-0.02,2.72-0.02h8.81l-1.25,7.44H984.18z"/>
		<path d="M1027.3,777.52c-0.16,1.01-0.31,1.99-0.46,2.99c-0.18,1.14-0.36,2.29-0.54,3.49h-26.6h-0.84l-0.14,0.83l-0.41,2.33
			c-0.5,2.89-0.99,5.71-1.54,8.88l-0.2,1.17h1.19h25.18c-0.25,1.49-0.47,2.87-0.7,4.25l-0.4,2.43h-25.5h-0.83l-0.16,0.81l-0.62,3.24
			c-0.48,2.49-0.93,4.89-1.41,7.4l-0.15,0.81l0.76,0.31c1.75,0.71,3.42,0.8,4.69,0.8c0.67,0,1.33-0.03,1.98-0.06
			c0.64-0.03,1.24-0.06,1.84-0.06c0.24,0,0.48,0,0.72,0.02c1.06,0.05,2.2,0.07,3.58,0.07c0.91,0,1.82-0.01,2.73-0.02
			c0.91-0.01,1.81-0.02,2.72-0.02h8.22c-0.18,1.07-0.35,2.09-0.52,3.1c-0.19,1.12-0.37,2.22-0.56,3.34h-34.54
			c0.12-0.74,0.24-1.45,0.36-2.14c0.15-0.91,0.3-1.79,0.44-2.66l2.51-14.16c1.62-9.13,3.21-18.09,4.8-27.16H1027.3 M1028.47,776.52
			L1028.47,776.52L1028.47,776.52z M1028.47,776.52c-12.28,0-24.31,0-36.42,0c-2.46,13.98-4.9,27.68-7.46,42.14
			c-0.32,1.89-0.63,3.79-1,5.97c12.38,0,24.41,0,36.57,0c0.48-2.83,0.91-5.43,1.42-8.44c-3.46,0-6.43,0-9.4,0
			c-1.82,0-3.64,0.04-5.45,0.04c-1.18,0-2.36-0.02-3.54-0.07c-0.25-0.01-0.51-0.02-0.77-0.02c-1.25,0-2.53,0.11-3.81,0.11
			c-1.42,0-2.86-0.14-4.31-0.73c0.68-3.58,1.32-6.92,2.03-10.64c8.85,0,17.48,0,26.35,0c0.49-2.97,0.91-5.55,1.43-8.68
			c-9.01,0-17.48,0-26.36,0c0.7-4.01,1.3-7.47,1.95-11.21c9.51,0,18.44,0,27.46,0C1027.61,782,1028.03,779.39,1028.47,776.52
			L1028.47,776.52z"/>
	</g>
	<g>
		<path class="st0" d="M640.64,824.14c2.05-11.63,4.07-23.12,6.1-34.66l2.2-12.52h35.51c-0.43,2.51-0.83,4.86-1.29,7.49h-27.22
			l-2.4,12.4l0.6,0c3.5,0.03,6.94,0.03,10.37,0.03l7.44,0c2.6,0,5.22,0,7.87,0.02l-0.82,6.3c-1.37,0.79-2.66,1.16-4.06,1.17
			c-2.8,0.03-5.6,0.04-8.4,0.04l-9.57-0.01h-4.66c0,0-1.31,7.44-2,11.38l-0.09,0.54l0.54,0.05c3.64,0.31,7.19,0.35,9.87,0.35
			c1.53,0,3.06-0.01,4.59-0.03c1.54-0.01,3.07-0.03,4.62-0.03c2.98,0,5.34,0.06,7.57,0.18c-0.24,1.47-1.17,7.3-1.17,7.3H640.64z"/>
		<path d="M683.86,777.46c-0.37,2.16-0.73,4.23-1.12,6.49h-26.39h-0.82l-0.16,0.81l-1.2,6.19l-1.01,5.21l-0.23,1.18l1.2,0.01
			c3.73,0.03,7.33,0.03,10.35,0.03l3.74,0l3.76,0c2.4,0,4.81,0,7.25,0.01l-0.3,2.29c-0.14,1.08-0.28,2.14-0.41,3.19
			c-1.21,0.66-2.37,0.97-3.6,0.98c-2.45,0.03-5.03,0.04-8.38,0.04c-1.6,0-3.2,0-4.79-0.01c-1.6,0-3.2-0.01-4.79-0.01h-4.24h-0.84
			l-0.15,0.83c-0.65,3.68-1.24,7.03-1.93,10.97l-0.19,1.08l1.09,0.09c3.66,0.31,7.22,0.36,9.92,0.36c1.53,0,3.06-0.01,4.59-0.03
			c1.53-0.01,3.07-0.03,4.61-0.03c2.72,0,4.93,0.05,6.99,0.15c-0.2,1.24-0.39,2.44-0.58,3.64c-0.14,0.9-0.29,1.79-0.43,2.7h-34.57
			c1.95-11.05,3.87-21.98,5.8-32.96l2.33-13.22H683.86 M685.05,776.46c-12.37,0-24.43,0-36.52,0c-2.84,16.14-5.63,32.02-8.48,48.18
			c12.34,0,24.37,0,36.61,0c0.45-2.78,0.86-5.39,1.33-8.27c-2.75-0.17-5.46-0.22-8.16-0.22c-3.08,0-6.14,0.06-9.2,0.06
			c-3.27,0-6.54-0.07-9.83-0.35c0.69-3.94,1.28-7.29,1.93-10.97c1.6,0,2.92,0,4.24,0c3.19,0,6.39,0.01,9.59,0.01
			c2.8,0,5.6-0.01,8.39-0.04c1.45-0.01,2.89-0.38,4.52-1.36c0.3-2.29,0.59-4.57,0.92-7.1c-2.84-0.02-5.62-0.02-8.39-0.02
			c-2.51,0-5,0-7.5,0c-3.42,0-6.85-0.01-10.35-0.03c0.81-4.18,1.48-7.63,2.21-11.4c9.32,0,18.25,0,27.23,0
			C684.11,781.94,684.56,779.33,685.05,776.46L685.05,776.46z"/>
	</g>
	<g>
		<path class="st0" d="M479.78,825.96c-3.38,0-6.8-0.6-10.14-1.77c-4.5-1.59-7.23-4.74-8.34-9.63l7.1-3.45
			c1.93,3.71,4.41,5.86,7.76,6.77c1.74,0.47,3.52,0.71,5.27,0.71c1.98,0,4.02-0.3,6.06-0.9c3.17-0.93,5.25-2.64,6.35-5.22
			c1.33-3.13,0.55-5.61-2.26-7.15c-1.75-0.96-3.8-1.47-5.59-1.87c-1.32-0.3-2.68-0.52-3.99-0.74c-1.73-0.28-3.51-0.58-5.21-1.05
			c-4.69-1.29-8-4.26-9.09-8.15c-1.11-3.94,0.21-8.28,3.62-11.9c4.12-4.38,9.68-6.51,16.98-6.51c0.5,0,1,0.01,1.5,0.03
			c2.89,0.11,6.05,0.77,9.41,1.97c3.2,1.15,5.28,3.47,6.17,6.9c-2.21,1.07-4.39,2.1-6.73,3.22c-2.94-3.41-6.7-5.14-11.19-5.14
			c-1.38,0-2.86,0.16-4.4,0.49c-3.05,0.64-5.18,2.06-6.49,4.34c-0.86,1.49-1.08,2.96-0.64,4.24c0.42,1.21,1.4,2.17,2.85,2.76
			c1.69,0.69,3.54,1.06,5.32,1.41c0.42,0.08,0.84,0.17,1.26,0.25c1.09,0.23,2.21,0.42,3.29,0.6c1.81,0.31,3.69,0.62,5.45,1.15
			c6.81,2.04,9.11,5.54,8.48,12.9c-1.16,6.33-4.46,10.6-10.11,13.01C488.25,825.04,483.99,825.96,479.78,825.96
			C479.78,825.96,479.78,825.96,479.78,825.96z"/>
		<path d="M488.31,775.59c0.49,0,0.98,0.01,1.48,0.03c2.84,0.11,5.95,0.76,9.26,1.94c2.91,1.04,4.84,3.11,5.74,6.16
			c-1.98,0.95-3.93,1.88-6.01,2.87c-3-3.33-6.8-5.02-11.31-5.02c-1.42,0-2.93,0.17-4.5,0.5c-3.16,0.66-5.45,2.2-6.82,4.58
			c-0.93,1.62-1.17,3.23-0.68,4.66c0.46,1.35,1.55,2.41,3.13,3.06c1.74,0.71,3.6,1.08,5.41,1.44c0.42,0.08,0.84,0.17,1.25,0.25
			c1.1,0.23,2.22,0.42,3.31,0.61c1.8,0.3,3.66,0.62,5.39,1.13c6.6,1.98,8.73,5.21,8.12,12.33c-1.15,6.26-4.27,10.28-9.81,12.64
			c-4.15,1.78-8.35,2.69-12.49,2.69c-3.33,0-6.68-0.59-9.98-1.74c-4.27-1.5-6.8-4.34-7.93-8.88l6.31-3.07
			c1.96,3.58,4.48,5.68,7.85,6.59c1.78,0.48,3.6,0.72,5.4,0.72c2.03,0,4.11-0.31,6.2-0.92c3.28-0.96,5.52-2.81,6.67-5.51
			c1.44-3.41,0.59-6.1-2.48-7.78c-1.81-0.99-3.9-1.51-5.72-1.92c-1.34-0.3-2.7-0.53-4.02-0.74c-1.71-0.28-3.49-0.57-5.16-1.03
			c-4.52-1.24-7.7-4.09-8.74-7.8c-1.06-3.77,0.22-7.94,3.51-11.43C475.72,777.67,481.15,775.59,488.31,775.59 M488.31,774.59
			c-6.5,0-12.6,1.63-17.34,6.67c-7.36,7.82-4.57,18.05,5.7,20.88c3.01,0.83,6.17,1.1,9.22,1.79c1.87,0.42,3.8,0.91,5.46,1.82
			c2.68,1.47,3.23,3.7,2.04,6.51c-1.15,2.7-3.37,4.16-6.03,4.94c-1.96,0.58-3.93,0.88-5.92,0.88c-1.7,0-3.41-0.22-5.14-0.69
			c-3.75-1.01-6.01-3.58-7.67-6.95c-2.82,1.37-5.33,2.59-7.9,3.84c1.11,5.38,4.01,8.71,8.75,10.38c3.45,1.21,6.89,1.8,10.31,1.8
			c4.34,0,8.65-0.95,12.88-2.77c5.57-2.38,9.16-6.57,10.41-13.43c0.65-7.56-1.69-11.28-8.83-13.42c-2.85-0.85-5.86-1.14-8.78-1.76
			c-2.19-0.46-4.45-0.81-6.49-1.64c-2.81-1.15-3.48-3.65-1.96-6.29c1.36-2.36,3.58-3.56,6.16-4.1c1.48-0.31,2.91-0.48,4.3-0.48
			c4.22,0,7.98,1.54,11.05,5.26c2.6-1.24,4.99-2.38,7.44-3.56c-0.9-3.95-3.25-6.46-6.58-7.65c-3.05-1.09-6.35-1.88-9.56-2
			C489.32,774.6,488.81,774.59,488.31,774.59L488.31,774.59z"/>
	</g>
	<g>
		<path class="st0" d="M540.58,825.71c-3.08,0-6.09-0.55-8.68-1.6c-5.59-2.25-8.66-6.33-9.13-12.15c-0.21-2.57-0.09-5.38,0.37-8.84
			c0.43-3.15,1.02-6.34,1.6-9.42c0.24-1.28,0.48-2.55,0.71-3.83c0.95-5.23,1.79-9.61,2.43-12.9h8.02c-0.49,2.81-0.97,5.6-1.44,8.38
			c-1.1,6.44-2.13,12.53-3.32,18.72c-0.85,4.43-0.19,8.1,1.9,10.62c1.88,2.27,4.86,3.52,8.4,3.52c1.64,0,3.34-0.26,5.05-0.78
			c5.39-1.64,8.68-5.83,10.06-12.8c0.77-3.94,1.47-7.96,2.14-11.84c0.29-1.66,0.57-3.33,0.87-4.99l1.92-10.85h7.85
			c-0.01,0.18-0.01,0.35-0.01,0.53c-0.02,0.74-0.03,1.5-0.16,2.22l-0.29,1.7c-1.25,7.27-2.54,14.79-3.95,22.16
			c-0.59,3.12-1.28,5.55-2.17,7.65C558.92,820.3,550.63,825.71,540.58,825.71C540.58,825.71,540.58,825.71,540.58,825.71z"/>
		<path d="M568.8,777.46c0,0.01,0,0.01,0,0.02c-0.02,0.72-0.03,1.47-0.15,2.15l-0.29,1.68c-1.25,7.28-2.55,14.8-3.95,22.18
			c-0.59,3.09-1.27,5.48-2.14,7.55c-3.74,8.88-11.85,14.18-21.69,14.18c-3.02,0-5.96-0.54-8.49-1.56c-5.4-2.17-8.36-6.12-8.82-11.72
			c-0.21-2.53-0.09-5.31,0.36-8.74c0.42-3.14,1.02-6.32,1.6-9.39c0.24-1.28,0.48-2.56,0.71-3.83c0.91-5.03,1.72-9.25,2.35-12.49
			h7.02c-0.45,2.62-0.9,5.21-1.34,7.79c-1.1,6.44-2.13,12.52-3.32,18.71c-0.88,4.58-0.18,8.39,2,11.04c1.97,2.39,5.09,3.7,8.78,3.7
			c1.69,0,3.43-0.27,5.2-0.8c5.59-1.7,8.99-6.01,10.4-13.18c0.78-3.95,1.47-7.98,2.14-11.88c0.28-1.65,0.57-3.31,0.86-4.96
			c0.6-3.41,1.21-6.83,1.84-10.43H568.8 M569.84,776.46c-3.14,0-5.92,0-8.79,0c-0.69,3.91-1.34,7.59-1.99,11.26
			c-0.99,5.61-1.9,11.23-3,16.82c-1.13,5.74-3.73,10.6-9.71,12.42c-1.67,0.5-3.33,0.76-4.91,0.76c-6.49,0-11.57-4.34-9.8-13.55
			c1.74-9.1,3.21-18.25,4.86-27.69c-3.03,0-5.82,0-9.03,0c-0.79,4.06-1.6,8.3-2.51,13.31c-0.79,4.42-1.71,8.82-2.31,13.27
			c-0.39,2.95-0.61,5.99-0.37,8.95c0.49,6.07,3.8,10.3,9.44,12.57c2.61,1.05,5.67,1.63,8.87,1.63c8.59,0,18.15-4.2,22.61-14.79
			c1.04-2.46,1.7-5.12,2.2-7.75c1.51-7.94,2.87-15.91,4.24-23.87C569.83,778.69,569.78,777.54,569.84,776.46L569.84,776.46z
			 M536.5,776.48L536.5,776.48L536.5,776.48z"/>
	</g>
	<g>
		<path class="st0" d="M777.64,825.74c-1.87,0-3.79-0.18-5.72-0.53c-10.95-1.99-16.89-9.83-15.89-20.97
			c0.74-8.25,4.04-15.21,9.79-20.68c6.23-5.28,12.69-7.86,19.72-7.86c2.13,0,4.35,0.25,6.6,0.73c3.96,0.85,6.78,2.63,9.94,6.3
			c0,0-4.87,4.07-6.05,5.06c-4.14-2.88-8.24-4.34-12.2-4.34c-3.35,0-6.65,1.04-9.8,3.1c-7.41,4.84-10.57,11.89-9.4,20.95
			c0.61,4.68,3.38,7.96,8,9.49c2.02,0.67,4.09,1.01,6.13,1.01c2.87,0,5.77-0.67,8.64-1.98c1.1-0.51,2.16-1.13,3.28-1.78
			c0.44-0.26,0.9-0.52,1.38-0.8c1.38,1.64,2.8,3.33,4.42,5.24c-0.18,0.16-0.36,0.32-0.53,0.48c-0.57,0.52-1.12,1.02-1.7,1.4
			C789.04,824,783.47,825.74,777.64,825.74z"/>
		<path d="M785.53,776.19c2.1,0,4.28,0.24,6.49,0.72c3.7,0.8,6.38,2.44,9.33,5.76l-2.12,1.78c-1.08,0.91-2.16,1.81-3.24,2.71
			c-4.12-2.8-8.21-4.21-12.17-4.21c-3.45,0-6.84,1.07-10.08,3.18c-7.47,4.88-10.8,12.29-9.62,21.44c0.63,4.81,3.59,8.32,8.34,9.9
			c2.07,0.69,4.19,1.04,6.29,1.04c2.94,0,5.91-0.68,8.85-2.03c1.12-0.52,2.18-1.14,3.31-1.8c0.33-0.19,0.67-0.39,1.02-0.59
			c1.2,1.43,2.45,2.91,3.84,4.55c-0.06,0.05-0.12,0.11-0.17,0.16c-0.56,0.51-1.09,0.99-1.65,1.36c-5.08,3.38-10.57,5.09-16.3,5.09
			c-1.84,0-3.73-0.18-5.63-0.52c-10.67-1.94-16.46-9.58-15.48-20.44c0.73-8.12,3.96-14.96,9.61-20.35
			C772.29,778.73,778.63,776.19,785.53,776.19 M785.53,775.19c-7.21,0-13.81,2.69-20.06,8c-6.01,5.72-9.2,12.78-9.94,21
			c-1.02,11.35,5.08,19.47,16.3,21.51c1.97,0.36,3.91,0.54,5.81,0.54c5.98,0,11.6-1.77,16.85-5.26c0.92-0.61,1.7-1.43,2.66-2.25
			c-1.85-2.19-3.45-4.09-5-5.93c-1.88,1.05-3.38,2.02-4.98,2.76c-2.76,1.27-5.57,1.94-8.43,1.94c-1.97,0-3.97-0.32-5.97-0.99
			c-4.37-1.45-7.07-4.57-7.66-9.08c-1.11-8.62,1.83-15.67,9.18-20.47c3.1-2.02,6.29-3.02,9.53-3.02c3.99,0,8.08,1.51,12.23,4.47
			c2.23-1.86,4.48-3.75,6.73-5.63c-3.32-3.96-6.27-5.93-10.54-6.85C789.94,775.44,787.71,775.19,785.53,775.19L785.53,775.19z"/>
	</g>
	<g>
		<path class="st0" d="M942.88,824.22l1.17-6.75c1.89-10.85,3.77-21.65,5.68-32.72l0.1-0.58h-15.32l1.16-7.26h39.13l-1.18,7.14
			c-0.98,0-1.95-0.01-2.9-0.01c-1.06-0.01-2.11-0.01-3.15-0.01c-1.94,0-3.51,0.02-4.94,0.06c-1.01,0.04-2.01,0.28-2.97,0.52
			c-0.44,0.11-0.87,0.21-1.31,0.3l-0.33,0.07l-1.67,9.4c-1.81,10.17-3.55,19.97-5.31,29.84H942.88z"/>
		<path d="M974.22,777.41l-0.34,2.09c-0.22,1.31-0.44,2.64-0.67,4.05c-0.84,0-1.66-0.01-2.48-0.01c-1.07-0.01-2.12-0.01-3.16-0.01
			c-1.94,0-3.51,0.02-4.95,0.06c-1.06,0.04-2.08,0.29-3.07,0.53c-0.43,0.11-0.86,0.21-1.29,0.3l-0.67,0.13l-0.12,0.67l-1.7,9.54
			c-1.75,9.85-3.44,19.38-5.15,28.95h-7.15l0.84-4.84c1.97-11.3,3.92-22.53,5.91-34.04l0.2-1.17h-1.19h-14.14l0.92-5.77l0.08-0.49
			H974.22 M975.4,776.41c-13.7,0-26.82,0-40.14,0c-0.44,2.75-0.85,5.31-1.32,8.26c5.34,0,10.09,0,15.31,0
			c-2.35,13.55-4.64,26.71-6.96,40.05c3.26,0,6.06,0,9.18,0c2.3-12.91,4.57-25.7,6.99-39.32c1.4-0.28,2.8-0.76,4.2-0.81
			c1.63-0.05,3.26-0.06,4.92-0.06c2.11,0,4.26,0.02,6.48,0.02C974.54,781.61,974.96,779.09,975.4,776.41L975.4,776.41z"/>
	</g>
	<g>
		<path class="st0" d="M374.4,800.21c-6.79-0.32-13.11-0.64-19.31-0.95c8.98-0.39,17.96-0.79,26.94-1.19l21.43-0.98
			c14.37-0.66,28.74-1.31,43.11-1.96c0.52-0.02,1.04-0.03,1.58-0.03c0.44,0,0.9,0,1.39,0.01c0.35,0,0.71,0.01,1.08,0.01
			c-0.69,2.46-1.31,4.7-2,7.18l-0.39,1.4L374.4,800.21z"/>
		<path d="M448.15,795.6c0.44,0,0.9,0.01,1.38,0.01c0.14,0,0.28,0,0.43,0c-0.62,2.22-1.2,4.29-1.83,6.57l-0.28,1.01l-47.27-2.24
			l-26.15-1.24c-2.96-0.14-5.83-0.28-8.64-0.42c5.42-0.24,10.84-0.48,16.26-0.72l22.2-1.01c14.12-0.65,28.23-1.29,42.34-1.93
			C447.05,795.61,447.54,795.6,448.15,795.6 M448.15,794.6c-0.55,0-1.08,0.01-1.61,0.03c-21.51,0.97-43.02,1.96-64.54,2.94
			c-11.26,0.51-22.52,1-33.78,1.49c0.01,0.12,0.01,0.24,0.02,0.36c8.42,0.42,16.84,0.85,26.13,1.29
			c24.74,1.17,49.47,2.34,74.22,3.51c0.96-3.45,1.75-6.3,2.68-9.6C450.1,794.62,449.09,794.6,448.15,794.6L448.15,794.6z"/>
	</g>
	<g>
		<path class="st5" d="M1077.19,823.29c-1.62,0-2.86-0.05-4.02-0.16c-0.88-0.08-2-1.07-2.67-1.96c-2.27-3.07-4.93-6.74-7.38-10.66
			c-1.58-2.54-3.43-3.72-5.81-3.72c-0.4,0-0.82,0.03-1.25,0.1c-0.4,0.06-0.85,0.09-1.4,0.09c-0.4,0-0.82-0.01-1.27-0.03
			c-0.52-0.02-1.08-0.04-1.69-0.04h-0.42l-0.08,0.41c-0.96,5.29-1.9,10.4-2.87,15.68h-8.19c0,0,5.77-32.79,8.28-47.12
			c0.23-0.03,0.46-0.07,0.68-0.11c0.66-0.11,1.29-0.21,1.91-0.22c3.54-0.02,7.08-0.03,10.63-0.03c3.18,0,6.37,0.01,9.55,0.04
			c1.72,0.01,3.33,0.18,4.79,0.5c6.44,1.41,10.2,6.31,9.81,12.78c-0.46,7.67-3.97,12.92-10.75,16.03c-1.06,0.4-1.95,0.74-2.98,1.15
			l-1.53,0.59c0,0,9.57,13.67,11.64,16.62c-0.79,0.01-1.54,0.02-2.27,0.03C1078.96,823.28,1078.06,823.29,1077.19,823.29z
			 M1052.49,799.56h0.6c1.68,0,3.34,0.02,4.99,0.05c1.62,0.02,3.23,0.05,4.83,0.05h0c2.5,0,4.56-0.06,6.46-0.19
			c3.42-0.23,6.01-2.46,7.5-6.43c0.94-2.53,0.8-4.92-0.39-6.73c-1.18-1.79-3.29-2.86-5.95-3c-0.99-0.06-2.05-0.08-3.42-0.08
			c-0.73,0-1.49,0.01-2.28,0.01c-0.88,0.01-1.8,0.02-2.79,0.02l-6.69,0L1052.49,799.56z"/>
		<path d="M1061.65,776.03c3.49,0,6.61,0.01,9.54,0.04c1.69,0.01,3.26,0.17,4.68,0.49c6.18,1.35,9.79,6.05,9.42,12.26
			c-0.44,7.46-3.85,12.56-10.43,15.59c-1.07,0.4-1.94,0.75-2.96,1.14l-0.96,0.37l-1.19,0.46l0.73,1.04
			c1.77,2.53,3.51,5.01,5.26,7.51c1.78,2.54,3.58,5.11,5.47,7.81c-0.45,0.01-0.9,0.01-1.33,0.02c-0.94,0.01-1.83,0.03-2.71,0.03
			c-1.6,0-2.82-0.05-3.97-0.16c-0.61-0.06-1.6-0.81-2.31-1.76c-2.13-2.88-4.9-6.69-7.35-10.62c-1.68-2.7-3.66-3.96-6.23-3.96
			c-0.42,0-0.87,0.04-1.33,0.11c-0.38,0.06-0.8,0.09-1.32,0.09c-0.4,0-0.81-0.01-1.25-0.03c-0.53-0.02-1.09-0.04-1.71-0.04h-0.83
			l-0.15,0.82c-0.94,5.16-1.85,10.13-2.8,15.27h-7.18l0.53-2.99c2.54-14.43,5.05-28.71,7.59-43.2c0.11-0.02,0.22-0.04,0.33-0.05
			c0.64-0.11,1.25-0.21,1.83-0.21C1054.56,776.05,1058.1,776.03,1061.65,776.03 M1062.04,782.75l-0.47,0h-5.8h-0.84l-0.15,0.83
			c-0.45,2.56-0.88,5.01-1.3,7.44c-0.46,2.61-0.91,5.19-1.38,7.86l-0.21,1.17h1.19c1.68,0,3.36,0.02,4.99,0.05
			c1.59,0.02,3.24,0.05,4.85,0.05c2.51,0,4.57-0.06,6.48-0.19c3.58-0.24,6.39-2.64,7.93-6.76c1-2.68,0.84-5.23-0.44-7.18
			c-1.27-1.93-3.52-3.08-6.34-3.23c-1-0.06-2.07-0.08-3.45-0.08c-0.73,0-1.49,0.01-2.29,0.01
			C1063.95,782.75,1063.03,782.75,1062.04,782.75 M1061.65,775.03c-3.55,0-7.09,0.01-10.64,0.03c-0.99,0.01-1.98,0.25-3.01,0.38
			c-2.83,16.12-5.62,31.98-8.45,48.07c3.25,0,6.17,0,9.2,0c1-5.43,1.96-10.66,2.95-16.09c1.13,0,2.09,0.07,2.96,0.07
			c0.51,0,1-0.02,1.48-0.1c0.41-0.06,0.8-0.09,1.18-0.09c2.39,0,4.01,1.28,5.38,3.48c2.29,3.67,4.82,7.21,7.4,10.69
			c0.72,0.96,1.94,2.06,3.02,2.16c1.33,0.13,2.66,0.16,4.06,0.16c1.83,0,3.77-0.06,5.95-0.06c-4.18-5.98-7.91-11.29-11.82-16.88
			c1.47-0.57,2.54-0.99,3.94-1.52c7.28-3.34,10.6-9.04,11.04-16.45c0.41-6.81-3.57-11.85-10.2-13.3c-1.59-0.35-3.26-0.5-4.89-0.51
			C1068.01,775.04,1064.83,775.03,1061.65,775.03L1061.65,775.03z M1062.04,783.75c1.89,0,3.53-0.03,5.07-0.03
			c1.17,0,2.28,0.02,3.39,0.08c5.2,0.28,7.7,4.19,5.89,9.06c-1.24,3.32-3.51,5.87-7.06,6.11c-2.13,0.14-4.26,0.19-6.41,0.19
			c-3.23,0-6.49-0.1-9.84-0.1c0.91-5.17,1.75-10.02,2.68-15.31c1.98,0,3.89,0,5.8,0C1061.72,783.75,1061.88,783.75,1062.04,783.75
			L1062.04,783.75z"/>
	</g>
	<g>
		<path class="st6" d="M734.99,823.03c-1.33,0-2.66-0.09-3.96-0.18c-0.49-0.03-0.99-0.07-1.48-0.1c-0.44-0.02-1.14-1.02-1.57-1.62
			l-0.19-0.26c-0.59-0.82-1.19-1.63-1.78-2.45c-2.02-2.75-4.1-5.6-5.86-8.56c-1.36-2.29-3.04-3.3-5.44-3.3
			c-0.28,0-0.58,0.01-0.88,0.04c-0.47,0.04-0.98,0.06-1.62,0.06c-0.45,0-0.92-0.01-1.41-0.02c-0.55-0.01-1.13-0.02-1.76-0.02h-0.42
			l-2.93,16.08h-8.23c2.8-15.84,5.56-31.5,8.34-47.27c2.63,0,5.23-0.04,7.81-0.08c2.66-0.04,5.3-0.08,7.92-0.08
			c3.92,0,7.13,0.09,10.12,0.27c7.45,0.47,11.82,5.64,11.39,13.5c-0.31,5.73-2.69,10.21-7.27,13.7c-2.4,1.21-4.65,2.29-7.12,3.48
			l-0.5,0.24l0.29,0.47c1.84,3.04,3.89,5.87,6.06,8.88c1.58,2.19,3.22,4.45,4.78,6.81C737.98,822.9,736.6,823.03,734.99,823.03z
			 M712.36,784.88c-0.81,4.73-1.57,9.14-2.37,13.79l-0.1,0.58h0.59c1.69,0,3.36,0.03,5.02,0.05c1.63,0.03,3.24,0.05,4.84,0.05
			c0,0,0,0,0,0c2.5,0,4.54-0.07,6.44-0.21c4.2-0.31,7.93-4.64,7.98-9.27c0.04-3.87-2.27-6.48-6.04-6.81
			c-1.27-0.11-2.54-0.12-3.63-0.12c0,0-2.66,0.01-3.27,0.01c-0.38,0-0.77,0-1.18,0h-7.96L712.36,784.88z"/>
		<path d="M721.54,774.77v1h0c3.91,0,7.11,0.09,10.09,0.27c7.15,0.45,11.33,5.42,10.92,12.98c-0.3,5.54-2.6,9.89-7.01,13.28
			c-2.42,1.23-4.56,2.26-7.11,3.48l-1,0.48l0.57,0.94c1.85,3.05,3.91,5.9,6.09,8.91c1.44,1.99,2.92,4.04,4.35,6.16
			c-1.06,0.18-2.19,0.27-3.47,0.27c-1.31,0-2.64-0.09-3.92-0.18c-0.49-0.03-0.99-0.07-1.44-0.09c-0.3-0.11-0.95-1.02-1.23-1.42
			l-0.19-0.27c-0.59-0.82-1.19-1.64-1.79-2.46c-2.01-2.74-4.08-5.58-5.83-8.52c-1.44-2.42-3.3-3.55-5.87-3.55
			c-0.3,0-0.61,0.01-0.93,0.04c-0.46,0.04-0.95,0.06-1.57,0.06c-0.45,0-0.91-0.01-1.4-0.02c-0.56-0.01-1.14-0.02-1.77-0.02h-0.83
			l-0.15,0.82c-0.59,3.25-1.17,6.44-1.76,9.64l-1.02,5.62h-7.21c2.74-15.5,5.44-30.83,8.17-46.27c2.5-0.01,4.98-0.04,7.4-0.08
			c2.6-0.04,5.3-0.08,7.91-0.08L721.54,774.77 M721.82,782.47c-0.38,0-0.77,0-1.18-0.01h-7.53h-0.84l-0.14,0.83l-0.29,1.71
			c-0.8,4.65-1.54,9-2.34,13.58l-0.2,1.17h1.19c1.68,0,3.37,0.03,5,0.05c1.59,0.03,3.24,0.05,4.85,0.05c2.51,0,4.57-0.07,6.48-0.21
			c4.03-0.3,8.38-4.29,8.45-9.77c0.05-4.15-2.44-6.96-6.5-7.32c-1.28-0.11-2.57-0.12-3.66-0.12c-0.49,0-0.99,0-1.51,0.01
			C723.03,782.46,722.44,782.47,721.82,782.47 M721.54,774.77c-5.3,0-10.66,0.16-16.15,0.16c-2.84,16.11-5.66,32.09-8.52,48.27
			c3.29,0,6.21,0,9.24,0c0.99-5.43,1.94-10.66,2.93-16.08c1.18,0,2.21,0.04,3.17,0.04c0.57,0,1.12-0.02,1.66-0.06
			c0.29-0.03,0.57-0.04,0.84-0.04c2.18,0,3.72,0.89,5.01,3.06c2.29,3.85,5.05,7.41,7.67,11.05c0.59,0.82,1.38,2.05,2.13,2.09
			c1.8,0.1,3.61,0.28,5.46,0.28c1.67,0,3.37-0.14,5.11-0.6c-3.74-5.76-7.9-10.78-11.22-16.26c2.66-1.27,4.8-2.3,7.21-3.53
			c4.83-3.68,7.16-8.41,7.47-14.07c0.43-7.94-3.94-13.53-11.86-14.03C728.33,774.83,724.95,774.77,721.54,774.77L721.54,774.77z
			 M721.82,783.47c1.19,0,2.27-0.01,3.28-0.01c1.26,0,2.42,0.02,3.58,0.12c3.59,0.32,5.62,2.74,5.58,6.31
			c-0.05,4.16-3.34,8.47-7.52,8.78c-2.12,0.16-4.26,0.21-6.41,0.21c-3.23,0-6.5-0.11-9.85-0.11c0.89-5.14,1.72-9.99,2.63-15.3
			c2.52,0,5.02,0,7.53,0C721.05,783.47,721.44,783.47,721.82,783.47L721.82,783.47z"/>
	</g>
	<g>
		<path class="st5" d="M905.95,824.48c-1.47,0-1.94-0.7-3.73-3.68c-1.73-2.87-3.46-5.75-5.19-8.62c-3.13-5.21-6.27-10.43-9.42-15.63
			c-0.71-1.15-1.69-2.18-2.92-3.06l-0.63-0.45l-0.16,0.75c-2.14,10.37-3.97,20.55-5.73,30.4h-8.17c2.79-15.87,5.55-31.58,8.27-47.02
			c0.18-0.09,0.32-0.16,0.45-0.23c0.15-0.08,0.32-0.17,0.37-0.17c1.1-0.04,2-0.08,2.77-0.08c3.4,0,3.75,0.58,6.49,5.09l0.06,0.11
			c3.72,6.12,7.55,12.32,11.25,18.31l1.46,2.37c0.35,0.56,0.75,1.1,1.29,1.84c0.31,0.42,0.67,0.91,1.11,1.51l0.64,0.89l0.25-1.07
			c1.32-5.63,2.24-11.12,3.12-16.42c0.67-4.03,1.36-8.19,2.22-12.29h8.16c-2.77,15.76-5.5,31.32-8.23,46.83
			C907.95,824.23,906.79,824.48,905.95,824.48z"/>
		<path d="M881.86,777.2c3.12,0,3.34,0.37,6.07,4.85l0.07,0.11c3.73,6.13,7.56,12.34,11.27,18.34l1.44,2.33
			c0.36,0.58,0.76,1.11,1.31,1.86c0.31,0.42,0.67,0.91,1.11,1.51l1.28,1.78l0.5-2.14c1.33-5.65,2.24-11.14,3.12-16.45
			c0.65-3.89,1.32-7.91,2.13-11.87h7.16c-2.71,15.45-5.39,30.71-8.07,45.92c-1.52,0.33-2.57,0.54-3.31,0.54
			c-1.16,0-1.5-0.43-3.31-3.44c-1.7-2.83-3.4-5.66-5.11-8.49c-3.11-5.17-6.32-10.52-9.51-15.77c-0.74-1.2-1.77-2.28-3.05-3.2
			l-1.25-0.9l-0.31,1.51c-2.11,10.21-3.91,20.26-5.66,30h-7.15c2.74-15.59,5.45-31.02,8.13-46.19c0.09-0.04,0.16-0.09,0.23-0.12
			c0.09-0.05,0.16-0.09,0.22-0.11C880.22,777.23,881.11,777.2,881.86,777.2 M879.22,777.25L879.22,777.25L879.22,777.25
			 M881.86,776.2c-0.77,0-1.68,0.04-2.78,0.08c-0.27,0.01-0.52,0.23-1.24,0.56c-2.77,15.71-5.58,31.7-8.42,47.86
			c3.26,0,6.06,0,9.18,0c1.84-10.28,3.66-20.43,5.8-30.8c1.14,0.82,2.08,1.78,2.78,2.91c4.9,8.07,9.74,16.17,14.61,24.25
			c1.75,2.92,2.36,3.92,4.16,3.92c0.95,0,2.23-0.28,4.18-0.7c2.78-15.81,5.57-31.68,8.39-47.75c-3.37,0-6.26,0-9.16,0
			c-2.03,9.57-3.05,19.02-5.42,29.1c-1.21-1.68-1.85-2.47-2.38-3.32c-4.25-6.88-8.51-13.76-12.71-20.67
			C886.03,777.01,885.57,776.2,881.86,776.2L881.86,776.2z M918.52,776.52L918.52,776.52L918.52,776.52z"/>
	</g>
	<g>
		<path class="st7" d="M813.05,824.1l8.23-47.19h35.59l-1.39,7.68c-4.34,0.02-8.52,0.02-13.12,0.02h-13.53l-0.14,0.28
			c-1.4,2.9-1.78,5.94-2.19,9.17c-0.09,0.7-0.18,1.42-0.28,2.14l-0.08,0.57h26.22l-1.41,7.6h-26.4l-0.07,0.42
			c-0.62,3.79-1.19,7.27-1.84,11.21l-0.1,0.58h27.2c-0.43,2.66-0.8,5.01-1.2,7.52H813.05z"/>
		<path d="M856.27,777.41l-0.02,0.13c-0.39,2.15-0.77,4.25-1.19,6.56c-4.19,0.02-8.25,0.02-12.7,0.02h-13.22h-0.63l-0.27,0.57
			c-1.43,2.97-1.82,6.05-2.23,9.32c-0.09,0.7-0.18,1.41-0.28,2.14l-0.16,1.14h1.15h25.05l-0.14,0.77c-0.37,2-0.71,3.85-1.08,5.83
			h-25.56h-0.85l-0.14,0.84c-0.62,3.79-1.19,7.27-1.84,11.21l-0.19,1.16h1.18h26.03c-0.37,2.28-0.7,4.35-1.04,6.52h-34.49
			c1.57-8.97,3.12-17.92,4.69-26.9l3.36-19.29H856.27 M857.47,776.41c-12.54,0-24.46,0-36.61,0c-2.82,16.17-5.6,32.15-8.4,48.19
			c12.55,0,24.47,0,36.53,0c0.45-2.85,0.87-5.47,1.36-8.52c-9.15,0-17.92,0-27.2,0c0.65-3.94,1.22-7.42,1.84-11.21
			c8.97,0,17.6,0,26.39,0c0.54-2.93,1.02-5.52,1.59-8.6c-8.94,0-17.4,0-26.25,0c0.57-4.07,0.76-7.72,2.42-11.16
			c4.4,0,8.59,0,13.22,0c4.75,0,9.05,0,13.54-0.02C856.46,781.98,856.95,779.28,857.47,776.41L857.47,776.41z M852.97,796.27
			L852.97,796.27L852.97,796.27z M850.35,816.08L850.35,816.08L850.35,816.08z"/>
	</g>
	<g>
		<path class="st7" d="M984.19,824.12c0.31-1.94,0.6-3.69,0.95-5.76c0,0,5.88-33.08,7.35-41.35h35.42l-1.16,7.48h-27.45l-2.12,12.21
			h26.36l-1.27,7.68h-26.34l-0.36,1.87c-0.6,3.14-1.16,6.07-1.75,9.18l-0.08,0.4l0.38,0.15c1.67,0.68,3.29,0.77,4.51,0.77
			c0.66,0,1.32-0.03,1.97-0.06c0.63-0.03,1.26-0.06,1.88-0.06c0.23,0,0.47,0,0.7,0.01c1.05,0.04,2.19,0.07,3.56,0.07
			c0.91,0,1.82-0.01,2.73-0.02c0.91-0.01,1.81-0.02,2.72-0.02h8.81c-0.44,2.62-0.84,4.95-1.25,7.44H984.19z"/>
		<path d="M1027.32,777.51l-0.41,2.63c-0.19,1.25-0.39,2.52-0.59,3.85h-26.6h-0.84l-0.14,0.83c-0.28,1.59-0.55,3.14-0.82,4.69
			c-0.37,2.1-0.74,4.22-1.13,6.52l-0.2,1.17h1.19h25.18c-0.19,1.16-0.37,2.25-0.55,3.33c-0.18,1.11-0.36,2.21-0.55,3.35h-25.5h-0.83
			l-0.16,0.81l-0.21,1.12c-0.63,3.27-1.21,6.3-1.82,9.52l-0.15,0.8l0.76,0.31c1.75,0.71,3.43,0.81,4.7,0.81
			c0.67,0,1.34-0.03,1.99-0.06c0.64-0.03,1.25-0.06,1.86-0.06c0.23,0,0.45,0,0.68,0.01c1.06,0.05,2.2,0.07,3.58,0.07
			c0.91,0,1.82-0.01,2.73-0.02c0.91-0.01,1.81-0.02,2.72-0.02h8.22c-0.38,2.24-0.73,4.29-1.08,6.44h-34.55
			c0.28-1.72,0.54-3.32,0.85-5.17l2.96-16.63c1.44-8.1,2.87-16.16,4.32-24.32H1027.32 M1028.49,776.51c-12.29,0-24.31,0-36.42,0
			c-2.48,13.99-4.92,27.69-7.42,41.77c-0.38,2.27-0.69,4.16-1.04,6.34c12.37,0,24.4,0,36.57,0c0.47-2.83,0.91-5.43,1.42-8.44
			c-3.46,0-6.43,0-9.4,0c-1.82,0-3.64,0.04-5.45,0.04c-1.18,0-2.36-0.02-3.54-0.07c-0.24-0.01-0.48-0.01-0.72-0.01
			c-1.27,0-2.55,0.12-3.85,0.12c-1.43,0-2.87-0.14-4.32-0.73c0.68-3.59,1.32-6.93,2.03-10.64c8.85,0,17.48,0,26.35,0
			c0.49-2.96,0.91-5.54,1.43-8.68c-9.01,0-17.48,0-26.36,0c0.69-4,1.3-7.46,1.95-11.21c9.51,0,18.44,0,27.46,0
			C1027.64,781.99,1028.05,779.37,1028.49,776.51L1028.49,776.51z M1024.13,796.2L1024.13,796.2L1024.13,796.2z M1021.6,816.18
			L1021.6,816.18L1021.6,816.18z"/>
	</g>
	<g>
		<path class="st7" d="M640.64,824.14l8.3-47.18h35.51c-0.43,2.51-0.83,4.86-1.29,7.49h-27.22l-2.4,12.4l0.6,0
			c3.5,0.03,6.94,0.03,10.37,0.03l7.44,0c2.6,0,5.22,0,7.87,0.02c-0.29,2.28-0.56,4.33-0.9,6.62c-1.52,0.56-2.79,0.83-3.98,0.84
			c-2.8,0.03-5.6,0.04-8.4,0.04l-9.57-0.01h-4.66c0,0-1.31,7.44-2,11.38l-0.09,0.54l0.54,0.05c3.64,0.31,7.18,0.35,9.87,0.35
			c1.53,0,3.06-0.01,4.59-0.03c1.54-0.01,3.07-0.03,4.62-0.03c2.98,0,5.35,0.06,7.57,0.18c-0.4,2.52-0.78,4.86-1.17,7.3H640.64z"/>
		<path d="M683.86,777.46c-0.37,2.16-0.73,4.23-1.12,6.49h-26.39h-0.82l-0.16,0.81l-1.19,6.16l-1.02,5.24l-0.23,1.18l1.2,0.01
			c3.73,0.03,7.33,0.03,10.35,0.03l3.74,0l3.76,0c2.4,0,4.81,0,7.26,0.01c-0.25,1.95-0.49,3.77-0.78,5.75
			c-1.34,0.47-2.48,0.7-3.54,0.71c-2.45,0.03-5.03,0.04-8.38,0.04c-1.6,0-3.2,0-4.79-0.01c-1.6,0-3.2-0.01-4.79-0.01h-4.24h-0.84
			l-0.15,0.83c-0.65,3.68-1.24,7.03-1.93,10.97l-0.19,1.08l1.09,0.09c3.66,0.31,7.22,0.36,9.91,0.36c1.53,0,3.06-0.01,4.59-0.03
			c1.53-0.01,3.07-0.03,4.61-0.03c2.73,0,4.94,0.05,7,0.15c-0.35,2.17-0.68,4.22-1.02,6.33h-34.57c1.68-9.54,3.34-19,5.01-28.47
			l3.12-17.71H683.86 M685.05,776.46L685.05,776.46L685.05,776.46z M685.05,776.46c-12.37,0-24.43,0-36.52,0
			c-2.84,16.14-5.64,32.02-8.48,48.18c12.34,0,24.38,0,36.61,0c0.45-2.78,0.87-5.39,1.33-8.27c-2.75-0.17-5.46-0.22-8.16-0.22
			c-3.08,0-6.14,0.06-9.2,0.06c-3.27,0-6.54-0.07-9.83-0.35c0.69-3.94,1.28-7.29,1.93-10.97c1.6,0,2.92,0,4.24,0
			c3.19,0,6.39,0.01,9.59,0.01c2.8,0,5.6-0.01,8.39-0.04c1.45-0.02,2.89-0.39,4.43-0.98c0.39-2.67,0.69-4.96,1.01-7.48
			c-2.84-0.02-5.62-0.02-8.39-0.02c-2.51,0-5,0-7.5,0c-3.42,0-6.85-0.01-10.35-0.03c0.81-4.18,1.48-7.63,2.21-11.4
			c9.32,0,18.25,0,27.23,0C684.11,781.94,684.56,779.32,685.05,776.46L685.05,776.46z"/>
	</g>
	<g>
		<path class="st5" d="M479.77,825.97c-3.38,0-6.8-0.6-10.14-1.77c-4.5-1.59-7.23-4.74-8.34-9.63l7.11-3.45
			c1.94,3.71,4.42,5.87,7.76,6.77c1.74,0.47,3.52,0.71,5.27,0.71c1.98,0,4.02-0.3,6.06-0.9c3.18-0.93,5.26-2.64,6.35-5.22
			c1.33-3.13,0.55-5.6-2.26-7.14c-1.7-0.93-3.61-1.41-5.59-1.87c-1.32-0.3-2.68-0.52-3.99-0.74c-1.73-0.28-3.51-0.58-5.21-1.05
			c-4.69-1.29-8-4.25-9.09-8.14c-1.11-3.95,0.21-8.29,3.63-11.92c4.13-4.38,9.69-6.51,16.98-6.51c0.5,0,0.99,0.01,1.5,0.03
			c2.9,0.11,6.06,0.77,9.41,1.97c3.21,1.15,5.28,3.47,6.17,6.9l-6.73,3.22c-2.94-3.41-6.7-5.14-11.18-5.14
			c-1.38,0-2.86,0.16-4.4,0.49c-3.05,0.64-5.18,2.06-6.49,4.34c-0.86,1.49-1.09,2.95-0.65,4.23c0.41,1.22,1.4,2.17,2.85,2.77
			c1.68,0.69,3.5,1.05,5.26,1.4c0.44,0.09,0.88,0.17,1.31,0.27c1.09,0.23,2.21,0.42,3.29,0.6c1.81,0.31,3.69,0.62,5.45,1.15
			c6.92,2.07,9.13,5.54,8.42,13.27c-1.11,6.07-4.4,10.22-10.06,12.64C488.24,825.05,483.98,825.97,479.77,825.97z"/>
		<path d="M488.3,775.6c0.49,0,0.98,0.01,1.48,0.03c2.85,0.11,5.96,0.76,9.26,1.94c2.91,1.04,4.84,3.11,5.74,6.16l-2.57,1.23
			c-1.12,0.54-2.26,1.08-3.43,1.64c-3-3.33-6.8-5.02-11.31-5.02c-1.42,0-2.93,0.17-4.5,0.5c-3.16,0.66-5.45,2.2-6.82,4.58
			c-0.94,1.62-1.18,3.22-0.69,4.65c0.46,1.36,1.55,2.42,3.14,3.07c1.73,0.71,3.57,1.07,5.36,1.43c0.44,0.09,0.87,0.17,1.31,0.26
			c1.1,0.23,2.22,0.42,3.31,0.61c1.8,0.3,3.66,0.62,5.39,1.13c6.7,2.01,8.74,5.21,8.07,12.7c-1.09,5.91-4.28,9.93-9.76,12.28
			c-4.15,1.78-8.35,2.69-12.49,2.69c-3.33,0-6.68-0.59-9.98-1.74c-4.27-1.5-6.8-4.34-7.93-8.88l6.31-3.07
			c1.98,3.58,4.49,5.69,7.85,6.59c1.78,0.48,3.6,0.72,5.4,0.72c2.03,0,4.11-0.31,6.2-0.92c3.29-0.96,5.53-2.82,6.67-5.51
			c1.43-3.36,0.55-6.12-2.48-7.78c-1.75-0.96-3.7-1.45-5.72-1.92c-1.34-0.3-2.7-0.53-4.02-0.74c-1.71-0.28-3.49-0.57-5.16-1.04
			c-4.51-1.24-7.7-4.08-8.74-7.79c-1.06-3.77,0.22-7.94,3.51-11.44C475.71,777.68,481.15,775.6,488.3,775.6 M488.3,774.6
			c-6.5,0-12.59,1.63-17.35,6.67c-7.36,7.82-4.58,18.06,5.7,20.88c3.01,0.83,6.17,1.1,9.22,1.79c1.87,0.43,3.8,0.91,5.46,1.82
			c2.68,1.47,3.23,3.71,2.04,6.51c-1.14,2.7-3.37,4.16-6.03,4.94c-1.96,0.58-3.93,0.88-5.92,0.88c-1.7,0-3.41-0.22-5.14-0.69
			c-3.75-1.01-6-3.58-7.67-6.95c-2.82,1.37-5.33,2.59-7.9,3.84c1.11,5.38,4.01,8.71,8.75,10.38c3.45,1.21,6.89,1.8,10.31,1.8
			c4.34,0,8.65-0.95,12.88-2.77c5.58-2.39,9.18-6.58,10.36-13.06c0.72-7.93-1.63-11.65-8.78-13.79c-2.85-0.85-5.86-1.14-8.78-1.76
			c-2.18-0.46-4.44-0.8-6.49-1.64c-2.81-1.15-3.49-3.65-1.96-6.29c1.36-2.36,3.58-3.56,6.16-4.1c1.48-0.31,2.91-0.48,4.3-0.48
			c4.22,0,7.98,1.54,11.05,5.26c2.6-1.24,4.99-2.39,7.44-3.56c-0.9-3.96-3.25-6.46-6.58-7.65c-3.04-1.09-6.34-1.88-9.56-2
			C489.31,774.61,488.8,774.6,488.3,774.6L488.3,774.6z"/>
	</g>
	<g>
		<path class="st5" d="M582.12,822.66c0.63-3.55,1.23-6.98,1.88-10.68l0.18-1c2.12-12.07,4.16-23.76,6.22-35.56l0.04-0.24
			c2.53,0,5.03-0.03,7.5-0.05c2.54-0.02,5.06-0.05,7.56-0.05c3.73,0,6.79,0.05,9.64,0.16c4.15,0.16,7.69,1.9,9.98,4.9
			c2.55,3.34,3.34,7.82,2.23,12.63c-2.12,9.14-9.84,15.45-19.22,15.7c-1.62,0.04-3.35,0.06-5.44,0.06c-1.54,0-3.08-0.01-4.64-0.02
			c-1.57-0.01-3.15-0.02-4.75-0.02h-0.42l-2.63,14.17H582.12z M594.16,801.11h13.31c6.71-0.26,10.8-3.38,11.85-9.02
			c0.45-2.42-0.07-4.8-1.41-6.51c-1.18-1.5-2.92-2.39-4.9-2.5c-1.79-0.1-3.72-0.15-6.07-0.15c-1.51,0-3.04,0.02-4.57,0.04
			c-1.55,0.02-3.11,0.04-4.68,0.04h-0.42L594.16,801.11z"/>
		<path d="M605.51,775.58c3.72,0,6.77,0.05,9.61,0.16c3.99,0.15,7.4,1.82,9.61,4.7c2.46,3.22,3.22,7.55,2.14,12.21
			c-2.07,8.91-9.6,15.07-18.74,15.32c-1.62,0.04-3.35,0.06-5.44,0.06c-1.54,0-3.08-0.01-4.63-0.02c-1.57-0.01-3.15-0.02-4.74-0.02
			h-0.83l-0.15,0.82c-0.87,4.68-1.66,8.96-2.48,13.35h-7.12c0.59-3.29,1.15-6.5,1.75-9.92l0.21-1.17
			c2.02-11.5,3.97-22.68,5.94-33.92l0.26-1.48c2.4,0,4.78-0.03,7.08-0.05C600.44,775.6,603.01,775.58,605.51,775.58 M593.57,801.61
			h1.19l12.76,0c6.95-0.27,11.2-3.53,12.3-9.43c0.47-2.57-0.08-5.08-1.51-6.91c-1.27-1.62-3.14-2.57-5.27-2.69
			c-1.8-0.1-3.75-0.15-6.11-0.15c-1.51,0-3.03,0.02-4.57,0.04c-1.54,0.02-3.1,0.04-4.67,0.04h-0.84l-0.14,0.83
			c-0.83,4.82-1.61,9.38-2.43,14.15l-0.51,2.95L593.57,801.61 M605.51,774.58c-5.06,0-10.19,0.09-15.48,0.09
			c-2.1,12.02-4.18,23.93-6.34,36.22c-0.75,4.29-1.43,8.19-2.16,12.27c3.43,0,6.24,0,9.15,0c0.87-4.68,1.71-9.2,2.63-14.17
			c3.16,0,6.28,0.04,9.37,0.04c1.83,0,3.65-0.02,5.47-0.06c9.63-0.26,17.53-6.78,19.69-16.09c2.24-9.66-3.25-17.78-12.68-18.14
			C611.95,774.62,608.74,774.58,605.51,774.58L605.51,774.58z M594.76,800.61c1.01-5.88,1.94-11.3,2.94-17.1
			c3.13,0,6.19-0.08,9.24-0.08c2.03,0,4.04,0.03,6.05,0.15c4.2,0.24,6.65,4.08,5.85,8.42c-1.01,5.41-4.89,8.36-11.36,8.61
			C602.79,800.61,598.93,800.61,594.76,800.61L594.76,800.61z"/>
	</g>
	<g>
		<path class="st6" d="M540.56,825.7c-3.08,0-6.09-0.55-8.68-1.6c-5.59-2.25-8.66-6.34-9.13-12.15c-0.21-2.56-0.09-5.37,0.37-8.84
			c0.4-2.92,0.94-5.8,1.51-8.86c0.29-1.55,0.58-3.13,0.87-4.76c0.59-3.19,1.16-6.2,1.71-9.1l0.65-3.43h8.02
			c-0.44,2.56-0.88,5.1-1.31,7.62c-1.14,6.71-2.22,13.04-3.45,19.48c-0.85,4.42-0.19,8.1,1.9,10.62c1.88,2.27,4.86,3.52,8.4,3.52
			c1.64,0,3.34-0.26,5.05-0.78c5.39-1.63,8.68-5.82,10.06-12.8c0.78-3.94,1.47-7.97,2.14-11.87c0.28-1.65,0.57-3.31,0.86-4.96
			l1.92-10.85h7.85c-0.01,0.18-0.01,0.35-0.01,0.53c-0.02,0.74-0.03,1.51-0.16,2.22l-0.29,1.7c-1.25,7.27-2.54,14.79-3.95,22.16
			c-0.59,3.08-1.28,5.52-2.17,7.65C558.9,820.28,550.62,825.7,540.56,825.7z"/>
		<path d="M568.78,777.44c0,0.01,0,0.02,0,0.02c-0.02,0.72-0.03,1.47-0.15,2.15l-0.29,1.68c-1.25,7.28-2.55,14.8-3.95,22.18
			c-0.58,3.05-1.26,5.45-2.14,7.55c-3.74,8.88-11.85,14.18-21.69,14.18c-3.02,0-5.96-0.54-8.49-1.56c-5.4-2.17-8.36-6.12-8.82-11.72
			c-0.21-2.53-0.09-5.31,0.36-8.73c0.4-2.91,0.94-5.79,1.5-8.84c0.29-1.55,0.58-3.14,0.87-4.76c0.6-3.21,1.17-6.24,1.72-9.16
			l0.56-2.96h7.01c-0.41,2.36-0.81,4.7-1.2,7.03c-1.14,6.71-2.22,13.04-3.45,19.47c-0.88,4.58-0.18,8.39,2,11.04
			c1.97,2.39,5.09,3.7,8.78,3.7c1.69,0,3.43-0.27,5.19-0.8c5.59-1.69,8.99-6,10.4-13.18c0.78-3.94,1.47-7.97,2.14-11.86
			c0.29-1.66,0.57-3.32,0.86-4.98c0.6-3.41,1.21-6.83,1.84-10.43H568.78 M569.82,776.44L569.82,776.44L569.82,776.44z
			 M569.82,776.44c-3.14,0-5.92,0-8.79,0c-0.69,3.91-1.34,7.59-1.99,11.26c-0.99,5.61-1.9,11.24-3,16.82
			c-1.13,5.74-3.72,10.61-9.71,12.42c-1.67,0.5-3.33,0.76-4.91,0.76c-6.49,0-11.57-4.34-9.8-13.55c1.74-9.1,3.22-18.25,4.86-27.69
			c-3.03,0-5.82,0-9.03,0c-0.77,4.08-1.58,8.32-2.44,12.94c-0.84,4.81-1.77,9.21-2.38,13.64c-0.39,2.95-0.61,5.99-0.37,8.95
			c0.49,6.07,3.8,10.3,9.44,12.57c2.61,1.05,5.67,1.63,8.87,1.63c8.59,0,18.15-4.2,22.61-14.79c1.03-2.46,1.7-5.12,2.2-7.75
			c1.51-7.94,2.87-15.91,4.24-23.87C569.81,778.68,569.76,777.52,569.82,776.44L569.82,776.44z"/>
	</g>
	<g>
		<path class="st6" d="M777.65,825.75c-1.87,0-3.79-0.18-5.72-0.53c-10.95-1.99-16.89-9.83-15.89-20.97
			c0.74-8.37,4.02-15.21,10.01-20.92c6.08-5.13,12.45-7.63,19.44-7.63c2.16,0,4.4,0.25,6.66,0.74c3.97,0.86,6.79,2.64,9.94,6.3
			c-2.02,1.69-4.05,3.39-6.05,5.06c-4.14-2.88-8.25-4.34-12.21-4.34c-3.35,0-6.65,1.04-9.8,3.1c-7.31,4.78-10.56,12.02-9.4,20.95
			c0.6,4.67,3.37,7.96,8,9.49c2.02,0.67,4.08,1.01,6.13,1.01c2.87,0,5.77-0.67,8.64-1.98c1.12-0.52,2.2-1.15,3.34-1.81
			c0.42-0.25,0.86-0.5,1.31-0.76c1.38,1.63,2.8,3.33,4.42,5.24c-0.18,0.16-0.36,0.32-0.53,0.48c-0.57,0.52-1.12,1.02-1.71,1.41
			C789.05,824.01,783.48,825.75,777.65,825.75z"/>
		<path d="M785.48,776.19L785.48,776.19c2.12,0,4.33,0.25,6.55,0.73c3.71,0.81,6.39,2.45,9.33,5.76c-1.79,1.5-3.59,3-5.37,4.49
			c-4.12-2.8-8.21-4.22-12.18-4.22c-3.45,0-6.84,1.07-10.07,3.19c-7.48,4.89-10.81,12.3-9.62,21.43c0.62,4.81,3.58,8.33,8.34,9.9
			c2.07,0.69,4.19,1.04,6.29,1.04c2.94,0,5.91-0.68,8.84-2.03c1.15-0.53,2.23-1.16,3.39-1.84c0.31-0.18,0.62-0.36,0.95-0.55
			c1.2,1.43,2.45,2.91,3.83,4.55c-0.06,0.05-0.12,0.11-0.17,0.16c-0.56,0.51-1.09,0.99-1.65,1.36c-5.08,3.38-10.57,5.09-16.3,5.09
			c-1.84,0-3.73-0.18-5.63-0.52c-10.67-1.94-16.46-9.58-15.48-20.44c0.73-8.23,3.95-14.96,9.83-20.58
			C772.37,778.65,778.62,776.19,785.48,776.19 M785.48,775.19c-7.17,0-13.72,2.66-19.78,7.77c-6.24,5.95-9.43,13.01-10.16,21.24
			c-1.02,11.35,5.08,19.47,16.3,21.51c1.97,0.36,3.91,0.54,5.81,0.54c5.98,0,11.6-1.77,16.85-5.26c0.92-0.61,1.7-1.43,2.66-2.25
			c-1.85-2.19-3.45-4.09-5-5.93c-1.87,1.05-3.37,2.02-4.98,2.76c-2.76,1.27-5.57,1.94-8.43,1.94c-1.97,0-3.97-0.32-5.97-0.99
			c-4.38-1.45-7.08-4.57-7.66-9.08c-1.12-8.62,1.83-15.67,9.18-20.47c3.1-2.03,6.28-3.02,9.53-3.02c3.99,0,8.08,1.51,12.23,4.47
			c2.22-1.86,4.48-3.75,6.73-5.63c-3.32-3.96-6.27-5.92-10.54-6.85C789.93,775.44,787.67,775.19,785.48,775.19L785.48,775.19z"/>
	</g>
	<g>
		<path class="st6" d="M942.88,824.21l6.96-40.05h-15.32l1.16-7.26h39.12l-1.18,7.14c-1,0-1.99-0.01-2.97-0.01
			c-1.08-0.01-2.15-0.01-3.21-0.01c-1.88,0-3.41,0.02-4.81,0.07c-1.33,0.06-2.71,0.45-4.47,1.28l-0.23,0.11
			c0,0-5.41,30.42-6.89,38.74H942.88z"/>
		<path d="M974.22,777.4l-0.39,2.38c-0.2,1.22-0.4,2.45-0.62,3.76c-0.86,0-1.71-0.01-2.54-0.01c-1.09-0.01-2.16-0.01-3.22-0.01
			c-1.88,0-3.42,0.02-4.83,0.07c-1.39,0.06-2.83,0.47-4.65,1.32l-0.47,0.22l-0.09,0.51l-2.34,13.17
			c-1.49,8.36-2.95,16.61-4.43,24.91h-7.15c1.01-5.8,2.01-11.56,3.01-17.35c1.24-7.12,2.48-14.27,3.74-21.53l0.2-1.17h-1.19h-14.14
			l0.52-3.24l0.48-3.02H974.22 M975.39,776.4L975.39,776.4L975.39,776.4z M975.39,776.4c-13.7,0-26.82,0-40.14,0
			c-0.44,2.76-0.85,5.31-1.32,8.26c5.35,0,10.09,0,15.31,0c-2.36,13.55-4.64,26.72-6.96,40.05c3.26,0,6.06,0,9.18,0
			c2.3-12.9,4.57-25.69,6.92-38.9c1.47-0.69,2.86-1.17,4.27-1.23c1.59-0.05,3.18-0.07,4.79-0.07c2.15,0,4.34,0.03,6.61,0.03
			C974.53,781.61,974.95,779.08,975.39,776.4L975.39,776.4z"/>
	</g>
	<g>
		<path class="st8" d="M373.96,800.2c-6.5-0.32-12.77-0.63-18.98-0.95c2.31-0.1,4.61-0.2,6.92-0.3c6.71-0.29,13.42-0.59,20.14-0.89
			c10.5-0.47,21-0.95,31.5-1.44c11.01-0.5,22.02-1.01,33.04-1.5c0.53-0.02,1.06-0.03,1.61-0.03c0.44,0,2.07,0.02,2.44,0.02
			c-0.81,2.92-1.54,5.52-2.4,8.58L373.96,800.2z"/>
		<path d="M448.18,795.59c0.44,0,0.89,0,1.37,0.01c0.14,0,0.27,0,0.41,0c-0.71,2.55-1.36,4.89-2.11,7.57
			c-12.26-0.57-24.51-1.15-36.82-1.73c-12.28-0.58-24.61-1.16-37.04-1.74c-2.83-0.14-5.62-0.28-8.38-0.41
			c5.48-0.24,10.96-0.48,16.45-0.73c10.69-0.48,21.37-0.97,32.06-1.46c10.83-0.5,21.65-0.99,32.48-1.48
			C447.05,795.6,447.56,795.59,448.18,795.59 M448.18,794.59c-0.56,0-1.1,0.01-1.63,0.03c-21.52,0.97-43.03,1.97-64.54,2.94
			c-11.26,0.51-22.52,0.99-33.78,1.49c0.01,0.12,0.01,0.24,0.02,0.36c8.42,0.43,16.84,0.86,25.69,1.29
			c25.17,1.18,49.91,2.35,74.66,3.51c0.97-3.45,1.76-6.29,2.68-9.6C450.11,794.61,449.11,794.59,448.18,794.59L448.18,794.59z"/>
	</g>
	<g>
		<path class="st0" d="M1180.75,628.26c-1.65,0-3.11-0.23-4.58-0.73c-15.95-5.41-33.03-10.06-53.75-14.64
			c-18.82-4.16-39.04-7.11-61.79-9.03c-5.42-0.29-10.76-0.58-16.05-0.87c-13.76-0.75-26.75-1.46-40.01-2
			c-12.18-0.48-24.57-0.87-36.55-1.24c-14.06-0.44-28.61-0.89-42.9-1.5c-21.1-0.9-42.13-2.23-61.87-3.51
			c-6.33-0.41-12.23-1.94-17.55-4.53c-4.38-2.13-9.5-5.43-10.19-12.08c-0.6-5.78,1.69-10.75,6.79-14.75
			c0.88-0.7,1.84-1.03,2.93-1.03c1.11,0,2.37,0.37,3.74,1.09c2.89,1.54,5.8,3.21,8.61,4.83l2.33,1.33
			c7.81,4.47,14.52,7.34,21.11,9.02c2.58,0.66,6,1.42,9.55,1.42c2.39,0,4.62-0.33,6.8-1.01l0.55-0.17l-0.25-0.52
			c-0.09-0.19-0.15-0.37-0.21-0.53c-0.13-0.37-0.26-0.72-0.59-0.92c-4.62-2.83-9.22-5.69-13.83-8.55
			c-11.37-7.06-23.12-14.35-34.92-21.1c-18.45-10.55-38.35-15.88-55.38-19.7c-22.17-4.96-44.52-7.48-66.44-7.48
			c-4.51,0-9.08,0.11-13.57,0.32c-17.23,0.8-36.01,2.34-59.11,4.83c-26.12,2.81-52.09,7.79-77.2,14.79
			c-16.9,4.71-38.9,11.65-59.18,23.63c-2.55,1.5-4.95,3.12-7.5,4.83c-1.15,0.77-2.31,1.55-3.49,2.32l-0.3,0.19l0.09,0.35
			c1.37,5.43,4.35,9.74,9.39,13.54c5.33,4.02,10.79,6.24,16.68,6.8c5.81,0.54,11.61,1.12,17.41,1.69c9.09,0.9,18.5,1.83,27.75,2.62
			c21.56,1.84,43.42,3.59,64.95,5.19c9.49,0.7,19.14,1.29,28.48,1.86c5.6,0.34,11.2,0.68,16.8,1.05c8.38,0.55,16.75,1.12,25.12,1.69
			c5.97,0.41,11.94,0.82,17.91,1.22c13.78,0.92,26.39,1.74,38.55,2.51c16.84,1.07,33.68,2.11,50.52,3.15l1.03,0.06
			c9.08,0.56,18.17,1.11,27.25,1.66c8.71,0.53,17.41,1.06,26.12,1.59c3.05,0.19,6.1,0.41,9.15,0.63l2.58,0.19
			c0,0.11,0.01,0.22,0.01,0.33c-0.24,0.03-0.47,0.06-0.71,0.1c-0.8,0.11-1.56,0.22-2.33,0.22c-2.25,0.01-4.5,0.01-6.75,0.01
			l-11.34-0.01c-2.81,0-5.62,0-8.43,0.02c-27.65,0.11-55.29,0.22-82.93,0.34c-48.02,0.2-96.04,0.4-144.07,0.57
			c-8.47,0.03-16.93,0.05-25.4,0.05c-12.08,0-22.89-0.04-33.04-0.13c-25.9-0.23-47.45-0.55-67.83-1.01
			c-18.69-0.41-34.23-0.99-48.9-1.82c-20.08-1.14-39.76-3.09-58.5-5.8c-17.8-2.57-31.91-5.9-44.39-10.47
			c-4.67-1.7-9.19-4.11-13.56-6.44c-1.1-0.58-2.2-1.17-3.3-1.75c-1.8-0.93-3.4-2.36-4.88-3.73c-2.91-2.71-4.42-5.63-4.47-8.7
			c-0.06-3.19,1.44-6.38,4.46-9.51c4.47,4.01,9.88,6.6,16.09,7.71c4.54,0.82,9.26,1.21,14.42,1.21c3,0,6.08-0.13,9.44-0.41
			c29.23-2.37,57.35-10.7,81.41-18.31c41.23-13.05,83.94-23.94,126.93-32.39c17.04-3.35,39.47-7.58,61.92-10.65
			c26.55-3.63,50.22-5.91,72.38-6.98c5.15-0.25,10.38-0.37,15.54-0.37c14.52,0,29.32,1,43.98,2.96
			c28.98,3.89,57.78,12.88,85.62,26.74c7.53,3.75,15.1,7.77,22.41,11.67c6.6,3.51,13.42,7.14,20.21,10.56
			c19.95,10.06,38.05,17.01,55.35,21.26c13.86,3.41,29.1,5.78,47.96,7.46c12.22,1.09,24.66,2.05,36.68,2.98
			c7.78,0.6,15.56,1.2,23.33,1.83c29.51,2.42,55.89,7.76,80.65,16.31c14.28,4.94,27.41,10.63,40.1,17.4
			C1182.66,628.19,1181.67,628.26,1180.75,628.26z"/>
		<path d="M727.48,509.36c14.5,0,29.27,0.99,43.92,2.95c28.92,3.88,57.68,12.86,85.47,26.69c7.53,3.75,15.09,7.77,22.39,11.66
			c6.6,3.51,13.43,7.15,20.22,10.57c19.98,10.07,38.12,17.04,55.45,21.3c13.88,3.41,29.15,5.79,48.04,7.47
			c12.24,1.1,24.69,2.05,36.73,2.98c7.63,0.59,15.53,1.19,23.29,1.83c29.47,2.42,55.81,7.74,80.53,16.29
			c13.71,4.74,26.36,10.18,38.58,16.6c-0.47,0.03-0.91,0.05-1.34,0.05c-1.59,0-3-0.22-4.42-0.71
			c-15.97-5.42-33.07-10.07-53.81-14.66c-18.84-4.16-39.08-7.12-61.89-9.04c-5.4-0.28-10.74-0.58-16.03-0.86
			c-13.76-0.75-26.76-1.46-40.03-2c-12.19-0.48-24.58-0.87-36.56-1.24c-14.06-0.44-28.6-0.89-42.89-1.5
			c-21.11-0.9-42.13-2.23-61.86-3.51c-6.26-0.41-12.11-1.92-17.37-4.48c-6.42-3.12-9.38-6.61-9.91-11.68
			c-0.58-5.6,1.64-10.41,6.6-14.31c0.79-0.62,1.65-0.93,2.62-0.93c1.03,0,2.2,0.35,3.5,1.03c2.89,1.54,5.79,3.21,8.59,4.82
			c0.78,0.45,1.55,0.89,2.33,1.34c7.85,4.5,14.6,7.38,21.24,9.07c2.61,0.67,6.07,1.44,9.68,1.44c2.44,0,4.72-0.34,6.95-1.03
			l1.1-0.34l-0.49-1.04c-0.08-0.17-0.14-0.34-0.19-0.48c-0.15-0.42-0.32-0.89-0.79-1.17c-4.63-2.83-9.31-5.74-13.85-8.56
			c-11.37-7.06-23.12-14.35-34.93-21.11c-18.51-10.59-38.45-15.93-55.52-19.76c-22.2-4.97-44.59-7.49-66.55-7.49
			c-4.52,0-9.09,0.11-13.6,0.32c-17.24,0.8-36.04,2.34-59.14,4.83c-26.14,2.82-52.15,7.8-77.28,14.8
			c-16.93,4.71-38.97,11.67-59.3,23.68c-2.56,1.51-5.08,3.21-7.52,4.84c-1.15,0.77-2.31,1.55-3.48,2.32l-0.6,0.39l0.17,0.69
			c1.4,5.55,4.44,9.94,9.58,13.81c5.4,4.08,10.94,6.33,16.94,6.9c5.8,0.54,11.7,1.13,17.4,1.69c9.1,0.9,18.5,1.83,27.76,2.62
			c21.51,1.84,43.36,3.59,64.95,5.19c9.47,0.7,19.11,1.29,28.42,1.86c5.53,0.34,11.24,0.68,16.86,1.05c8.4,0.55,16.94,1.13,25.2,1.7
			c5.94,0.41,11.88,0.81,17.83,1.21c13.84,0.93,26.45,1.75,38.55,2.51c16.84,1.07,33.97,2.13,50.53,3.15l1.02,0.06
			c8.9,0.55,17.79,1.09,26.69,1.63c8.89,0.54,17.79,1.08,26.68,1.62c2.33,0.14,4.7,0.31,7.03,0.48c-1.71,0-3.43,0.01-5.14,0.01
			l-5.62,0l-5.63,0c-2.81,0-5.61,0-8.42,0.02c-27.52,0.11-55.05,0.22-82.57,0.34c-47.34,0.2-96.29,0.4-144.43,0.57
			c-9.77,0.04-17.85,0.05-25.42,0.05c-12.07,0-22.87-0.04-33.01-0.13c-25.88-0.23-47.43-0.55-67.83-1.01
			c-18.68-0.41-34.22-0.99-48.89-1.82c-20.07-1.14-39.74-3.09-58.45-5.79c-17.77-2.57-31.84-5.89-44.29-10.45
			c-4.63-1.69-9.14-4.09-13.49-6.41c-1.1-0.59-2.2-1.17-3.31-1.75c-1.74-0.9-3.31-2.3-4.77-3.65c-2.81-2.61-4.26-5.42-4.31-8.34
			c-0.05-2.93,1.29-5.89,3.99-8.81c4.47,3.89,9.84,6.41,15.97,7.51c4.57,0.82,9.32,1.22,14.51,1.22c3.01,0,6.11-0.13,9.47-0.41
			c29.29-2.38,57.44-10.71,81.52-18.33c41.22-13.04,83.9-23.93,126.87-32.37c17.03-3.35,39.46-7.58,61.89-10.64
			c26.54-3.62,50.2-5.9,72.33-6.97C717.11,509.49,722.33,509.36,727.48,509.36 M727.48,508.36c-5.18,0-10.37,0.12-15.56,0.37
			c-24.26,1.17-48.4,3.7-72.42,6.98c-20.75,2.83-41.39,6.61-61.95,10.65c-42.92,8.43-85.26,19.2-126.98,32.4
			c-26.57,8.41-53.34,16.02-81.3,18.29c-3.14,0.26-6.27,0.41-9.39,0.41c-4.8,0-9.58-0.35-14.34-1.21
			c-6.11-1.09-11.62-3.68-16.2-7.91c-6.5,6.49-6.57,13.45-0.31,19.27c1.53,1.42,3.16,2.86,4.99,3.81c5.56,2.9,11.06,6.07,16.92,8.21
			c14.38,5.27,29.33,8.31,44.49,10.5c19.44,2.81,38.96,4.69,58.54,5.8c16.29,0.92,32.61,1.46,48.92,1.82
			c22.61,0.51,45.23,0.81,67.84,1.01c11.01,0.1,22.01,0.13,33.02,0.13c8.47,0,16.95-0.02,25.42-0.05
			c75.67-0.27,151.33-0.61,227-0.91c2.8-0.01,5.61-0.02,8.42-0.02c3.75,0,7.5,0.01,11.25,0.01c2.29,0,4.57,0,6.86-0.01
			c1.19,0,2.37-0.25,3.56-0.38c-0.02-0.41-0.04-0.83-0.05-1.24c-4.06-0.29-8.13-0.6-12.19-0.85c-17.79-1.09-35.58-2.16-53.37-3.25
			c-17.18-1.06-34.37-2.12-51.55-3.21c-12.85-0.81-25.7-1.65-38.55-2.51c-14.34-0.96-28.68-1.97-43.03-2.91
			c-15.09-0.99-30.19-1.79-45.27-2.91c-21.66-1.61-43.31-3.34-64.94-5.19c-15.06-1.29-30.1-2.9-45.16-4.31
			c-6.17-0.58-11.58-3.04-16.43-6.7c-4.35-3.28-7.73-7.38-9.21-13.26c3.73-2.44,7.26-4.95,10.97-7.14
			c18.46-10.91,38.52-17.86,59.06-23.58c25.3-7.05,51.04-11.96,77.12-14.77c19.64-2.12,39.36-3.91,59.08-4.83
			c4.52-0.21,9.04-0.32,13.55-0.32c22.31,0,44.44,2.57,66.33,7.47c19.21,4.31,38.07,9.83,55.24,19.65
			c16.5,9.44,32.53,19.71,48.75,29.65c0.27,0.16,0.33,0.66,0.6,1.23c-2.26,0.7-4.47,0.99-6.65,0.99c-3.19,0-6.32-0.61-9.43-1.41
			c-7.46-1.9-14.34-5.16-20.99-8.97c-3.64-2.08-7.26-4.2-10.95-6.17c-1.28-0.68-2.63-1.15-3.97-1.15c-1.11,0-2.21,0.33-3.24,1.14
			c-4.89,3.84-7.64,8.84-6.98,15.2c0.67,6.43,5.18,9.91,10.47,12.48c5.58,2.72,11.61,4.18,17.74,4.58
			c20.62,1.34,41.24,2.63,61.88,3.51c26.48,1.12,52.98,1.7,79.46,2.74c18.44,0.74,36.82,1.85,56.04,2.86
			c20.76,1.75,41.36,4.52,61.73,9.02c18.14,4.01,36.1,8.66,53.7,14.63c1.55,0.52,3.07,0.76,4.74,0.76c1.39,0,2.88-0.16,4.58-0.46
			c-13.88-7.5-27.49-13.3-41.49-18.14c-26.18-9.05-53.21-14.08-80.77-16.34c-20-1.64-40.02-3.02-60.01-4.81
			c-16.11-1.44-32.14-3.58-47.89-7.45c-19.3-4.74-37.55-12.3-55.24-21.22c-14.3-7.21-28.28-15.09-42.62-22.23
			c-27.14-13.51-55.66-22.75-85.78-26.79C756.89,509.36,742.22,508.36,727.48,508.36L727.48,508.36z"/>
	</g>
	<g>
		<path class="st2" d="M1180.78,629.28c-1.76,0-3.32-0.25-4.89-0.78c-15.91-5.4-32.96-10.04-53.65-14.62
			c-18.83-4.17-39.15-7.14-62.11-9.07c-5.51-0.28-11-0.58-16.47-0.88c-12.84-0.69-26.11-1.41-39.1-1.92
			c-12.18-0.48-24.57-0.87-36.55-1.24c-14.07-0.44-28.61-0.89-42.92-1.5c-20.7-0.87-41.09-2.16-61.89-3.51
			c-6.46-0.42-12.49-1.98-17.93-4.63c-4.61-2.25-10-5.75-10.75-12.88c-0.64-6.14,1.77-11.4,7.17-15.64
			c1.06-0.83,2.25-1.25,3.55-1.25c1.29,0,2.66,0.4,4.2,1.21c3.25,1.73,6.49,3.6,9.62,5.41l1.34,0.77
			c7.72,4.42,14.35,7.26,20.86,8.92c2.54,0.64,5.89,1.38,9.32,1.38c2.09,0,4.05-0.26,5.97-0.8c-0.01-0.03-0.02-0.05-0.03-0.08
			c-0.06-0.15-0.13-0.37-0.18-0.42c-4.73-2.89-9.47-5.83-14.2-8.77c-11.24-6.97-22.85-14.18-34.51-20.86
			c-18.34-10.49-38.15-15.79-55.1-19.6c-22.06-4.95-44.33-7.46-66.19-7.46c-4.5,0-9.06,0.11-13.56,0.32
			c-17.2,0.8-35.97,2.34-59.05,4.83c-26.06,2.81-51.98,7.77-77.04,14.75c-16.81,4.68-38.71,11.59-58.94,23.53
			c-2.53,1.49-4.92,3.1-7.46,4.8c-1.05,0.71-2.12,1.42-3.19,2.13c1.35,5.04,4.19,9.06,8.94,12.64c5.18,3.92,10.47,6.07,16.18,6.6
			c5.77,0.54,11.53,1.11,17.3,1.68c9.13,0.9,18.56,1.83,27.86,2.63c21.46,1.83,43.3,3.58,64.94,5.19c9.46,0.7,19.08,1.29,28.39,1.86
			c5.62,0.34,11.25,0.68,16.87,1.05c7.65,0.5,15.29,1.03,22.94,1.55c6.69,0.46,13.39,0.92,20.09,1.36
			c12.85,0.86,25.7,1.69,38.55,2.51c17.18,1.09,34.36,2.15,51.55,3.21c8.87,0.54,17.74,1.08,26.61,1.62
			c8.92,0.54,17.84,1.08,26.76,1.63c2.58,0.16,5.16,0.34,7.73,0.53c1.49,0.11,2.98,0.21,4.46,0.32l0.44,0.03l0.02,0.45
			c0.02,0.46,0.04,0.86,0.05,1.25l0.01,0.46l-0.46,0.05c-0.38,0.04-0.76,0.09-1.14,0.15c-0.8,0.11-1.63,0.23-2.47,0.23
			c-2.78,0.01-5.55,0.01-8.32,0.01l-9.88,0c-2.77,0-5.55,0-8.32,0.01c-28.62,0.11-57.24,0.23-85.86,0.35
			c-47.05,0.19-94.09,0.39-141.14,0.56c-8.48,0.03-16.97,0.05-25.45,0.05c-12.09,0-22.88-0.04-33-0.13
			c-26.53-0.23-48.09-0.56-67.85-1.01c-19.02-0.43-34.57-1.01-48.94-1.82c-20.02-1.13-39.73-3.09-58.58-5.8
			c-17.83-2.58-32-5.92-44.59-10.53c-4.69-1.72-9.2-4.12-13.57-6.44c-1.14-0.6-2.27-1.21-3.41-1.8c-1.91-0.99-3.56-2.46-5.1-3.89
			c-3.12-2.9-4.73-6.06-4.79-9.41c-0.06-3.58,1.65-7.14,5.09-10.58l0.34-0.34l0.35,0.33c4.4,4.06,9.76,6.68,15.95,7.78
			c4.49,0.8,9.16,1.19,14.28,1.19c2.96,0,6.01-0.13,9.32-0.4c29.08-2.37,57.15-10.67,81.19-18.27
			c41.27-13.06,84.01-23.96,127.03-32.41c17.05-3.35,39.51-7.59,61.98-10.65c26.59-3.63,50.29-5.91,72.46-6.98
			c5.19-0.25,10.45-0.38,15.64-0.38c14.58,0,29.4,1,44.06,2.97c29.09,3.9,58,12.93,85.94,26.84c7.57,3.77,15.16,7.81,22.51,11.72
			c6.57,3.49,13.36,7.11,20.12,10.52c20.16,10.17,37.68,16.9,55.13,21.18c13.79,3.39,28.98,5.75,47.82,7.44
			c12.23,1.1,24.68,2.05,36.72,2.98c7.76,0.6,15.52,1.19,23.28,1.83c29.64,2.44,56.1,7.79,80.89,16.37
			c14.82,5.12,28.41,11.07,41.56,18.17l1.27,0.69l-1.42,0.25C1183.62,629.13,1182.14,629.28,1180.78,629.28z"/>
		<path d="M727.57,508.38c14.72,0,29.37,1,44,2.97c30.11,4.04,58.64,13.28,85.78,26.79c14.34,7.14,28.31,15.01,42.62,22.23
			c17.69,8.92,35.93,16.48,55.24,21.22c15.74,3.87,31.78,6.01,47.89,7.45c19.99,1.79,40.01,3.17,60.01,4.81
			c27.56,2.27,54.59,7.29,80.77,16.34c14,4.84,27.61,10.64,41.49,18.14c-1.7,0.29-3.19,0.45-4.59,0.45c-1.67,0-3.19-0.23-4.73-0.75
			c-17.6-5.97-35.56-10.62-53.7-14.63c-20.4-4.52-41.01-7.3-62.18-9.08c-18.8-0.97-37.19-2.08-55.59-2.8
			c-26.48-1.04-52.98-1.62-79.46-2.74c-20.64-0.87-41.27-2.17-61.88-3.51c-6.13-0.4-12.16-1.86-17.74-4.58
			c-5.29-2.58-9.8-6.05-10.47-12.48c-0.66-6.36,2.1-11.36,6.98-15.2c1.04-0.81,2.13-1.14,3.25-1.14c1.34,0,2.69,0.47,3.96,1.15
			c3.7,1.97,7.32,4.08,10.95,6.17c6.65,3.81,13.54,7.07,20.99,8.97c3.12,0.79,6.25,1.4,9.44,1.4c2.18,0,4.38-0.28,6.64-0.98
			c-0.27-0.57-0.34-1.07-0.6-1.23c-16.22-9.93-32.25-20.21-48.75-29.65c-17.17-9.82-36.03-15.34-55.24-19.65
			c-21.87-4.91-44.01-7.47-66.3-7.47c-4.52,0-9.04,0.11-13.58,0.32c-19.73,0.92-39.44,2.71-59.08,4.83
			c-26.08,2.81-51.82,7.72-77.12,14.77c-20.54,5.72-40.59,12.68-59.06,23.58c-3.71,2.19-7.24,4.7-10.97,7.14
			c1.48,5.88,4.86,9.98,9.21,13.26c4.84,3.66,10.26,6.13,16.43,6.7c15.05,1.41,30.09,3.02,45.16,4.31
			c21.64,1.85,43.29,3.58,64.94,5.19c15.08,1.12,30.18,1.92,45.27,2.91c14.34,0.94,28.68,1.96,43.03,2.91
			c12.85,0.86,25.7,1.69,38.55,2.51c17.18,1.09,34.36,2.15,51.55,3.21c17.79,1.09,35.58,2.16,53.37,3.25
			c4.07,0.25,8.13,0.57,12.19,0.85c0.02,0.41,0.04,0.83,0.05,1.24c-1.19,0.13-2.37,0.37-3.56,0.38c-2.75,0.01-5.5,0.01-8.25,0.01
			c-3.35,0-6.69,0-10.04,0c-2.74,0-5.49,0-8.23,0.01c-75.67,0.3-151.33,0.63-227,0.91c-8.48,0.03-16.95,0.05-25.43,0.05
			c-11,0-22.01-0.04-33.01-0.13c-22.62-0.2-45.23-0.49-67.84-1.01c-16.31-0.37-32.63-0.9-48.92-1.82c-19.59-1.11-39.11-3-58.54-5.8
			c-15.16-2.19-30.11-5.24-44.49-10.5c-5.86-2.15-11.36-5.32-16.92-8.21c-1.83-0.95-3.46-2.39-4.99-3.81
			c-6.26-5.82-6.19-12.77,0.31-19.27c4.58,4.23,10.09,6.82,16.2,7.91c4.76,0.85,9.56,1.2,14.36,1.2c3.12,0,6.24-0.15,9.37-0.4
			c27.96-2.28,54.72-9.89,81.3-18.29c41.72-13.2,84.06-23.97,126.98-32.4c20.56-4.04,41.2-7.82,61.95-10.65
			c24.02-3.28,48.16-5.81,72.42-6.98C717.17,508.51,722.38,508.38,727.57,508.38 M727.57,507.38c-5.2,0-10.47,0.13-15.66,0.38
			c-22.19,1.07-45.91,3.36-72.51,6.99c-22.48,3.07-44.95,7.31-62.01,10.66c-43.04,8.45-85.8,19.36-127.09,32.43
			c-24.01,7.59-52.05,15.88-81.08,18.25c-3.3,0.27-6.34,0.4-9.29,0.4c-5.08,0-9.73-0.39-14.19-1.18c-6.09-1.09-11.37-3.66-15.7-7.66
			l-0.71-0.65l-0.68,0.68c-3.54,3.54-5.3,7.22-5.23,10.95c0.06,3.49,1.73,6.77,4.95,9.76c1.56,1.45,3.25,2.95,5.21,3.97
			c1.13,0.59,2.27,1.19,3.4,1.79c4.38,2.33,8.91,4.73,13.63,6.47c12.62,4.62,26.82,7.97,44.69,10.55
			c18.87,2.72,38.6,4.67,58.63,5.81c14.35,0.81,29.91,1.39,48.95,1.82c19.77,0.45,41.33,0.78,67.85,1.01
			c10.13,0.09,20.93,0.13,33.02,0.13c7.58,0,15.66-0.02,25.43-0.05c47.3-0.18,94.59-0.37,141.89-0.56
			c28.37-0.12,56.74-0.23,85.12-0.35c2.74-0.01,5.48-0.01,8.23-0.01l5.02,0l5.02,0c2.75,0,5.5,0,8.25-0.01
			c0.87-0.01,1.72-0.13,2.54-0.24c0.38-0.05,0.75-0.11,1.13-0.15l0.91-0.1l-0.02-0.92c-0.01-0.42-0.03-0.85-0.05-1.26l-0.04-0.89
			l-0.89-0.06c-1.47-0.1-2.94-0.21-4.4-0.31c-2.55-0.18-5.19-0.38-7.79-0.54c-8.94-0.55-17.89-1.09-26.83-1.63
			c-8.85-0.54-17.69-1.07-26.54-1.62c-15.95-0.98-34.02-2.1-51.55-3.21c-15.55-0.99-27.44-1.77-38.55-2.51
			c-6.73-0.45-13.46-0.91-20.19-1.37c-7.49-0.51-15.23-1.04-22.85-1.54c-5.62-0.37-11.34-0.72-16.86-1.05
			c-9.31-0.57-18.94-1.15-28.4-1.86c-21.58-1.6-43.43-3.35-64.93-5.19c-9.29-0.79-18.72-1.73-27.84-2.63
			c-5.67-0.56-11.54-1.14-17.31-1.68c-5.61-0.52-10.82-2.65-15.92-6.5c-4.54-3.42-7.31-7.26-8.66-12.02
			c0.98-0.64,1.94-1.29,2.9-1.94c2.53-1.7,4.92-3.3,7.43-4.78c20.18-11.91,42.04-18.8,58.82-23.48
			c25.03-6.98,50.92-11.93,76.96-14.74c23.07-2.49,41.82-4.02,59.02-4.83c4.48-0.21,9.03-0.32,13.53-0.32
			c21.83,0,44.06,2.5,66.08,7.44c16.92,3.8,36.68,9.09,54.96,19.54c11.66,6.67,23.28,13.88,34.52,20.86
			c4.52,2.81,9.19,5.71,13.81,8.53c-1.65,0.4-3.33,0.6-5.12,0.6c-3.37,0-6.69-0.73-9.19-1.37c-6.47-1.65-13.06-4.47-20.74-8.87
			l-1.32-0.76c-3.14-1.81-6.39-3.68-9.66-5.42c-1.61-0.85-3.06-1.27-4.43-1.27c-1.42,0-2.72,0.46-3.86,1.35
			c-5.54,4.36-8.01,9.77-7.36,16.09c0.77,7.38,6.3,10.97,11.03,13.28c5.5,2.68,11.59,4.25,18.11,4.68
			c20.79,1.35,41.16,2.64,61.9,3.51c14.3,0.61,28.85,1.06,42.92,1.5c11.98,0.37,24.37,0.76,36.55,1.24
			c12.99,0.51,26.28,1.23,39.12,1.92c5.46,0.3,10.94,0.59,16.46,0.88c22.91,1.93,43.21,4.89,62.02,9.06
			c20.67,4.57,37.7,9.21,53.6,14.6c1.63,0.55,3.24,0.81,5.05,0.81c1.38,0,2.9-0.15,4.76-0.47l2.85-0.49l-2.54-1.38
			c-13.17-7.12-26.79-13.07-41.64-18.21c-24.84-8.59-51.34-13.95-81.01-16.39c-7.77-0.64-15.66-1.24-23.3-1.83
			c-12.03-0.93-24.48-1.88-36.7-2.98c-18.8-1.68-33.97-4.04-47.74-7.43c-17.42-4.28-34.9-10.99-55.03-21.14
			c-6.75-3.41-13.55-7.02-20.12-10.52c-7.34-3.91-14.93-7.94-22.5-11.71c-27.98-13.93-56.95-22.98-86.09-26.89
			C757.02,508.38,742.17,507.38,727.57,507.38L727.57,507.38z"/>
	</g>
</g>
</svg>
