<?xml version="1.0" encoding="utf-8"?>
<!-- Generator: Adobe Adobe Illustrator 24.2.0, SVG Export Plug-In . SVG Version: 6.00 Build 0)  -->
<svg version="1.1" id="Layer_1" xmlns="http://www.w3.org/2000/svg" xmlns:xlink="http://www.w3.org/1999/xlink" x="0px" y="0px"
	 viewBox="0 0 1920 1080" style="enable-background:new 0 0 1920 1080;" xml:space="preserve">
<style type="text/css">
	.st0{fill:#FFFFFF;}
	.st1{fill:#0A74BB;}
	.st2{fill:#0B75BC;}
	.st3{fill:#0C76BC;}
	.st4{fill:#ED222A;}
	.st5{fill:#0A0A0A;}
	.st6{fill:#0B0B0B;}
	.st7{fill:#080808;}
	.st8{fill:#101010;}
</style>
<g>
	<g>
		<path class="st0" d="M560.24,359.98c-0.87-1.74-2.5-1.37-3.95-1.39c-10.78-0.09-21.57-0.17-32.35-0.2
			c-4.73-0.02-4.69,0.04-5.97,4.73c-6.87,25.13-13.76,50.26-20.63,75.4c-0.49,1.8-0.87,3.63-1.34,5.58c8.97,0,17.29,0,25.76,0
			c5.75-20.4,10.95-40.71,16.82-60.83c0.35-0.01,0.7-0.02,1.05-0.04c10.31,20.38,20.62,40.76,30.85,60.97c13.6,0,26.75,0,40.28,0
			c7.8-28.45,15.57-56.81,23.46-85.59c-1.96-0.09-3.27-0.21-4.58-0.21c-5.54-0.02-11.09-0.02-16.63-0.01c-4.56,0.01-4.62,0-5.8,4.28
			c-4.63,16.75-9.21,33.5-13.84,50.25c-0.6,2.18-1.35,4.32-2.03,6.48c-0.32,0.01-0.64,0.02-0.96,0.03
			C580.45,399.8,570.52,380.18,560.24,359.98z"/>
		<path class="st0" d="M648.59,379.8c6.7,0,13.41,0,20.77,0c-5.93,21.72-11.7,42.88-17.57,64.35c9,0,17.33,0,25.9,0
			c5.9-21.47,11.77-42.79,17.7-64.39c12.29,0,24.23,0,36.37,0c1.96-7.17,3.83-14.02,5.84-21.4c-33.35,0.13-65.97-0.23-98.76,0.24
			c-1.96,7.14-3.81,13.9-5.81,21.2C638.18,379.8,642.93,379.8,648.59,379.8z"/>
		<path class="st0" d="M731.01,399.14c-2.06,7.51-4.21,15-6.17,22.53c-1.93,7.42-4.38,14.73-5.79,22.48c28.26,0,55.91,0,83.87,0
			c1.94-7.27,3.84-14.4,5.9-22.14c-19.66,0-38.59,0-58.08,0c2.98-10.94,5.81-21.31,8.65-31.69c2.87-10.48,5.74-20.95,8.65-31.56
			c-9,0-17.33,0-25.9,0C738.45,372.19,734.83,385.31,731.01,399.14z"/>
		<path class="st1" d="M937.84,376.35c-0.73-4.72-1.46-9.43-2.2-14.15c-0.2-1.3-0.41-2.6-0.66-4.25c11.48,0,22.62,0,34.26,0
			c2.59,19.93,5.15,39.62,7.82,60.15c1.16-1.28,1.87-1.9,2.37-2.65c11.97-17.95,23.97-35.89,35.82-53.92c1.82-2.76,3.67-4.11,7.2-4
			c9.56,0.29,19.14,0.1,29.33,0.1c-0.76,1.4-1.17,2.43-1.8,3.3c-16.1,22.38-32.24,44.74-48.35,67.11
			c-7.44,10.33-15.2,20.46-22.17,31.11c-7.91,12.09-19.15,17.1-33,17.57c-2.99,0.1-5.99,0.14-8.99,0.14
			c-185.94,0.01-371.89,0.01-557.83,0.01c-1.63,0-3.25,0-5.52,0c1.87-7.38,3.61-14.28,5.5-21.75c1.89,0,3.79,0,5.69,0
			c111.48,0,222.95,0,334.43,0c60.38,0,120.77,0.02,181.15-0.01c13.33-0.01,26.66-0.18,39.99-0.29c4.37-0.03,8.66-0.53,12.72-2.35
			c4.2-1.89,6.93-4.99,8.38-9.92c-3.67,0-7.03,0-10.83,0c-4.31-22.2-8.55-44.06-13.06-66.09
			C937.8,376.3,937.84,376.35,937.84,376.35z"/>
		<path class="st1" d="M293.03,482.07c-34.41,0-68.36,0-102.8,0c1.58-5.89,3.01-11.21,4.45-16.54c8.87-32.8,17.75-65.6,26.62-98.4
			c2.53-9.37,7.97-13.92,20.69-15.36c3.55-0.4,7.18-0.06,10.78-0.06c28.91,0,57.81-0.01,86.72,0.01c7.2,0.01,14.37,0.47,21.32,2.58
			c1.14,0.35,2.29,0.7,3.4,1.16c7.88,3.24,12.32,9.14,12.17,17.65c-0.21,11.8-3.79,22.7-10.86,32.24
			c-2.91,3.93-6.93,6.57-11.54,8.26c-1.66,0.61-3.31,1.23-5.99,2.23c2.62,0.8,4.25,1.24,5.84,1.78c6.05,2.07,10.27,6.01,10.47,12.63
			c0.46,15.59-3.94,29.61-14.99,40.99c-4.58,4.72-10.46,7.63-16.9,8.78c-6.01,1.07-12.15,1.68-18.25,1.98
			C307.27,482.33,300.37,482.07,293.03,482.07z M306.01,450.66c2.09-0.05,4.2,0.07,6.28-0.16c6.28-0.7,10.65-3.97,11.84-9.35
			c1.32-5.99,0.4-9.54-6.57-10.6c-1.32-0.2-2.67-0.35-4.01-0.35c-22.44-0.02-44.87-0.02-67.31,0c-1,0-2,0.24-3.15,0.39
			c-1.76,6.62-3.47,13.08-5.33,20.08C260.61,450.66,282.87,450.66,306.01,450.66z M287.18,382.88c-10.3,0-20.59,0-31.09,0
			c-1.86,6.92-3.59,13.33-5.4,20.06c1.64,0.14,2.66,0.29,3.68,0.3c21.57,0.01,43.13,0.01,64.7-0.02c1.34,0,2.69-0.15,4.02-0.33
			c4.72-0.63,7.9-3.2,9.75-7.59c3.36-7.94,0.67-12.18-7.91-12.24C312.64,382.97,300.36,382.94,287.18,382.88z"/>
		<path class="st2" d="M470.03,357.36c6.66,0.86,12.89,1.66,19.09,2.61c1.46,0.22,2.89,0.81,4.25,1.41
			c8.2,3.55,11.93,9.55,11.18,18.51c-0.32,3.86-0.99,7.72-1.94,11.48c-1.42,5.64-3.22,11.18-4.92,16.98c-28.15,0-55.99,0-83.93,0
			c-0.51,1.18-0.99,2.09-1.31,3.05c-2.72,8.32-0.73,12.12,7.99,13.04c10.12,1.08,20.35,1.39,30.46-0.29
			c7.81-1.3,8.59-2.08,12.58-8.85c10.41,0,20.87,0,31.61,0c-0.09,1.03-0.04,1.91-0.27,2.7c-3.76,12.8-12.5,20.38-25.08,24
			c-7.12,2.05-14.41,3-21.75,3.02c-13.32,0.03-26.66-0.01-39.97-0.62c-4.99-0.23-10.12-1.56-14.81-3.36
			c-11.93-4.57-17.47-13.94-15.55-26.64c1.82-12.05,5.43-23.67,11.48-34.35c7.14-12.62,18.2-19.64,32.4-21.63
			c5.47-0.77,11.03-1.08,16.56-1.16C448.61,357.11,459.1,357.3,470.03,357.36z M431,389.41c4.33,0,8.67,0,13,0s8.67,0.08,13-0.02
			c4.26-0.1,8.57,0.49,12.84-0.42c0.19-0.8,0.36-1.37,0.47-1.95c0.94-4.82-0.33-7.01-4.95-8.39c-1.14-0.34-2.33-0.64-3.5-0.67
			c-8.2-0.23-16.4-0.54-24.6-0.47c-3.24,0.03-6.55,0.68-9.68,1.56c-4.9,1.37-7.51,5.07-7.72,10.37
			C423.27,389.41,426.69,389.41,431,389.41z"/>
		<path class="st2" d="M936.31,378.41c-0.24,0.8-0.64,1.62-0.66,2.46c-0.31,10.22-4.27,19.5-7.01,29.41c-28.06,0-55.82,0-83.93,0
			c-0.68,2.03-1.41,3.8-1.87,5.64c-1.38,5.57,0.34,8.58,5.97,10c2.58,0.65,5.31,1.04,7.97,1.01c8.35-0.08,16.71-0.22,25.05-0.69
			c5.76-0.33,10.33-2.93,12.37-8.76c10.74,0,21.25,0,32.17,0c-2.87,11.91-9.33,20.2-20.44,24.71c-5.73,2.33-11.68,3.79-17.81,4.28
			c-16.27,1.3-32.55,1.39-48.82,0.1c-7.35-0.58-14.46-2.24-20.77-6.41c-6.07-4.01-9.42-9.71-9.68-16.85
			c-0.17-4.58,0.32-9.31,1.34-13.79c1.33-5.82,3.3-11.52,5.3-17.16c7.31-20.6,21.99-31.72,43.69-32.71
			c17.91-0.82,35.87-1.19,53.75,0.85c3.1,0.35,6.19,1.11,9.17,2.06c7.63,2.41,12.45,7.44,13.93,15.77
			C936.37,378.48,936.33,378.43,936.31,378.41z M851.26,388.04c-0.31,0.94-0.62,1.88-1.04,3.14c17.1,0,33.75,0,50.31,0
			c2.07-6.96,0.65-9.97-5.83-10.9c-11.28-1.61-22.61-1.69-33.91,0.22C856.46,381.23,853.36,383.41,851.26,388.04z"/>
		<path class="st2" d="M560.42,360.27c10.1,19.91,20.03,39.52,29.95,59.14c0.32-0.01,0.64-0.02,0.96-0.03
			c0.68-2.16,1.43-4.3,2.03-6.48c4.62-16.75,9.21-33.51,13.84-50.25c1.18-4.28,1.24-4.27,5.8-4.28c5.54-0.01,11.09-0.01,16.63,0.01
			c1.31,0,2.62,0.12,4.58,0.21c-7.89,28.78-15.66,57.15-23.46,85.59c-13.53,0-26.68,0-40.28,0c-10.22-20.21-20.54-40.59-30.85-60.97
			c-0.35,0.01-0.7,0.02-1.05,0.04c-5.87,20.12-11.08,40.43-16.82,60.83c-8.47,0-16.79,0-25.76,0c0.47-1.95,0.85-3.78,1.34-5.58
			c6.87-25.13,13.76-50.26,20.63-75.4c1.28-4.68,1.24-4.74,5.97-4.73c10.79,0.04,21.57,0.12,32.35,0.2
			C557.74,358.6,559.37,358.24,560.42,360.27z"/>
		<path class="st3" d="M648.14,379.8c-5.2,0-9.96,0-15.11,0c2-7.3,3.85-14.06,5.81-21.2c32.79-0.47,65.41-0.11,98.76-0.24
			c-2.01,7.38-3.88,14.23-5.84,21.4c-12.14,0-24.08,0-36.37,0c-5.94,21.59-11.8,42.92-17.7,64.39c-8.58,0-16.91,0-25.9,0
			c5.86-21.48,11.64-42.63,17.57-64.35C662,379.8,655.29,379.8,648.14,379.8z"/>
		<path class="st3" d="M731.12,398.79c3.72-13.47,7.33-26.6,11.03-40.02c8.57,0,16.89,0,25.9,0c-2.91,10.61-5.78,21.08-8.65,31.56
			c-2.84,10.37-5.66,20.75-8.65,31.69c19.49,0,38.42,0,58.08,0c-2.06,7.74-3.96,14.86-5.9,22.14c-27.95,0-55.61,0-83.87,0
			c1.41-7.75,3.86-15.06,5.79-22.48C726.81,414.13,728.95,406.65,731.12,398.79z"/>
	</g>
	<g>
		<path class="st0" d="M190.28,350.58c1.41,1.68,2.57,3.71,4.29,4.98c4.13,3.07,8.95,4.7,13.99,5.76c3.02,0.63,5.38-0.29,7.13-2.6
			c1.61-2.14,3.3-4.37,4.26-6.83c1.35-3.47,3.63-4.64,7.16-4.88c7.71-0.52,15.18-2.48,22.64-4.72c-1.69-0.51-3.4-0.58-5.09-0.82
			c-7.55-1.07-15.25-1.56-22.59-3.44c-7.77-1.99-15.2-5.31-22.77-8.07c-2.45-0.89-4.89-1.85-7.66-2.9
			C189.51,335.03,188.84,342.37,190.28,350.58z"/>
		<path class="st4" d="M190.19,350.22c-1.35-7.85-0.68-15.19,1.44-23.15c2.77,1.05,5.21,2.01,7.66,2.9c7.57,2.76,15,6.08,22.77,8.07
			c7.34,1.88,15.04,2.37,22.59,3.44c1.69,0.24,3.39,0.32,5.09,0.82c-7.47,2.24-14.93,4.19-22.64,4.72c-3.53,0.24-5.8,1.41-7.16,4.88
			c-0.96,2.46-2.64,4.69-4.26,6.83c-1.74,2.31-4.1,3.24-7.13,2.6c-5.04-1.06-9.85-2.69-13.99-5.76
			C192.85,354.29,191.69,352.26,190.19,350.22z"/>
	</g>
	<g>
		<path class="st0" d="M726.72,513.66c0.82,1.04,1.76,2.01,2.45,3.13c4.9,8.07,9.75,16.16,14.61,24.25
			c2.69,4.46,2.69,4.46,8.34,3.22c2.78-15.81,5.57-31.68,8.39-47.75c-3.37,0-6.26,0-9.16,0c-2.03,9.57-3.05,19.02-5.42,29.1
			c-1.21-1.68-1.85-2.47-2.38-3.32c-4.25-6.88-8.51-13.76-12.71-20.67c-3.4-5.59-3.37-5.61-9.77-5.36
			c-0.27,0.01-0.52,0.23-1.24,0.56c-2.76,15.71-5.57,31.7-8.42,47.86c3.26,0,6.05,0,9.18,0
			C722.44,534.4,724.26,524.25,726.72,513.66z"/>
		<path class="st0" d="M684.81,505.11c4.3,0,8.6,0,13.1,0c0.56-3.11,1.05-5.81,1.57-8.68c-12.54,0-24.46,0-36.61,0
			c-2.82,16.17-5.6,32.15-8.4,48.19c12.55,0,24.47,0,36.53,0c0.46-2.86,0.88-5.47,1.36-8.52c-9.15,0-17.91,0-27.2,0
			c0.65-3.94,1.22-7.42,1.84-11.21c8.96,0,17.59,0,26.39,0c0.54-2.93,1.02-5.52,1.59-8.6c-8.94,0-17.41,0-26.25,0
			c0.57-4.07,0.75-7.72,2.42-11.16C675.54,505.11,679.73,505.11,684.81,505.11z"/>
		<path class="st0" d="M826.59,538.66c-0.32,1.89-0.63,3.79-1,5.97c12.38,0,24.41,0,36.57,0c0.48-2.83,0.91-5.43,1.42-8.44
			c-3.46,0-6.43,0-9.4,0c-3,0-6,0.1-8.99-0.03c-2.88-0.13-5.86,0.6-8.89-0.63c0.68-3.58,1.32-6.92,2.03-10.64
			c8.85,0,17.48,0,26.35,0c0.49-2.97,0.91-5.55,1.43-8.68c-9.01,0-17.48,0-26.36,0c0.7-4.01,1.3-7.47,1.95-11.21
			c9.51,0,18.44,0,27.46,0c0.46-3,0.87-5.61,1.31-8.48c-12.28,0-24.31,0-36.42,0C831.59,510.5,829.15,524.2,826.59,538.66z"/>
		<path class="st0" d="M521.47,523.5c0.3-2.29,0.59-4.57,0.92-7.1c-8.93-0.05-17.39,0.02-26.24-0.05c0.81-4.18,1.48-7.63,2.21-11.4
			c9.32,0,18.25,0,27.23,0c0.52-3.01,0.97-5.62,1.46-8.49c-12.37,0-24.43,0-36.52,0c-2.84,16.14-5.63,32.02-8.48,48.18
			c12.34,0,24.37,0,36.61,0c0.45-2.78,0.86-5.39,1.33-8.27c-9.23-0.58-18.11,0.27-27.19-0.51c0.69-3.94,1.28-7.29,1.93-10.97
			c1.6,0,2.92,0,4.24,0c5.99,0,11.99,0.04,17.98-0.03C518.4,524.85,519.84,524.48,521.47,523.5z"/>
		<path class="st0" d="M345.08,530.26c0.65-7.56-1.69-11.28-8.83-13.42c-2.85-0.85-5.86-1.14-8.78-1.76
			c-2.19-0.46-4.45-0.81-6.49-1.64c-2.81-1.15-3.48-3.65-1.96-6.29c1.36-2.36,3.58-3.56,6.16-4.1c5.97-1.25,11.27-0.16,15.35,4.78
			c2.6-1.24,4.99-2.38,7.44-3.56c-0.9-3.95-3.25-6.46-6.58-7.65c-3.05-1.09-6.35-1.88-9.56-2c-7.06-0.26-13.75,1.21-18.86,6.64
			c-7.36,7.82-4.57,18.05,5.7,20.88c3.01,0.83,6.17,1.1,9.22,1.79c1.87,0.42,3.8,0.91,5.46,1.82c2.68,1.47,3.23,3.7,2.04,6.51
			c-1.15,2.7-3.37,4.16-6.03,4.94c-3.65,1.07-7.31,1.2-11.06,0.19s-6.01-3.58-7.67-6.95c-2.82,1.37-5.33,2.59-7.9,3.84
			c1.11,5.38,4.01,8.71,8.75,10.38c7.84,2.75,15.62,2.28,23.19-0.97C340.24,541.31,343.83,537.12,345.08,530.26z"/>
		<path class="st0" d="M366.96,509.79c-0.79,4.42-1.71,8.82-2.31,13.27c-0.39,2.95-0.61,5.99-0.37,8.95
			c0.49,6.07,3.8,10.3,9.44,12.57c9.62,3.87,25.36,1.38,31.48-13.16c1.04-2.46,1.7-5.12,2.2-7.75c1.51-7.94,2.87-15.91,4.24-23.87
			c0.19-1.11,0.14-2.26,0.2-3.34c-3.14,0-5.92,0-8.79,0c-0.69,3.91-1.34,7.59-1.99,11.26c-0.99,5.61-1.9,11.23-3,16.82
			c-1.13,5.74-3.73,10.6-9.71,12.42c-8.53,2.58-16.9-1.34-14.71-12.79c1.74-9.1,3.21-18.25,4.86-27.69c-3.03,0-5.82,0-9.03,0
			C368.68,500.54,367.87,504.78,366.96,509.79z"/>
		<path class="st0" d="M607.47,503.19c-6.01,5.72-9.2,12.78-9.94,21c-1.02,11.35,5.08,19.47,16.3,21.51
			c8.17,1.49,15.74-0.12,22.66-4.72c0.92-0.61,1.7-1.43,2.66-2.25c-1.85-2.19-3.45-4.09-5-5.93c-1.88,1.05-3.38,2.02-4.98,2.76
			c-4.66,2.14-9.49,2.58-14.4,0.95c-4.37-1.45-7.07-4.57-7.66-9.08c-1.11-8.62,1.83-15.67,9.18-20.47
			c6.92-4.51,14.23-3.92,21.76,1.45c2.23-1.86,4.48-3.75,6.73-5.63c-3.32-3.96-6.27-5.93-10.54-6.85
			C624.35,493.8,615.62,496.28,607.47,503.19z"/>
		<path class="st0" d="M800.46,505.4c1.4-0.28,2.8-0.76,4.2-0.81c3.7-0.11,7.42-0.04,11.4-0.04c0.48-2.94,0.9-5.46,1.34-8.14
			c-13.7,0-26.82,0-40.14,0c-0.44,2.75-0.85,5.31-1.32,8.26c5.34,0,10.09,0,15.31,0c-2.35,13.55-4.64,26.71-6.96,40.05
			c3.26,0,6.06,0,9.18,0C795.77,531.81,798.04,519.02,800.46,505.4z"/>
		<path class="st0" d="M216.38,520.71c24.74,1.17,49.47,2.34,74.22,3.51c0.96-3.45,1.75-6.3,2.68-9.6c-1.86,0-3.3-0.06-4.73,0.01
			c-21.51,0.97-43.02,1.96-64.54,2.94c-11.26,0.51-22.52,1-33.78,1.49c0.01,0.12,0.01,0.24,0.02,0.36
			C198.67,519.84,207.09,520.27,216.38,520.71z"/>
		<path class="st5" d="M917.25,525.33c-1.4,0.53-2.47,0.95-3.94,1.52c3.91,5.59,7.64,10.9,11.82,16.88c-3.83,0-6.94,0.19-10.01-0.1
			c-1.08-0.1-2.3-1.2-3.02-2.16c-2.58-3.48-5.11-7.02-7.4-10.69c-1.59-2.55-3.5-3.86-6.56-3.39c-1.29,0.2-2.64,0.03-4.44,0.03
			c-0.99,5.43-1.95,10.66-2.95,16.09c-3.03,0-5.95,0-9.2,0c2.83-16.09,5.62-31.95,8.45-48.07c1.03-0.13,2.02-0.37,3.01-0.38
			c6.73-0.03,13.46-0.05,20.19,0.01c1.63,0.01,3.3,0.16,4.89,0.51c6.63,1.45,10.61,6.49,10.2,13.3
			C927.85,516.29,924.53,521.99,917.25,525.33z M903.57,503.75c-1.91,0-3.82,0-5.8,0c-0.93,5.29-1.77,10.14-2.68,15.31
			c5.57,0,10.93,0.27,16.25-0.09c3.55-0.24,5.82-2.79,7.06-6.11c1.81-4.87-0.69-8.78-5.89-9.06
			C909.83,503.65,907.13,503.76,903.57,503.75z"/>
		<path class="st6" d="M578.09,523.14c-2.41,1.23-4.55,2.26-7.21,3.53c3.32,5.48,7.48,10.5,11.22,16.26
			c-3.66,0.96-7.15,0.52-10.57,0.32c-0.75-0.04-1.54-1.27-2.13-2.09c-2.62-3.64-5.38-7.2-7.67-11.05c-1.45-2.44-3.22-3.26-5.85-3.02
			c-1.46,0.13-2.95,0.02-4.83,0.02c-0.99,5.42-1.94,10.65-2.93,16.08c-3.03,0-5.95,0-9.24,0c2.86-16.18,5.68-32.16,8.52-48.27
			c9.02,0,17.69-0.42,26.3,0.12c7.92,0.5,12.29,6.09,11.86,14.03C585.25,514.73,582.92,519.46,578.09,523.14z M562.65,503.46
			c-2.51,0-5.01,0-7.53,0c-0.91,5.31-1.74,10.16-2.63,15.3c5.59,0,10.95,0.3,16.26-0.1c4.18-0.31,7.47-4.62,7.52-8.78
			c0.04-3.57-1.99-5.99-5.58-6.31C568.31,503.37,565.91,503.49,562.65,503.46z"/>
		<path class="st5" d="M726.4,513.89c-2.14,10.37-3.96,20.52-5.8,30.8c-3.12,0-5.92,0-9.18,0c2.84-16.16,5.65-32.15,8.42-47.86
			c0.72-0.33,0.97-0.55,1.24-0.56c6.4-0.25,6.37-0.23,9.77,5.36c4.2,6.91,8.46,13.79,12.71,20.67c0.53,0.85,1.17,1.64,2.38,3.32
			c2.37-10.08,3.39-19.53,5.42-29.1c2.9,0,5.79,0,9.16,0c-2.82,16.07-5.61,31.94-8.39,47.75c-5.65,1.23-5.66,1.24-8.34-3.22
			c-4.87-8.08-9.71-16.18-14.61-24.25C728.48,515.67,727.54,514.71,726.4,513.89z"/>
		<path class="st7" d="M684.36,505.11c-4.63,0-8.82,0-13.22,0c-1.66,3.44-1.85,7.09-2.42,11.16c8.85,0,17.31,0,26.25,0
			c-0.57,3.08-1.05,5.67-1.59,8.6c-8.79,0-17.42,0-26.39,0c-0.62,3.79-1.19,7.27-1.84,11.21c9.28,0,18.05,0,27.2,0
			c-0.49,3.05-0.91,5.67-1.36,8.52c-12.06,0-23.98,0-36.53,0c2.8-16.04,5.58-32.02,8.4-48.19c12.15,0,24.07,0,36.61,0
			c-0.52,2.87-1.01,5.57-1.57,8.68C693.41,505.11,689.11,505.11,684.36,505.11z"/>
		<path class="st7" d="M826.65,538.28c2.5-14.08,4.94-27.78,7.42-41.77c12.11,0,24.13,0,36.42,0c-0.44,2.86-0.85,5.48-1.31,8.48
			c-9.02,0-17.95,0-27.46,0c-0.65,3.75-1.26,7.21-1.95,11.21c8.88,0,17.35,0,26.36,0c-0.52,3.14-0.94,5.72-1.43,8.68
			c-8.87,0-17.5,0-26.35,0c-0.71,3.71-1.35,7.05-2.03,10.64c3.02,1.23,6,0.51,8.89,0.63c2.99,0.13,5.99,0.03,8.99,0.03
			c2.97,0,5.94,0,9.4,0c-0.51,3.01-0.95,5.61-1.42,8.44c-12.17,0-24.2,0-36.57,0C825.96,542.44,826.27,540.55,826.65,538.28z"/>
		<path class="st7" d="M521.38,523.88c-1.54,0.59-2.98,0.96-4.43,0.98c-5.99,0.07-11.99,0.03-17.98,0.03c-1.32,0-2.64,0-4.24,0
			c-0.65,3.68-1.24,7.03-1.93,10.97c9.07,0.78,17.96-0.07,27.19,0.51c-0.46,2.88-0.88,5.49-1.33,8.27c-12.23,0-24.27,0-36.61,0
			c2.84-16.16,5.64-32.04,8.48-48.18c12.09,0,24.15,0,36.52,0c-0.49,2.86-0.94,5.48-1.46,8.49c-8.98,0-17.91,0-27.23,0
			c-0.73,3.77-1.4,7.22-2.21,11.4c8.85,0.07,17.31,0,26.24,0.05C522.07,518.92,521.77,521.21,521.38,523.88z"/>
		<path class="st5" d="M345.02,530.64c-1.18,6.48-4.78,10.67-10.36,13.06c-7.57,3.25-15.35,3.72-23.19,0.97
			c-4.74-1.67-7.64-5-8.75-10.38c2.57-1.25,5.08-2.47,7.9-3.84c1.67,3.37,3.92,5.94,7.67,6.95s7.41,0.88,11.06-0.19
			c2.66-0.78,4.89-2.24,6.03-4.94c1.19-2.8,0.64-5.04-2.04-6.51c-1.66-0.91-3.59-1.39-5.46-1.82c-3.05-0.69-6.21-0.96-9.22-1.79
			c-10.28-2.82-13.06-13.06-5.7-20.88c5.12-5.43,11.8-6.9,18.86-6.64c3.22,0.12,6.52,0.91,9.56,2c3.33,1.19,5.68,3.69,6.58,7.65
			c-2.45,1.17-4.84,2.32-7.44,3.56c-4.08-4.94-9.38-6.03-15.35-4.78c-2.58,0.54-4.8,1.74-6.16,4.1c-1.53,2.64-0.85,5.14,1.96,6.29
			c2.05,0.84,4.31,1.18,6.49,1.64c2.92,0.62,5.93,0.91,8.78,1.76C343.39,518.99,345.74,522.71,345.02,530.64z"/>
		<path class="st5" d="M425.69,530.89c2.16-12.29,4.24-24.2,6.34-36.22c8.68,0,16.92-0.25,25.13,0.07
			c9.43,0.36,14.92,8.48,12.68,18.14c-2.16,9.31-10.06,15.83-19.69,16.09c-4.9,0.13-9.81,0.02-14.84,0.02
			c-0.92,4.97-1.76,9.49-2.63,14.17c-2.91,0-5.72,0-9.15,0C424.26,539.08,424.94,535.18,425.69,530.89z M449.48,520.61
			c6.47-0.25,10.35-3.2,11.36-8.61c0.8-4.34-1.65-8.18-5.85-8.42c-5.03-0.28-10.08-0.07-15.29-0.07c-1,5.8-1.93,11.22-2.94,17.1
			C440.93,520.61,444.79,520.61,449.48,520.61z"/>
		<path class="st6" d="M367.01,509.4c0.86-4.62,1.67-8.86,2.44-12.94c3.21,0,6,0,9.03,0c-1.64,9.44-3.12,18.59-4.86,27.69
			c-2.19,11.45,6.18,15.37,14.71,12.79c5.99-1.81,8.58-6.68,9.71-12.42c1.1-5.58,2.01-11.21,3-16.82c0.65-3.67,1.3-7.35,1.99-11.26
			c2.87,0,5.65,0,8.79,0c-0.06,1.08-0.01,2.24-0.2,3.34c-1.37,7.96-2.73,15.93-4.24,23.87c-0.5,2.63-1.17,5.29-2.2,7.75
			c-6.12,14.54-21.86,17.03-31.48,13.16c-5.64-2.27-8.95-6.5-9.44-12.57c-0.24-2.96-0.02-6,0.37-8.95
			C365.24,518.61,366.17,514.21,367.01,509.4z"/>
		<path class="st6" d="M607.7,502.96c7.92-6.68,16.66-9.17,26.55-7.02c4.27,0.93,7.22,2.89,10.54,6.85
			c-2.25,1.88-4.51,3.77-6.73,5.63c-7.53-5.37-14.84-5.97-21.76-1.45c-7.35,4.8-10.3,11.85-9.18,20.47
			c0.58,4.51,3.28,7.63,7.66,9.08c4.91,1.63,9.74,1.19,14.4-0.95c1.61-0.74,3.11-1.71,4.98-2.76c1.55,1.84,3.15,3.74,5,5.93
			c-0.96,0.82-1.74,1.64-2.66,2.25c-6.92,4.6-14.49,6.21-22.66,4.72c-11.22-2.04-17.32-10.16-16.3-21.51
			C598.27,515.97,601.46,508.91,607.7,502.96z"/>
		<path class="st6" d="M800.39,505.81c-2.35,13.21-4.62,26-6.92,38.9c-3.12,0-5.92,0-9.18,0c2.32-13.33,4.6-26.5,6.96-40.05
			c-5.22,0-9.96,0-15.31,0c0.47-2.95,0.88-5.5,1.32-8.26c13.32,0,26.44,0,40.14,0c-0.44,2.68-0.86,5.21-1.34,8.14
			c-3.98,0-7.69-0.08-11.4,0.04C803.25,504.64,801.86,505.12,800.39,505.81z"/>
		<path class="st8" d="M215.94,520.7c-8.85-0.43-17.27-0.86-25.69-1.29c-0.01-0.12-0.01-0.24-0.02-0.36
			c11.26-0.5,22.52-0.98,33.78-1.49c21.51-0.97,43.02-1.97,64.54-2.94c1.43-0.06,2.87-0.01,4.73-0.01c-0.92,3.31-1.71,6.15-2.68,9.6
			C265.85,523.05,241.11,521.88,215.94,520.7z"/>
	</g>
	<g>
		<path class="st0" d="M902.58,324.36c20.76,1.75,41.36,4.52,61.73,9.02c18.14,4.01,36.1,8.66,53.7,14.63
			c2.84,0.96,5.6,0.95,9.32,0.3c-13.88-7.5-27.49-13.3-41.49-18.14c-26.18-9.05-53.21-14.08-80.77-16.34
			c-20-1.64-40.02-3.02-60.01-4.81c-16.11-1.44-32.14-3.58-47.89-7.45c-19.3-4.74-37.55-12.3-55.24-21.22
			c-14.3-7.21-28.28-15.09-42.62-22.23c-27.14-13.51-55.66-22.75-85.78-26.79c-19.79-2.65-39.63-3.55-59.61-2.59
			c-24.26,1.17-48.4,3.7-72.42,6.98c-20.75,2.83-41.39,6.61-61.95,10.65c-42.92,8.43-85.26,19.2-126.98,32.4
			c-26.57,8.41-53.34,16.02-81.3,18.29c-7.95,0.65-15.88,0.61-23.73-0.8c-6.11-1.09-11.62-3.68-16.2-7.91
			c-6.5,6.49-6.57,13.45-0.31,19.27c1.53,1.42,3.16,2.86,4.99,3.81c5.56,2.9,11.06,6.07,16.92,8.21
			c14.38,5.27,29.33,8.31,44.49,10.5c19.44,2.81,38.96,4.69,58.54,5.8c16.29,0.92,32.61,1.46,48.92,1.82
			c22.61,0.51,45.23,0.81,67.84,1.01c19.48,0.17,38.96,0.15,58.44,0.08c75.67-0.27,151.33-0.61,227-0.91
			c8.84-0.04,17.68,0.01,26.52-0.02c1.19,0,2.37-0.25,3.56-0.38c-0.02-0.41-0.04-0.83-0.05-1.24c-4.06-0.29-8.13-0.6-12.19-0.85
			c-17.79-1.09-35.58-2.16-53.37-3.25c-17.18-1.06-34.37-2.12-51.55-3.21c-12.85-0.81-25.7-1.65-38.55-2.51
			c-14.34-0.96-28.68-1.97-43.03-2.91c-15.09-0.99-30.19-1.79-45.27-2.91c-21.66-1.61-43.31-3.34-64.94-5.19
			c-15.06-1.29-30.1-2.9-45.16-4.31c-6.17-0.58-11.58-3.04-16.43-6.7c-4.35-3.28-7.73-7.38-9.21-13.26
			c3.73-2.44,7.26-4.95,10.97-7.14c18.46-10.91,38.52-17.86,59.06-23.58c25.3-7.05,51.04-11.96,77.12-14.77
			c19.64-2.12,39.36-3.91,59.08-4.83c26.89-1.26,53.57,1.26,79.88,7.15c19.21,4.31,38.07,9.83,55.24,19.65
			c16.5,9.44,32.53,19.71,48.75,29.65c0.27,0.16,0.33,0.66,0.6,1.23c-5.57,1.73-10.85,0.92-16.08-0.42
			c-7.46-1.9-14.34-5.16-20.99-8.97c-3.64-2.08-7.26-4.2-10.95-6.17c-2.34-1.24-4.94-1.8-7.21-0.01c-4.89,3.84-7.64,8.84-6.98,15.2
			c0.67,6.43,5.18,9.91,10.47,12.48c5.58,2.72,11.61,4.18,17.74,4.58c20.62,1.34,41.24,2.63,61.88,3.51
			c26.48,1.12,52.98,1.7,79.46,2.74C864.98,322.24,883.36,323.35,902.58,324.36z"/>
		<path class="st2" d="M902.17,324.32c-18.8-0.97-37.19-2.08-55.59-2.8c-26.48-1.04-52.98-1.62-79.46-2.74
			c-20.64-0.87-41.27-2.17-61.88-3.51c-6.13-0.4-12.16-1.86-17.74-4.58c-5.29-2.58-9.8-6.05-10.47-12.48
			c-0.66-6.36,2.1-11.36,6.98-15.2c2.28-1.79,4.87-1.23,7.21,0.01c3.7,1.97,7.32,4.08,10.95,6.17c6.65,3.81,13.54,7.07,20.99,8.97
			c5.24,1.33,10.51,2.14,16.08,0.42c-0.27-0.57-0.34-1.07-0.6-1.23c-16.22-9.93-32.25-20.21-48.75-29.65
			c-17.17-9.82-36.03-15.34-55.24-19.65c-26.31-5.9-52.99-8.41-79.88-7.15c-19.73,0.92-39.44,2.71-59.08,4.83
			c-26.08,2.81-51.82,7.72-77.12,14.77c-20.54,5.72-40.59,12.68-59.06,23.58c-3.71,2.19-7.24,4.7-10.97,7.14
			c1.48,5.88,4.86,9.98,9.21,13.26c4.84,3.66,10.26,6.13,16.43,6.7c15.05,1.41,30.09,3.02,45.16,4.31
			c21.64,1.85,43.29,3.58,64.94,5.19c15.08,1.12,30.18,1.92,45.27,2.91c14.34,0.94,28.68,1.96,43.03,2.91
			c12.85,0.86,25.7,1.69,38.55,2.51c17.18,1.09,34.36,2.15,51.55,3.21c17.79,1.09,35.58,2.16,53.37,3.25
			c4.07,0.25,8.13,0.57,12.19,0.85c0.02,0.41,0.04,0.83,0.05,1.24c-1.19,0.13-2.37,0.37-3.56,0.38c-8.84,0.03-17.68-0.01-26.52,0.02
			c-75.67,0.3-151.33,0.63-227,0.91c-19.48,0.07-38.96,0.09-58.44-0.08c-22.62-0.2-45.23-0.49-67.84-1.01
			c-16.31-0.37-32.63-0.9-48.92-1.82c-19.59-1.11-39.11-3-58.54-5.8c-15.16-2.19-30.11-5.24-44.49-10.5
			c-5.86-2.15-11.36-5.32-16.92-8.21c-1.83-0.95-3.46-2.39-4.99-3.81c-6.26-5.82-6.19-12.77,0.31-19.27
			c4.58,4.23,10.09,6.82,16.2,7.91c7.85,1.4,15.78,1.44,23.73,0.8c27.96-2.28,54.72-9.89,81.3-18.29
			c41.72-13.2,84.06-23.97,126.98-32.4c20.56-4.04,41.2-7.82,61.95-10.65c24.02-3.28,48.16-5.81,72.42-6.98
			c19.98-0.96,39.82-0.07,59.61,2.59c30.11,4.04,58.64,13.28,85.78,26.79c14.34,7.14,28.31,15.01,42.62,22.23
			c17.69,8.92,35.93,16.48,55.24,21.22c15.74,3.87,31.78,6.01,47.89,7.45c19.99,1.79,40.01,3.17,60.01,4.81
			c27.56,2.27,54.59,7.29,80.77,16.34c14,4.84,27.61,10.64,41.49,18.14c-3.72,0.64-6.48,0.66-9.32-0.3
			c-17.6-5.97-35.56-10.62-53.7-14.63C943.95,328.88,923.34,326.1,902.17,324.32z"/>
		<path class="st3" d="M185.34,295.77c27.6,6.54,62.5-5.14,161.99-33.29c0.91-0.26,20.13-5.66,58.76-13.78
			c38.63-8.13,67.86-12.46,97.16-15.79c54.3-5.94,90.07-7.04,131.93,2.77c40.27,7.45,74.65,28.64,105.91,45.03
			c19.56,9.56,33.9,15.89,59.26,21.83c26.79,6.06,60.82,8.05,108.27,11.72c20.85,1.57,55.04,7.49,81.06,17.64
			c20.93,7.37,36.09,16.33,36.09,16.33s-4.79,0.96-6.68,0.31c-13.35-4.58-32.65-9.91-43.82-12.46
			c-20.28-4.63-37.12-7.96-63.48-10.91c-15.06-1.07-25.76-1.88-46.09-2.74c-14.45-0.61,3.95,0.47-61.77-2.32
			c-44.76-1.48-56.81-1.65-101.46-4.99c-25.55-3.46-28.28-14.92-25.84-23.85c6.3-12.75,11.15-8.82,11.88-9
			c10.86,4.93,13.53,8.7,26.73,13.7c16.73,6.03,22.96,2.59,22.96,2.59l-0.6-1.23c0,0-2.2-1.31-10.46-6.51
			c-8.4-4.72-38.21-25.75-64.21-34.55c-28.88-9.78-68.67-19.05-126.16-14.4c-24.21,2.09-49.02,3.71-73.76,8.31
			c-15.02,3.06-28.19,5.55-41.46,9.2c-21.79,5.53-33.18,10.53-44.11,14.97c-18.42,8.74-24.39,12.86-30.09,17.16
			c2.89,9.71,12.12,15.07,13.45,15.65c12.78,6.43,16.76,3.47,28.73,5.63c47.05,5.09,88.37,7.09,152.62,11.79
			c51.85,3.79,185.03,11.72,185.03,11.72s0.11,1.19-0.19,1.27c-0.69,0.2-3.92,0.35-3.92,0.35s-116.05,0.5-215.91,0.5
			s-179.93,0.57-242.77-5.32s-56.26-9.78-77.46-15.2c-19.38-8.41-29.8-16.33-17.53-30.21C169.42,287.7,176.21,295.21,185.34,295.77z
			"/>
	</g>
</g>
</svg>
